<svg version="1" xmlns="http://www.w3.org/2000/svg" width="933.333" height="933.333" viewBox="0 0 700.000000 700.000000"><path d="M60 3.3c-5.8 3.1-7.7 7.1-8.5 18.2-.3 4.9-.8 10.6-1 12.5-.4 3.4-1 11.4-2 25.5-.3 3.8-.7 9-1 11.5-.4 4.1-1.7 19.4-3 37.5-.3 3.8-.8 8.1-1 9.5-.2 1.4-.7 6.8-1 12-.3 5.2-.8 11.5-1 14-.2 2.5-.7 7.9-1 12-.3 4.1-.8 9.5-1 12-.2 2.5-.7 8.1-1.1 12.5-.3 4.4-.7 9.6-.9 11.5-.2 1.9-.6 7.3-1 12-.3 4.7-.8 10.1-1 12-.2 1.9-.7 7.3-1 12-.4 4.7-.8 10.1-1 12-.2 1.9-.6 7.5-1 12.5-.3 4.9-.8 10.6-1 12.5-.2 1.9-.7 7.3-1 12-.3 4.7-.8 10.1-1 12-.2 1.9-.7 6.6-1 10.5-.5 7.5-2.2 28.5-3 37.5-.3 3-.7 8.4-1 12-.3 3.6-.7 9-1 12-.2 3-.7 8.4-1 12-1 12.6-3.5 43.6-4 49.5-.3 3.3-.8 8.7-1.1 12-.2 3.3-.7 8-.9 10.5-.2 2.5-.7 8.3-1 13-.3 4.7-.8 10.1-1 12-.2 1.9-.7 7.3-1 12-.3 4.7-.8 10.1-1 12-.3 1.9-.7 7.3-1 12-.3 4.7-.8 10.1-1 12-.2 1.9-.6 7.5-1 12.5-.3 4.9-.8 10.1-1 11.5-.2 1.4-.7 6.5-1 11.5-.3 4.9-.8 11-1 13.5-.2 2.5-.9 10.3-1.5 17.5-.6 7.1-1.2 15.5-1.5 18.5-.3 3-.7 9.6-1.1 14.6l-.6 9.1 12.1 6.2c22.9 11.6 48.4 22.4 74.1 31.3 10.7 3.7 32.6 10.6 36 11.3.8.2 7.6 1.9 15 3.8 12.6 3.3 28.9 6.8 37 8.1 4.9.8 14.1 2.4 16.5 3 1.8.3 13.6 2.1 21 3.1 1.7.2 5.7.7 9 1 3.3.4 7.1.9 8.5 1.1 1.4.2 5.4.7 9 .9 3.6.3 8.8.8 11.5 1 27.4 2.7 87.9 2.7 115.5 0 2.5-.2 7.4-.7 11-1 3.6-.3 8.1-.7 10-1 1.9-.2 5.8-.7 8.5-1.1 2.8-.3 6.4-.8 8-1 1.7-.2 5-.6 7.5-.9 6.7-.7 40.6-7.1 50.8-9.5 4.8-1.2 10-2.4 11.7-2.7 1.6-.3 10.6-2.7 20-5.4 9.3-2.7 17.7-5.1 18.6-5.3 7.2-1.8 36.2-12.5 55.4-20.4 6.5-2.7 7-3.1 6.9-5.8-.1-3.6-1.5-21.9-1.9-25.9-.2-1.7-.6-6.8-1-11.5-.3-4.7-.8-10.1-1-12-.2-1.9-.7-7.1-1-11.5-.3-4.4-.8-10.3-1-13-.2-2.8-.7-8.6-1.1-13-.3-4.4-.8-9.4-.9-11-.2-1.7-.6-7.3-1-12.5s-.9-9.7-1-10c-1-1.7 2.5-3.2 16.5-7.4 45.3-13.6 54.9-17.5 67.4-27.6 3.4-2.6 7.6-6.5 9.4-8.6 4.3-5.3 9.7-15.8 11.1-21.9.8-3.4 1.2-23.4 1.4-63.4.2-56.4.3-58.4 2.1-58.7 3.7-.5 14.3-6.4 17.9-9.9 5.2-5.1 7.6-10.8 7.3-17.5-.2-3-1-6.9-1.8-8.5-3.6-6.8-12.2-13.3-22-16.4-2.1-.7-3.8-1.6-3.8-2 0-.4-28-.8-62.2-.9-34.2-.1-62.5-.5-62.9-.9-.4-.5-1-5.1-1.3-10.3-.4-5.2-.8-11.1-1.1-13-.4-3.6-1.2-13.5-2-25.5-.3-3.9-.7-9-1-11.5-.2-2.5-.7-7.4-.9-11-.3-3.6-.8-9.4-1.1-13-.3-3.6-.7-9.9-1-14-.3-4.1-.7-9.5-1-12-.2-2.5-.7-8.3-1-13-.3-4.7-.8-9.6-1-11-.2-1.4-.7-6.3-1-11-.4-4.7-.8-9.6-1-11-.2-1.4-.6-7-1-12.5s-.8-11.1-1-12.5c-.2-1.4-.6-6.6-1-11.5-.3-5-.8-10.8-1-13-.7-8.5-1.6-19.2-2-23-.2-2.2-.6-8.1-1-13-1.6-23.9-2.3-28-5.2-30.9-3.7-3.7-10.4-5.9-16-5.4-6.3.6-11 2.9-16.4 8.1-2.4 2.3-8.5 7.8-13.4 12.2-5 4.4-9.2 8.2-9.5 8.5-.5.5-24.4 21.9-31.9 28.5-4.3 3.9-7.7 6.9-12.6 11.4-2.2 2-10.7 9.7-19 17.1-8.2 7.4-16.9 15.2-19.2 17.4-2.3 2.1-5.2 4.6-6.5 5.4-1.9 1.4-12.1 1.6-88.2 1.6-84.9.1-86.1.1-88.1-1.9-1.1-1.1-5.4-4.9-9.5-8.5-4-3.6-8.6-7.6-10-9-1.5-1.4-6-5.4-10-9-4.1-3.6-9.9-8.8-13-11.6-3-2.8-10.7-9.7-17-15.4-6.3-5.6-15.1-13.5-19.4-17.4-4.3-3.9-8.7-7.8-9.6-8.6-4.2-3.7-17.8-15.9-22.2-20-2.7-2.5-6.7-5.5-9-6.8-5.6-3-13.9-3-19.8.1z"/></svg>