<?xml version="1.0" encoding="iso-8859-1"?>
<!-- Generator: Adobe Illustrator 21.0.0, SVG Export Plug-In . SVG Version: 6.00 Build 0)  -->
<svg version="1.1" id="Capa_1" xmlns="http://www.w3.org/2000/svg" xmlns:xlink="http://www.w3.org/1999/xlink" x="0px" y="0px"
	 viewBox="0 0 512 512" style="enable-background:new 0 0 512 512;" xml:space="preserve">
<g>
	<circle style="fill:#5C5560;" cx="255.998" cy="255.999" r="255.998"/>
	<circle style="fill:#5C5560;" cx="255.998" cy="255.999" r="255.998"/>
</g>
<path style="fill:#60C5E8;" d="M512,256.001c0,19.487-2.173,38.462-6.301,56.706c-0.742,3.271-1.546,6.52-2.414,9.738
	c-3.542,13.228-8.119,26.039-13.636,38.327c-40.04,89.14-129.598,151.227-233.648,151.227
	c-104.061,0-193.608-62.087-233.648-151.227c-0.554-1.233-1.097-2.466-1.63-3.709c-1.369-3.187-2.675-6.405-3.918-9.665
	c-4.295-11.201-7.816-22.789-10.501-34.69c-4.127-18.244-6.301-37.219-6.301-56.706c0-11.327,0.731-22.476,2.173-33.416
	c4.712-36.258,17.032-70.144,35.296-99.986c7.534-12.319,16.07-23.938,25.516-34.764c11.818-13.563,25.056-25.872,39.476-36.697
	c42.778-32.11,95.931-51.137,153.536-51.137C397.386,0.002,512,114.616,512,256.001z"/>
<path style="fill:#5C5560;" d="M505.699,312.707c-2.633,11.64-6.06,22.977-10.219,33.959c-3.887,10.261-8.411,20.198-13.531,29.779
	c-43.081,80.666-128.104,135.554-225.947,135.554c-89.14,0-167.632-45.557-213.471-114.656c-7.68-11.567-14.44-23.792-20.177-36.571
	c-1.975-4.389-3.824-8.85-5.548-13.375c-2.257-5.883-4.305-11.88-6.113-17.972c-1.651-5.496-3.114-11.076-4.389-16.718
	L505.699,312.707L505.699,312.707z"/>
<path style="fill:#EA5A52;" d="M365.793,95.368h-10.596c-8.038,0-14.555,6.517-14.555,14.555v36.644h39.706v-36.644
	C380.347,101.885,373.831,95.368,365.793,95.368z"/>
<polygon style="fill:#6095C4;" points="457.582,261.246 309.761,261.246 309.761,150.561 423.957,150.561 457.07,259.564 "/>
<polygon style="fill:#FFFFFF;" points="457.07,259.564 448.586,261.246 349.07,261.246 409.078,150.561 423.957,150.561 "/>
<g>
	<path style="fill:#EAEAEA;" d="M466.553,229.813l-31.535-77.834c-3.114-7.69-10.574-12.716-18.871-12.716H292.746V357.06h175.437
		V238.173C468.184,235.309,467.63,232.467,466.553,229.813z M422.041,238.34h-90.676c-8.568,0-15.517-6.949-15.517-15.517v-44.178
		c0-8.986,7.283-16.269,16.269-16.269h71.209c6.625,0,12.591,4.023,15.078,10.167l18.004,44.46
		C440.546,227.201,433.044,238.34,422.041,238.34z"/>
	<path style="fill:#EAEAEA;" d="M292.74,116.027v241.036H75.622c-19.999-28.86-34.21-62.025-40.97-97.823
		c-1.661-8.756-2.863-17.669-3.605-26.718c-0.272-3.291-14.242-6.614-28.87-9.937c4.712-36.258,17.032-70.144,35.296-99.986
		c7.534-12.319,16.07-23.938,25.516-34.764h201.549C280.118,87.836,292.74,100.458,292.74,116.027z"/>
</g>
<path style="fill:#E0E2E2;" d="M479.497,345.748L479.497,345.748c0,6.247-5.065,11.312-11.312,11.312h-69.849
	c-54.344,0-6.259-16.362-8.707-22.625h78.556C474.432,334.436,479.497,339.501,479.497,345.748z"/>
<g>
	<path style="fill:#D8D8D8;" d="M393.578,357.06H292.746V171.592c0.387,26.06,6.238,142.784,79.464,165.908
		C392.324,343.853,397.403,350.551,393.578,357.06z"/>
	<path style="fill:#D8D8D8;" d="M226.285,357.062H20.723c-1.369-3.187-2.675-6.405-3.918-9.665
		c-4.295-11.201-7.816-22.789-10.501-34.69c-4.127-18.244-6.301-37.219-6.301-56.706c0-48.87,13.699-94.552,37.47-133.401
		C62.331,206.609,122.684,345.412,226.285,357.062z"/>
</g>
<circle style="fill:#232323;" cx="381.009" cy="357.187" r="50.395"/>
<circle style="fill:#E0E2E2;" cx="381.009" cy="357.187" r="29.168"/>
<path style="fill:#CCCCCC;" d="M387.609,375.21c-13.594,0-24.618-11.024-24.618-24.618c0-9.874,5.81-18.39,14.19-22.308
	c-14.305,1.87-25.339,14.096-25.339,28.902c0,16.112,13.061,29.173,29.173,29.173c14.806,0,27.031-11.034,28.902-25.339
	C405.999,369.401,397.483,375.21,387.609,375.21z"/>
<circle style="fill:#232323;" cx="98.575" cy="357.187" r="50.395"/>
<circle style="fill:#E0E2E2;" cx="98.575" cy="357.187" r="29.168"/>
<path style="fill:#CCCCCC;" d="M105.173,375.21c-13.594,0-24.618-11.024-24.618-24.618c0-9.874,5.81-18.39,14.19-22.308
	c-14.305,1.87-25.339,14.096-25.339,28.902c0,16.112,13.061,29.173,29.173,29.173c14.806,0,27.031-11.034,28.902-25.339
	C123.563,369.401,115.047,375.21,105.173,375.21z"/>
<path style="fill:#FFDF5E;" d="M452.943,299.667c0,10.01-8.108,18.129-18.118,18.129v-36.258
	C444.834,281.538,452.943,289.656,452.943,299.667z"/>
<path style="fill:#EAEAEA;" d="M416.706,299.667c0-10.01,8.108-18.129,18.118-18.129v36.258
	C424.814,317.795,416.706,309.677,416.706,299.667z"/>
<path style="fill:#3F3942;" d="M459.755,334.436h8.427v-76.064l0,0c-4.654,0-8.427,3.773-8.427,8.427V334.436z"/>
<g>
	<rect x="98.23" y="120.446" style="fill:#EA5A52;" width="80.457" height="176.587"/>
	<rect x="50.165" y="168.511" style="fill:#EA5A52;" width="176.587" height="80.457"/>
</g>
<g>
	<circle style="fill:#FFFFFF;" cx="138.197" cy="224.36" r="24.79"/>
	<circle style="fill:#FFFFFF;" cx="123.673" cy="181.781" r="10.309"/>
	<circle style="fill:#FFFFFF;" cx="100.456" cy="199.868" r="10.309"/>
	<circle style="fill:#FFFFFF;" cx="176.451" cy="200.683" r="10.309"/>
	<circle style="fill:#FFFFFF;" cx="153.63" cy="182.094" r="10.309"/>
</g>
<g>
</g>
<g>
</g>
<g>
</g>
<g>
</g>
<g>
</g>
<g>
</g>
<g>
</g>
<g>
</g>
<g>
</g>
<g>
</g>
<g>
</g>
<g>
</g>
<g>
</g>
<g>
</g>
<g>
</g>
</svg>
