<?xml version="1.0" encoding="iso-8859-1"?>
<!-- Generator: Adobe Illustrator 21.0.0, SVG Export Plug-In . SVG Version: 6.00 Build 0)  -->
<svg version="1.1" id="Capa_1" xmlns="http://www.w3.org/2000/svg" xmlns:xlink="http://www.w3.org/1999/xlink" x="0px" y="0px"
	 viewBox="0 0 512 512" style="enable-background:new 0 0 512 512;" xml:space="preserve">
<path style="fill:#EA5A52;" d="M512,256c0,19.759-2.236,38.985-6.468,57.459c-2.466,10.721-5.601,21.191-9.362,31.347
	c-1.16,3.177-2.393,6.311-3.688,9.415c-4.514,10.846-9.749,21.316-15.653,31.347c-11.995,20.407-26.739,39.006-43.729,55.286
	c-16.792,16.091-35.756,29.915-56.424,40.97C340.72,501.081,299.635,512,256,512s-84.72-10.919-120.675-30.177
	c-20.668-11.055-39.633-24.879-56.424-40.97c-16.99-16.28-31.734-34.879-43.729-55.286c-5.904-10.031-11.139-20.501-15.653-31.347
	c-1.296-3.103-2.529-6.238-3.688-9.415c-3.762-10.156-6.896-20.626-9.362-31.347C2.236,294.985,0,275.759,0,256
	C0,114.615,114.615,0,256,0S512,114.615,512,256z"/>
<g>
	<path style="fill:#1F6599;" d="M135.325,333.845v147.978c-20.668-11.055-39.633-24.879-56.424-40.97V333.845H135.325z"/>
	<path style="fill:#1F6599;" d="M433.1,333.845v107.008c-16.792,16.091-35.756,29.915-56.424,40.97V333.845H433.1z"/>
</g>
<rect x="27.959" y="31.347" style="fill:#60C5E8;" width="456.077" height="322.873"/>
<rect x="423.737" y="86.225" style="fill:#82DCF4;" width="45.451" height="162.994"/>
<path style="fill:#1F6599;" d="M462.305,270.275c-1.954,3.218-5.381,5.005-8.892,5.005c-1.849,0-3.709-0.491-5.402-1.515
	l-17.554-10.7l-27.533,35.286v72.349h-20.804v-33.458l-49.883-60.865h-25.098l-14.315,14.315c-2.027,2.038-4.681,3.051-7.346,3.051
	c-2.664,0-5.329-1.014-7.356-3.051c-4.065-4.065-4.065-10.648,0-14.712l13.228-13.239l-4.733-19.675
	c-1.348-5.58,2.09-11.201,7.68-12.549c5.59-1.337,11.201,2.1,12.549,7.69l4.18,17.366h15.6l-0.23-18.244l-12.361-26.781
	c-2.414-5.214-0.136-11.4,5.078-13.814c5.224-2.403,11.4-0.125,13.803,5.089l7.043,15.245l4.953-4.953
	c4.065-4.065,10.648-4.065,14.712,0c4.065,4.065,4.065,10.648,0,14.712l-12.403,12.403l0.293,22.967l34.607,42.224v-87.28
	l-55.505-55.505l-13.908,6.384c-1.4,0.648-2.884,0.951-4.336,0.951c-3.939,0-7.701-2.247-9.456-6.06
	c-2.403-5.214-0.115-11.4,5.11-13.793l14.42-6.635v-30.417c0-5.747,4.66-10.407,10.407-10.407c5.747,0,10.407,4.66,10.407,10.407
	v32.778l21.504,21.504l2.038-9.874c1.149-5.632,6.656-9.258,12.278-8.098c5.632,1.16,9.247,6.666,8.098,12.288l-4.807,23.301
	l11.389,11.389l19.435-38.055l6.363-30.73c0.867-4.232,4.2-7.325,8.182-8.108c1.317-0.261,2.706-0.272,4.106,0.021
	c5.632,1.16,9.247,6.677,8.077,12.298l-4.044,19.602h12.685c5.747,0,10.407,4.66,10.407,10.397c0,5.757-4.66,10.407-10.407,10.407
	h-19.101l-1.724,3.375l-20.814,40.761v49.204l15.6-19.978l5.214-17.962l4.19-14.441c1.609-5.517,7.377-8.694,12.894-7.095
	c5.517,1.599,8.694,7.367,7.084,12.894l-7.743,26.676l7.555,4.598l11.118,6.771C463.736,258.97,465.293,265.375,462.305,270.275z"/>
<g>
	<path style="fill:#7BA6C6;" d="M447.906,217.947l-7.743,26.676l7.555,4.598h-23.98v-22.632l4.19-14.441
		c1.609-5.517,7.377-8.694,12.894-7.095S449.515,212.419,447.906,217.947z"/>
	<path style="fill:#7BA6C6;" d="M454.969,160.781c0,5.757-4.66,10.407-10.407,10.407h-19.101l-1.724,3.375v-56.101
		c1.317-0.261,2.706-0.272,4.106,0.021c5.632,1.16,9.247,6.677,8.077,12.298l-4.044,19.602h12.685
		C450.309,150.384,454.969,155.044,454.969,160.781z"/>
</g>
<g>
	<path style="fill:#488C5B;" d="M255.514,218.235h-5.053c-25.477,0-46.129,20.652-46.129,46.129v5.053h5.053
		c25.477,0,46.129-20.652,46.129-46.129V218.235z"/>
	<path style="fill:#488C5B;" d="M175.141,191.913h-5.053c-25.477,0-46.129,20.652-46.129,46.129v5.053h5.053
		c25.477,0,46.129-20.652,46.129-46.129V191.913z"/>
	<path style="fill:#488C5B;" d="M53.284,251.61h5.053c25.477,0,46.129,20.652,46.129,46.129v5.053h-5.053
		c-25.477,0-46.129-20.652-46.129-46.129V251.61z"/>
	<path style="fill:#488C5B;" d="M133.657,269.158h5.053c25.477,0,46.129,20.652,46.129,46.129v5.053h-5.053
		c-25.477,0-46.129-20.652-46.129-46.129V269.158z"/>
	<path style="fill:#488C5B;" d="M53.284,132.217h5.053c25.477,0,46.129,20.652,46.129,46.129v5.053h-5.053
		c-25.477,0-46.129-20.652-46.129-46.129V132.217z"/>
	<path style="fill:#488C5B;" d="M118.039,275.44c-4.834,7.4-9.003,13.789-9.003,27.345c0,13.573,4.169,19.962,9.003,27.353
		c4.914,7.536,10.487,16.066,10.487,32.356c0,0.385,0,0.762-0.008,1.131h-9.147c0.016-0.369,0.016-0.745,0.016-1.131
		c0-13.565-4.169-19.962-9.003-27.353c-4.914-7.527-10.487-16.065-10.487-32.356c0-16.282,5.571-24.812,10.487-32.34
		c4.834-7.4,9.003-13.788,9.003-27.353c0-13.565-4.169-19.954-9.003-27.345c-4.914-7.527-10.487-16.066-10.487-32.348
		s5.571-24.812,10.487-32.348c4.834-7.392,9.003-13.781,9.003-27.346c0-2.526,2.052-4.569,4.569-4.569
		c2.526,0,4.569,2.045,4.569,4.569c0,16.283-5.571,24.812-10.487,32.341c-4.834,7.4-9.003,13.788-9.003,27.353
		c0,13.565,4.169,19.954,9.003,27.353c4.914,7.52,10.487,16.058,10.487,32.34C128.525,259.383,122.953,267.913,118.039,275.44z"/>
	<path style="fill:#488C5B;" d="M198.212,297.656c-4.722,6.173-8.802,11.496-8.802,22.688c0,11.184,4.08,16.515,8.802,22.679
		c4.032,5.259,8.49,11.087,10.085,20.603h-9.308c-1.395-6.366-4.538-10.478-8.033-15.048c-5.01-6.542-10.686-13.958-10.686-28.235
		c0-14.286,5.676-21.694,10.686-28.244c4.722-6.173,8.802-11.504,8.802-22.688c0-11.175-4.08-16.506-8.802-22.68
		c-5.01-6.542-10.686-13.958-10.686-28.235c0-14.277,5.676-21.693,10.686-28.244c4.722-6.173,8.802-11.504,8.802-22.68
		c0-2.526,2.052-4.569,4.569-4.569c2.526,0,4.569,2.044,4.569,4.569c0,14.279-5.676,21.694-10.686,28.235
		c-4.722,6.173-8.802,11.504-8.802,22.688c0,11.184,4.08,16.515,8.802,22.68c5.01,6.542,10.686,13.958,10.686,28.235
		C208.899,283.698,203.223,291.114,198.212,297.656z"/>
</g>
<g>
	<rect x="10.72" y="31.347" style="fill:#6095C4;" width="490.559" height="40.772"/>
	<path style="fill:#6095C4;" d="M496.17,344.806c-1.16,3.177-2.393,6.311-3.688,9.415c-4.514,10.846-9.749,21.316-15.653,31.347
		H35.171c-5.904-10.031-11.139-20.501-15.653-31.347c-1.296-3.103-2.529-6.238-3.688-9.415H496.17z"/>
</g>
<g>
	<circle style="fill:#82DCF4;" cx="218.028" cy="131.281" r="13.709"/>
	<circle style="fill:#82DCF4;" cx="242.28" cy="192.784" r="13.709"/>
	<circle style="fill:#82DCF4;" cx="239.919" cy="301.944" r="13.709"/>
	<circle style="fill:#82DCF4;" cx="272.75" cy="101.146" r="13.709"/>
</g>
<g>
</g>
<g>
</g>
<g>
</g>
<g>
</g>
<g>
</g>
<g>
</g>
<g>
</g>
<g>
</g>
<g>
</g>
<g>
</g>
<g>
</g>
<g>
</g>
<g>
</g>
<g>
</g>
<g>
</g>
</svg>
