<?xml version="1.0" encoding="iso-8859-1"?>
<!-- Generator: Adobe Illustrator 21.0.0, SVG Export Plug-In . SVG Version: 6.00 Build 0)  -->
<svg version="1.1" id="Capa_1" xmlns="http://www.w3.org/2000/svg" xmlns:xlink="http://www.w3.org/1999/xlink" x="0px" y="0px"
	 viewBox="0 0 512 512" style="enable-background:new 0 0 512 512;" xml:space="preserve">
<path style="fill:#FFDF5E;" d="M512,256c0,24.858-3.542,48.87-10.156,71.596v0.01c-7.084,24.409-17.721,47.292-31.295,68.096v0.01
	C424.866,465.732,345.84,512,256,512c-91.042,0-170.977-47.522-216.367-119.118c-11.88-18.725-21.389-39.1-28.108-60.709
	C4.033,308.109,0,282.53,0,256c0-25.819,3.824-50.751,10.94-74.25c13.051-43.165,37.198-81.502,69.12-111.7
	C125.931,26.624,187.852,0,256,0c67.845,0,129.505,26.384,175.323,69.486c0.01,0.01,0.01,0.01,0.021,0.01
	c33.04,31.054,57.825,70.813,70.708,115.607C508.531,207.621,512,231.403,512,256z"/>
<path style="fill:#1F6599;" d="M502.053,168.145v152.963c0,2.184-0.063,4.347-0.209,6.489v0.01
	c-7.084,24.409-17.721,47.292-31.295,68.096v0.01c-18.756,18.275-44.377,29.518-72.62,29.518H115.064
	c-29.675,0-56.466-12.424-75.431-32.35c-11.88-18.725-21.389-39.1-28.108-60.709c-0.387-3.636-0.585-7.325-0.585-11.065V168.145
	c0-45.234,28.839-83.717,69.12-98.095c10.94-3.908,22.727-6.029,35.004-6.029h282.864c11.682,0,22.904,1.923,33.395,5.465
	c0.01,0.01,0.01,0.01,0.021,0.01C472.461,83.425,502.053,122.326,502.053,168.145z"/>
<path style="fill:#6095C4;" d="M502.053,168.145v152.963c0,2.184-0.063,4.347-0.209,6.499
	c-7.084,24.409-17.721,47.303-31.295,68.106c-18.756,18.275-44.377,29.518-72.62,29.518H169.294
	c-57.501,0-104.124-46.613-104.124-104.124V168.145c0-57.511,46.623-104.124,104.124-104.124h228.634
	c11.682,0,22.925,1.923,33.416,5.475C472.461,83.425,502.053,122.326,502.053,168.145z"/>
<path style="fill:#FFDF5E;" d="M461.886,168.149v95.02c0,16.368-6.176,31.311-16.329,42.63c-5.252,5.874-11.559,10.755-18.639,14.37
	c-8.706,4.449-18.568,6.959-28.992,6.959h-282.86c-17.705,0-33.752-7.231-45.351-18.91c-11.489-11.569-18.609-27.495-18.609-45.05
	v-95.02c0-35.268,28.701-63.959,63.959-63.959h282.861C433.195,104.19,461.886,132.881,461.886,168.149z"/>
<path style="fill:#FFB133;" d="M461.886,168.149v95.02c0,16.368-6.176,31.311-16.329,42.63c-5.252,5.874-11.559,10.755-18.639,14.37
	l-109.641-175.81c52.22,0,80.649,0,80.649-40.169C433.195,104.19,461.886,132.881,461.886,168.149z"/>
<path style="fill:#EA5A52;" d="M445.557,305.799c-11.709,13.085-28.731,21.329-47.631,21.329h-282.86
	c-17.705,0-33.752-7.231-45.351-18.91c-3.986-42.9-1.616-85.801,7.12-128.692c3.816-18.729,19.321-32.788,38.322-34.837
	c30.037-3.234,60.073-5.443,90.109-6.628c64.883-2.57,129.756-0.362,194.63,6.628c18.98,2.049,34.506,16.087,38.311,34.787
	C446.783,221.584,449.233,263.691,445.557,305.799z"/>
<path style="fill:#D33531;" d="M175.058,327.128h-59.993c-17.705,0-33.752-7.231-45.351-18.91
	c-3.986-42.9-1.616-85.801,7.12-128.692c3.816-18.729,19.321-32.788,38.322-34.837c30.037-3.234,60.073-5.443,90.109-6.628
	C145.744,153.367,111.431,266.634,175.058,327.128z"/>
<g>
</g>
<g>
</g>
<g>
</g>
<g>
</g>
<g>
</g>
<g>
</g>
<g>
</g>
<g>
</g>
<g>
</g>
<g>
</g>
<g>
</g>
<g>
</g>
<g>
</g>
<g>
</g>
<g>
</g>
</svg>
