<?xml version="1.0" encoding="iso-8859-1"?>
<!-- Generator: Adobe Illustrator 21.0.0, SVG Export Plug-In . SVG Version: 6.00 Build 0)  -->
<svg version="1.1" id="Capa_1" xmlns="http://www.w3.org/2000/svg" xmlns:xlink="http://www.w3.org/1999/xlink" x="0px" y="0px"
	 viewBox="0 0 512 512" style="enable-background:new 0 0 512 512;" xml:space="preserve">
<path style="fill:#6095C4;" d="M512,256c0,75.985-33.102,144.238-85.682,191.122C381.074,487.476,321.411,512,256,512
	s-125.074-24.524-170.318-64.878C33.102,400.238,0,331.985,0,256C0,114.615,114.615,0,256,0S512,114.615,512,256z"/>
<path style="fill:#FFDF5E;" d="M426.318,186.201v260.921C381.074,487.476,321.411,512,256,512s-125.074-24.524-170.318-64.878
	V186.201L236.157,61.639L256,45.213l19.843,16.426L426.318,186.201z"/>
<polygon style="fill:#FFB133;" points="426.318,212.114 426.318,286.009 256,115.681 85.682,285.999 85.682,212.114 256,41.796 "/>
<polygon style="fill:#EA5A52;" points="462.84,280.731 255.997,73.887 49.154,280.731 12.211,243.787 255.997,0.001 
	499.783,243.787 "/>
<circle style="fill:#3C363F;" cx="256" cy="310.617" r="84.637"/>
<circle style="fill:#FFB133;" cx="256" cy="453.015" r="44.645"/>
<g>
</g>
<g>
</g>
<g>
</g>
<g>
</g>
<g>
</g>
<g>
</g>
<g>
</g>
<g>
</g>
<g>
</g>
<g>
</g>
<g>
</g>
<g>
</g>
<g>
</g>
<g>
</g>
<g>
</g>
</svg>
