<?xml version="1.0" encoding="iso-8859-1"?>
<!-- Generator: Adobe Illustrator 21.0.0, SVG Export Plug-In . SVG Version: 6.00 Build 0)  -->
<svg version="1.1" id="Capa_1" xmlns="http://www.w3.org/2000/svg" xmlns:xlink="http://www.w3.org/1999/xlink" x="0px" y="0px"
	 viewBox="0 0 512 512" style="enable-background:new 0 0 512 512;" xml:space="preserve">
<path style="fill:#FFDF5E;" d="M512,256.001c0,60.102-20.71,115.356-55.379,159.033c-12.006,15.12-25.683,28.86-40.751,40.918
	c-7.022,5.622-14.346,10.888-21.943,15.747c-38.964,24.983-85.148,39.675-134.728,40.281c-1.066,0.01-2.132,0.021-3.197,0.021
	c-24.931,0-49.037-3.563-71.815-10.219c-4.629-1.348-9.205-2.832-13.73-4.43C71.129,462.158,0.003,367.386,0.003,256.001
	c0-141.384,114.614-255.998,255.998-255.998c50.792,0,98.126,14.785,137.926,40.301c7.596,4.859,14.921,10.125,21.943,15.747
	c15.078,12.058,28.745,25.798,40.751,40.918C491.29,140.633,512,195.908,512,256.001z"/>
<path style="fill:#1F6599;" d="M279.606,428.554c0,54.522-7.91,75.556-20.407,83.424c-1.066,0.01-2.132,0.021-3.197,0.021
	c-24.931,0-49.037-3.563-71.815-10.219c-4.629-1.348-9.205-2.832-13.73-4.43c-5.59-12.789-8.819-33.959-8.819-68.796
	c0-99.641,26.404-180.411,58.984-180.411c23.05,0,42.997,40.416,52.704,99.359C277.349,371.869,279.606,399.4,279.606,428.554z"/>
<path style="fill:#6095C4;" d="M279.606,428.554c0,54.522-7.91,75.556-20.407,83.424c-1.066,0.01-2.132,0.021-3.197,0.021
	c-24.931,0-49.037-3.563-71.815-10.219c0.136-99.275,26.488-179.617,58.984-179.617c11.024,0,21.326,9.237,30.156,25.339
	C277.349,371.869,279.606,399.4,279.606,428.554z"/>
<path style="fill:#1F6599;" d="M441.243,18.57c0,163.2-98.78,295.495-220.622,295.495S0,181.768,0,18.57H441.243z"/>
<path style="fill:#6095C4;" d="M434.916,18.57c-23.617,129.128-110.6,224.947-214.295,224.947S29.942,147.696,6.327,18.57H434.916z"
	/>
<g>
	<path style="fill:#3C363F;" d="M304.589,35.811h100.31c6.636,0,12.016-5.38,12.016-12.016l0,0c0-6.636-5.38-12.016-12.016-12.016
		h-100.31c-6.636,0-12.016,5.38-12.016,12.016l0,0C292.574,30.43,297.953,35.811,304.589,35.811z"/>
	<path style="fill:#3C363F;" d="M304.589,73.724h100.31c6.636,0,12.016-5.38,12.016-12.016l0,0c0-6.636-5.38-12.016-12.016-12.016
		h-100.31c-6.636,0-12.016,5.38-12.016,12.016l0,0C292.574,68.345,297.953,73.724,304.589,73.724z"/>
	<path style="fill:#3C363F;" d="M304.589,111.639h100.31c6.636,0,12.016-5.38,12.016-12.016l0,0c0-6.636-5.38-12.016-12.016-12.016
		h-100.31c-6.636,0-12.016,5.38-12.016,12.016l0,0C292.574,106.259,297.953,111.639,304.589,111.639z"/>
	<path style="fill:#3C363F;" d="M304.589,149.554h100.31c6.636,0,12.016-5.38,12.016-12.016l0,0c0-6.636-5.38-12.016-12.016-12.016
		h-100.31c-6.636,0-12.016,5.38-12.016,12.016l0,0C292.574,144.174,297.953,149.554,304.589,149.554z"/>
	<path style="fill:#3C363F;" d="M304.589,187.468h100.31c6.636,0,12.016-5.38,12.016-12.016l0,0c0-6.636-5.38-12.016-12.016-12.016
		h-100.31c-6.636,0-12.016,5.38-12.016,12.016l0,0C292.574,182.089,297.953,187.468,304.589,187.468z"/>
	<path style="fill:#3C363F;" d="M304.589,225.383h100.31c6.636,0,12.016-5.38,12.016-12.016l0,0c0-6.636-5.38-12.016-12.016-12.016
		h-100.31c-6.636,0-12.016,5.38-12.016,12.016l0,0C292.574,220.003,297.953,225.383,304.589,225.383z"/>
	<path style="fill:#3C363F;" d="M304.589,263.298h100.31c6.636,0,12.016-5.38,12.016-12.016l0,0c0-6.636-5.38-12.016-12.016-12.016
		h-100.31c-6.636,0-12.016,5.38-12.016,12.016l0,0C292.574,257.918,297.953,263.298,304.589,263.298z"/>
	<path style="fill:#3C363F;" d="M304.589,301.213h100.31c6.636,0,12.016-5.38,12.016-12.016l0,0c0-6.636-5.38-12.016-12.016-12.016
		h-100.31c-6.636,0-12.016,5.38-12.016,12.016l0,0C292.574,295.833,297.953,301.213,304.589,301.213z"/>
</g>
<path style="fill:#D33531;" d="M456.621,16.615v398.417c-12.006,15.12-25.683,28.86-40.751,40.918
	c-7.022,5.622-14.346,10.888-21.943,15.747V16.615c0-9.174,7.44-16.614,16.614-16.614h29.466
	C449.181,0.002,456.621,7.442,456.621,16.615z"/>
<path style="fill:#EA5A52;" d="M456.621,16.615v398.417c-12.006,15.12-25.683,28.86-40.751,40.918V16.615
	c0-9.174,7.44-16.614,16.614-16.614h7.523C449.181,0.002,456.621,7.442,456.621,16.615z"/>
<g>
</g>
<g>
</g>
<g>
</g>
<g>
</g>
<g>
</g>
<g>
</g>
<g>
</g>
<g>
</g>
<g>
</g>
<g>
</g>
<g>
</g>
<g>
</g>
<g>
</g>
<g>
</g>
<g>
</g>
</svg>
