<?xml version="1.0" encoding="iso-8859-1"?>
<!-- Generator: Adobe Illustrator 21.0.0, SVG Export Plug-In . SVG Version: 6.00 Build 0)  -->
<svg version="1.1" id="Capa_1" xmlns="http://www.w3.org/2000/svg" xmlns:xlink="http://www.w3.org/1999/xlink" x="0px" y="0px"
	 viewBox="0 0 512 512" style="enable-background:new 0 0 512 512;" xml:space="preserve">
<path style="fill:#EA5A52;" d="M512,256c0,43.719-10.961,84.887-30.302,120.905c-1.609,3.02-3.291,5.998-5.026,8.944
	c-8.84,14.973-19.153,28.975-30.751,41.796C399.078,479.451,331.337,512,256,512s-143.078-32.549-189.921-84.355
	c-6.029-6.656-11.703-13.625-17.011-20.898c-1.4-1.933-2.79-3.887-4.138-5.862c-3.375-4.89-6.572-9.906-9.603-15.036
	c-4.096-6.938-7.868-14.085-11.295-21.42C8.61,331.494,0,294.755,0,256s8.61-75.515,24.033-108.439
	c5.977-12.758,12.978-24.952,20.898-36.456c15.036-21.87,33.395-41.294,54.345-57.532c9.937-7.711,20.459-14.702,31.493-20.898
	C167.79,11.87,210.505,0,256,0s88.21,11.87,125.231,32.674c11.034,6.196,21.556,13.187,31.493,20.898
	c18.119,14.043,34.294,30.469,48.076,48.797c7.753,10.324,14.754,21.253,20.898,32.716C501.039,171.092,512,212.271,512,256z"/>
<circle style="fill:#6095C4;" cx="255.624" cy="237.171" r="123.204"/>
<path style="fill:#FFFFFF;" d="M257.195,371.292c-78.275,0-141.956-63.681-141.956-141.956S178.92,87.38,257.195,87.38
	s141.956,63.681,141.956,141.956S335.47,371.292,257.195,371.292z M257.195,118.727c-60.991,0-110.609,49.619-110.609,110.609
	s49.619,110.609,110.609,110.609s110.609-49.618,110.609-110.609S318.185,118.727,257.195,118.727z"/>
<polygon style="fill:#3C363F;" points="86.318,422.378 64.153,400.213 257.195,207.17 444.75,394.727 422.585,416.892 
	257.195,251.502 "/>
<g>
	<path style="fill:#FFDF5E;" d="M423.236,32.674H82.495c-32.235,0-58.462,26.227-58.462,58.462v273.293
		c3.427,7.335,7.199,14.482,11.295,21.42c3.03,5.13,6.228,10.146,9.603,15.036V91.136c0-20.71,16.854-37.564,37.564-37.564h340.741
		c20.71,0,37.564,16.854,37.564,37.564v315.611H49.068c5.308,7.272,10.982,14.242,17.011,20.898h379.841
		c11.598-12.821,21.911-26.823,30.751-41.796c1.735-2.947,3.417-5.925,5.026-8.944V91.136
		C481.698,58.901,455.471,32.674,423.236,32.674z"/>
	<path style="fill:#FFDF5E;" d="M394.909,53.572c-7.534-12.842-18.975-20.898-31.995-20.898H142.817
		c-13.019,0-24.461,8.056-31.995,20.898c-5.935,10.094-9.467,23.134-9.467,37.564v336.509h303.02V91.136
		C404.375,76.706,400.844,63.666,394.909,53.572z M383.478,406.747H122.253V91.136c0-22.141,10.836-37.564,20.564-37.564h220.097
		c9.728,0,20.564,15.423,20.564,37.564V406.747z"/>
	<path style="fill:#FFDF5E;" d="M309.008,54.888c-0.084-0.387-0.188-0.825-0.303-1.317c-1.505-6.447-5.59-20.898-17.523-20.898
		h-76.633c-11.933,0-16.018,14.451-17.523,20.898c-0.115,0.491-0.219,0.93-0.303,1.317c-2.205,9.801-3.417,22.674-3.417,36.248
		v336.509h119.118V91.136C312.424,77.563,311.212,64.69,309.008,54.888z M291.527,406.747h-77.322V91.136
		c0-18.996,2.581-32.225,4.566-37.564h68.19c1.985,5.339,4.566,18.568,4.566,37.564V406.747z"/>
	<rect x="34.482" y="128.805" style="fill:#FFDF5E;" width="436.767" height="20.898"/>
	<rect x="34.482" y="224.413" style="fill:#FFDF5E;" width="436.767" height="20.898"/>
	<rect x="34.482" y="320.021" style="fill:#FFDF5E;" width="436.767" height="20.898"/>
</g>
<path style="fill:#6095C4;" d="M476.672,385.849c-6.949,11.786-14.817,22.956-23.51,33.437
	c-9.373,11.316-19.707,21.807-30.866,31.347C377.553,488.897,319.478,512,256,512s-121.553-23.103-166.296-61.367
	c-11.16-9.54-21.494-20.031-30.866-31.347c-8.694-10.48-16.562-21.65-23.51-33.437H476.672z"/>
<path style="fill:#1F6599;" d="M453.162,419.286c-9.373,11.316-19.707,21.807-30.866,31.347H89.704
	c-11.16-9.54-21.494-20.031-30.866-31.347H453.162z"/>
<g>
</g>
<g>
</g>
<g>
</g>
<g>
</g>
<g>
</g>
<g>
</g>
<g>
</g>
<g>
</g>
<g>
</g>
<g>
</g>
<g>
</g>
<g>
</g>
<g>
</g>
<g>
</g>
<g>
</g>
</svg>
