<?xml version="1.0" encoding="iso-8859-1"?>
<!-- Generator: Adobe Illustrator 21.0.0, SVG Export Plug-In . SVG Version: 6.00 Build 0)  -->
<svg version="1.1" id="Capa_1" xmlns="http://www.w3.org/2000/svg" xmlns:xlink="http://www.w3.org/1999/xlink" x="0px" y="0px"
	 viewBox="0 0 512 512" style="enable-background:new 0 0 512 512;" xml:space="preserve">
<path style="fill:#6095C4;" d="M512,256c0,58.681-19.749,112.765-52.966,155.951c-9.415,12.236-19.905,23.594-31.347,33.938
	c-8.955,8.108-18.495,15.59-28.536,22.371c-9.968,6.74-20.438,12.8-31.347,18.098c-7.461,3.636-15.141,6.907-22.988,9.812
	c-10.156,3.762-20.626,6.896-31.347,9.352c-13.887,3.187-28.202,5.245-42.841,6.06C265.791,511.864,260.911,512,256,512
	c-5.622,0-11.191-0.178-16.718-0.543c-13.928-0.888-27.533-2.894-40.761-5.935c-10.721-2.456-21.191-5.59-31.347-9.352
	c-8.579-3.176-16.948-6.792-25.067-10.836c-10.919-5.433-21.389-11.619-31.347-18.505c-9.279-6.405-18.119-13.406-26.457-20.95
	c-11.442-10.344-21.932-21.703-31.347-33.938C19.749,368.765,0,314.681,0,256C0,114.615,114.615,0,256,0S512,114.615,512,256z"/>
<path style="fill:#FFB133;" d="M358.797,81.345C331.515,41.2,294.64,19.09,254.955,19.09s-76.56,22.11-103.842,62.255
	c-26.018,38.296-40.354,88.921-40.354,142.545v242.939c9.958,6.886,20.428,13.072,31.347,18.505V223.89
	c0-47.407,12.403-91.773,34.931-124.928c17.398-25.59,39.069-41.775,62.245-46.822v459.316C244.809,511.822,250.378,512,256,512
	c4.911,0,9.791-0.136,14.629-0.418V52.14c23.176,5.047,44.847,21.232,62.245,46.822c22.528,33.155,34.931,77.521,34.931,124.928
	v262.468c10.909-5.298,21.379-11.358,31.347-18.098V223.89C399.151,170.266,384.815,119.641,358.797,81.345z"/>
<g>
	<path style="fill:#FFDF5E;" d="M256,19.435c-0.564,0-1.128,0-1.693,0.01C143.12,20.355,52.955,111.083,52.955,222.469v189.471
		c9.415,12.236,19.905,23.594,31.347,33.938v-45.401h82.871v95.692c10.156,3.762,20.626,6.896,31.347,9.352v-85.191
		c0-31.681,25.788-57.469,57.48-57.469s57.469,25.788,57.469,57.469v85.191c10.721-2.456,21.191-5.59,31.347-9.352v-95.692h82.871
		v45.411c11.442-10.344,21.932-21.703,31.347-33.938V222.469C459.034,110.519,367.95,19.435,256,19.435z M256,50.782
		c12.079,0,26.311,17.209,37.115,44.899c11.692,29.947,18.693,68.932,20.093,111.114H198.792
		c1.39-42.183,8.391-81.168,20.083-111.114C229.689,67.992,243.911,50.782,256,50.782z M167.173,369.131H84.302V238.143h82.871
		L167.173,369.131L167.173,369.131z M189.67,84.281c-13.03,33.405-20.804,76.434-22.246,122.514H85.023
		c5.078-55.85,37.01-104.061,82.756-131.574c10.501-6.311,21.734-11.536,33.531-15.506C197.12,66.988,193.223,75.191,189.67,84.281z
		 M313.469,352.695c-15.506-13.187-35.568-21.18-57.469-21.18c-21.911,0-41.974,7.983-57.48,21.18V238.143h114.949V352.695z
		 M344.566,206.796c-1.442-46.08-9.206-89.109-22.246-122.514c-3.553-9.091-7.44-17.293-11.63-24.566
		C373.875,81,420.718,138.125,426.966,206.796H344.566z M427.687,369.131h-82.871V238.143h82.871V369.131z"/>
	<rect x="240.327" y="0" style="fill:#FFDF5E;" width="31.347" height="35.106"/>
</g>
<g>
</g>
<g>
</g>
<g>
</g>
<g>
</g>
<g>
</g>
<g>
</g>
<g>
</g>
<g>
</g>
<g>
</g>
<g>
</g>
<g>
</g>
<g>
</g>
<g>
</g>
<g>
</g>
<g>
</g>
</svg>
