<?xml version="1.0" encoding="iso-8859-1"?>
<!-- Generator: Adobe Illustrator 19.0.0, SVG Export Plug-In . SVG Version: 6.00 Build 0)  -->
<svg xmlns="http://www.w3.org/2000/svg" xmlns:xlink="http://www.w3.org/1999/xlink" version="1.1" id="Layer_1" x="0px" y="0px" viewBox="0 0 490 490" style="enable-background:new 0 0 490 490;" xml:space="preserve" width="512" height="512">
<g>
	<path style="fill:#60C5E8;" d="M490,245c0,26.06-4.07,51.17-11.61,74.73C446.8,418.49,354.25,490,245,490c-0.85,0-1.71,0-2.56-0.01   c-108.14-1.11-199.5-72.28-230.83-170.28v-0.01C4.07,296.15,0,271.05,0,245C0,109.69,109.69,0,245,0S490,109.69,490,245z"/>
	<path style="fill:#EA5A52;" d="M478.39,319.73C446.8,418.49,354.25,490,245,490c-0.85,0-1.71,0-2.56-0.01   c-108.14-1.11-199.5-72.28-230.83-170.28v-0.01l17.48-116.37H460.9L478.39,319.73z"/>
	<path style="fill:#D33531;" d="M245,490c-109.26,0-201.81-71.52-233.39-170.29l17.48-116.38h36.8l40.09,35.76   C105.98,239.09,69.41,426.31,245,490z"/>
	<path style="fill:#EA5A52;" d="M244.997,276.388c-53.67,0-104.389-5.587-142.813-15.733   c-48.499-12.806-73.089-32.093-73.089-57.325s24.591-44.519,73.089-57.325c38.424-10.146,89.143-15.733,142.813-15.733   s104.388,5.588,142.813,15.733c48.499,12.806,73.09,32.093,73.09,57.325s-24.591,44.519-73.09,57.325   C349.385,270.8,298.667,276.388,244.997,276.388z"/>
	<ellipse style="fill:#FFFFFF;" cx="244.997" cy="203.33" rx="194.094" ry="51.25"/>
	<path style="fill:#C6C6C6;" d="M414.55,203.33c-4.13,2.95-12.07,7.16-25.56,11.55c-4.23,1.38-9,2.77-14.38,4.14   c-2.71,0.69-5.58,1.38-8.6,2.06c-33.51,7.54-76.49,11.69-121.01,11.69c-17.74,0-35.25-0.66-52-1.94   c-8.43-0.64-16.67-1.43-24.66-2.38c-15.97-1.87-30.92-4.35-44.35-7.37c-3.03-0.68-5.89-1.37-8.61-2.06   c-5.37-1.37-10.15-2.77-14.38-4.14c-13.49-4.39-21.43-8.6-25.56-11.55c4.41-3.15,13.16-7.74,28.37-12.43   c4.68-1.45,9.96-2.9,15.92-4.33c1.38-0.33,2.8-0.66,4.26-0.99c14.63-3.29,31.08-5.94,48.67-7.87c7.57-0.84,15.35-1.54,23.29-2.11   c15.85-1.12,32.34-1.71,49.05-1.71c44.52,0,87.5,4.15,121.01,11.69c1.45,0.33,2.87,0.66,4.25,0.99c5.95,1.42,11.23,2.87,15.9,4.32   C401.39,195.58,410.13,200.18,414.55,203.33z"/>
	<g>
		<path style="fill:#FFFFFF;" d="M165.56,304.54c-20.47-3.13-39.61,2.84-45.82,29.5c-1.78,7.98-3.57,15.96-5.35,23.94    c-1.54,6.89-3.08,13.78-4.62,20.67c-6.2,26.63,12.04,41.32,37.15,45.19c0.84,0.13,1.67,0.24,2.49,0.34    c26.66,3.27,46.32-7.85,47.74-26.98c0.7-8.33-3.05-10.75-11.44-11.61c-6.34-0.66-11.75,0.31-12.76,5.31    c-1.39,6.71-4.22,17.28-21.82,14.69c-13.34-2.06-19.53-9.47-17.17-22c2.77-14.99,5.53-29.97,8.3-44.95    c2.36-12.58,9.85-17.28,21.13-15.54c16,2.37,15.89,13.39,15.62,18.53c-0.44,4.89,4.1,7.29,10.63,7.97    c7.77,0.79,11.65-0.89,12.36-9.37C203.42,321.24,188.13,308.02,165.56,304.54z"/>
		<path style="fill:#FFFFFF;" d="M311.57,418.1c-15.52-33.15-29.16-66.82-40.91-100.84c-1.66-4.86-7.8-6.99-14.06-6.96    c-6.09,0.04-12.2,2.24-13.81,7.12c-11.37,34.15-24.63,67.96-39.77,101.29c-0.25,0.64-0.49,1.28-0.52,1.6    c-0.42,5.24,8.68,9.51,15.68,9.85c4.38,0.22,7.82-0.8,8.93-3.87c2.79-7.16,5.49-14.34,8.12-21.53    c14.66,0.39,29.32,0.31,43.97-0.25c2.71,7.16,5.49,14.31,8.36,21.44c1.14,3.06,4.59,4.04,8.98,3.77    c6.99-0.41,16.03-4.95,15.56-10.02C312.06,419.21,311.82,418.74,311.57,418.1z M240.74,388.17c5.76-16.66,11.1-33.39,16.01-50.18    c5.11,16.73,10.63,33.41,16.56,50C262.46,388.32,251.6,388.38,240.74,388.17z"/>
		<path style="fill:#FFFFFF;" d="M381.1,306.7c-1.01-4.47-4.2-8.78-8.73-7.82c-22.9,4.83-46.03,8.26-69.24,10.27    c-4.6,0.39-6.38,5.44-6.05,10.02c0.38,5.22,3.27,9.45,7.7,9.07c8.34-0.72,16.66-1.62,24.97-2.69c4.01,31.03,8.03,62.07,12.04,93.1    c0.56,4.39,7.2,5.85,13.74,4.87c6.34-0.93,12.48-4.29,11.73-8.65c-5.17-30.86-10.34-61.72-15.51-92.59    c8.22-1.37,16.41-2.92,24.58-4.65C380.7,316.71,382.21,311.66,381.1,306.7z"/>
	</g>
	<path style="fill:#EAEAEA;" d="M149.41,424.18c-0.82-0.1-1.65-0.21-2.49-0.34c-25.11-3.87-43.35-18.56-37.15-45.19   c1.54-6.89,3.08-13.78,4.62-20.67C121.43,380.24,132.45,403.12,149.41,424.18z"/>
	<path style="fill:#BA4C20;" d="M382.32,206.16c-1.36-0.8-2.81-1.37-4.31-1.71c5.02-2.58,8.24-7.83,8.15-13.56   c0-0.85-0.08-1.7-0.25-2.57c-1.26-6.62-6.67-11.39-13.03-12.12c5.22-3.72,7.64-10.54,5.51-16.94c-2.13-6.41-8.17-10.42-14.6-10.27   c4.67-4.43,6.11-11.56,3.07-17.61c-3.05-6.07-9.67-9.17-16.04-8.03c3.97-5.14,4.26-12.46,0.26-17.98   c-4.03-5.55-11.14-7.52-17.28-5.29c3.05-5.81,2.01-13.15-3-17.87c-5.05-4.75-12.51-5.33-18.15-1.86c1.83-6.4-0.8-13.47-6.78-17.01   c-6.04-3.58-13.56-2.44-18.29,2.32c0.24-6.73-4.11-13.02-10.88-14.95c-6.8-1.94-13.85,1.14-17.17,7.04   c-0.99-4.12-3.68-7.57-7.29-9.59c-0.18-0.1-0.36-0.19-0.55-0.29c-0.3-0.16-0.61-0.3-0.92-0.42c-0.27-0.11-0.54-0.21-0.8-0.31   c-0.02,0-0.03-0.01-0.04-0.01c-1.56-0.56-3.25-0.86-5-0.86c-7.08,0-13.01,4.91-14.58,11.51c-3.33-5.9-10.38-8.98-17.18-7.03   c-6.77,1.94-11.12,8.23-10.87,14.97c-4.73-4.76-12.25-5.9-18.28-2.31c-5.99,3.55-8.6,10.62-6.77,17.01   c-5.64-3.46-13.11-2.88-18.15,1.88c-5,4.72-6.04,12.07-2.99,17.87c-6.13-2.23-13.25-0.25-17.27,5.3c-4,5.52-3.7,12.85,0.27,17.98   c-6.37-1.14-12.98,1.97-16.03,8.04c-3.04,6.05-1.6,13.18,3.07,17.61c-6.42-0.15-12.46,3.86-14.59,10.28   c-2.12,6.4,0.3,13.21,5.52,16.93c-6.36,0.74-11.77,5.51-13.02,12.13c-0.16,0.83-0.24,1.64-0.25,2.46   c-0.14,5.72,3.03,10.97,7.99,13.59c-2.13,0.52-4.17,1.49-5.93,2.93c-2.38,1.94-4.04,4.58-4.87,7.46c4.23,1.37,9.01,2.77,14.38,4.14   c2.72,0.69,5.58,1.38,8.61,2.06c13.43,3.02,28.38,5.5,44.35,7.37c7.99,0.95,16.23,1.74,24.66,2.38c16.75,1.28,34.26,1.94,52,1.94   c44.52,0,87.5-4.15,121.01-11.69c3.02-0.68,5.89-1.37,8.6-2.06c5.38-1.37,10.15-2.76,14.38-4.14   C387.96,211.29,385.61,208.11,382.32,206.16z"/>
	<path style="fill:#A03510;" d="M249.93,47.13c-4.86-1.66-10.36-0.78-14.44,2.54c-4.48,3.66-6.43,9.77-5.01,15.31   c-5.51-1.4-11.58,0.39-15.38,5.11c-3.73,4.61-4.26,10.77-1.9,15.8c-5.52-0.34-11.02,2.39-13.95,7.51   c-2.92,5.09-2.52,11.17,0.5,15.74c-5.45,0.46-10.45,3.89-12.66,9.3c-2.19,5.39-1.02,11.31,2.52,15.43   c-5.31,1.13-9.82,5.1-11.37,10.69c-1.54,5.57,0.27,11.27,4.22,14.96c-5.12,1.68-9.16,6.07-10.12,11.76   c-0.38,2.21-0.24,4.4,0.32,6.43c0.85,3.17,2.73,5.97,5.32,7.96c-4.91,2.15-8.5,6.86-8.95,12.58c-0.44,5.72,2.38,10.93,6.9,13.82   c-0.86,0.45-1.68,0.98-2.44,1.6c-4.33,3.54-6.3,9.38-5.15,14.78c-15.97-1.87-30.92-4.35-44.35-7.37c-3.03-0.68-5.89-1.37-8.61-2.06   c-5.37-1.37-10.15-2.77-14.38-4.14c0.83-2.88,2.49-5.52,4.87-7.46c1.76-1.44,3.8-2.41,5.93-2.93c-4.96-2.62-8.13-7.87-7.99-13.59   c0.01-0.82,0.09-1.63,0.25-2.46c1.25-6.62,6.66-11.39,13.02-12.13c-5.22-3.72-7.64-10.53-5.52-16.93   c2.13-6.42,8.17-10.43,14.59-10.28c-4.67-4.43-6.11-11.56-3.07-17.61c3.05-6.07,9.66-9.18,16.03-8.04   c-3.97-5.13-4.27-12.46-0.27-17.98c4.02-5.55,11.14-7.53,17.27-5.3c-3.05-5.8-2.01-13.15,2.99-17.87   c5.04-4.76,12.51-5.34,18.15-1.88c-1.83-6.39,0.78-13.46,6.77-17.01c6.03-3.59,13.55-2.45,18.28,2.31   c-0.25-6.74,4.1-13.03,10.87-14.97c6.8-1.95,13.85,1.13,17.18,7.03c1.57-6.6,7.5-11.51,14.58-11.51   C246.68,46.27,248.37,46.57,249.93,47.13z"/>
</g>















</svg>
