<?xml version="1.0" encoding="UTF-8"?>
<svg width="512px" height="512px" viewBox="0 0 512 512" version="1.1" xmlns="http://www.w3.org/2000/svg" xmlns:xlink="http://www.w3.org/1999/xlink">
    <!-- Generator: Sketch 50.2 (55047) - http://www.bohemiancoding.com/sketch -->
    <title>cat</title>
    <desc>Created with Sketch.</desc>
    <defs></defs>
    <g id="Page-1" stroke="none" stroke-width="1" fill="none" fill-rule="evenodd">
        <g id="cat" fill-rule="nonzero">
            <path d="M512,256 C512,335.987 475.314,407.406 417.855,454.343 C373.75,490.381 317.409,512 256,512 C194.591,512 138.24,490.381 94.135,454.332 C36.676,407.395 0,335.976 0,256 C0,114.615 114.615,0 256,0 C397.385,0 512,114.615 512,256 Z" id="Shape" fill="#6095C4"></path>
            <path d="M417.855,454.343 C373.75,490.381 317.409,512 256,512 C194.591,512 138.24,490.381 94.135,454.332 C131.197,326.363 256,292.091 256,292.091 C256,292.091 380.792,326.363 417.855,454.343 Z" id="Shape" fill="#FFB133"></path>
            <path d="M341.655,359.727 C341.655,359.727 390.238,410.405 375.452,428.69 C360.667,446.976 342.078,406.225 330.671,420.331 C319.265,434.437 348.414,463.172 328.981,477.8 C309.548,492.428 305.746,437.571 290.959,444.363 C276.173,451.155 284.722,500.787 255.995,500.787 C227.268,500.787 235.817,451.154 221.031,444.363 C206.245,437.571 202.443,492.428 183.009,477.8 C163.575,463.172 192.725,434.437 181.319,420.331 C169.913,406.225 151.324,446.976 136.539,428.69 C121.754,410.404 170.336,359.727 170.336,359.727" id="Shape" fill="#FFFFFF"></path>
            <path d="M450.64,305.568 C450.64,305.568 385.756,401.832 256.004,422.763 C126.236,401.832 61.353,305.568 61.353,305.568 C71.832,256.271 93.013,217.689 117.697,187.759 C40.199,76.661 132.92,0.001 132.92,0.001 C132.92,0.001 132.92,0.015 132.934,0.029 L218.817,109.089 C240.835,98.373 256.003,94.173 256.003,94.173 C256.003,94.173 271.171,98.373 293.175,109.089 L379.073,0.001 C379.073,0.001 471.793,76.661 394.31,187.759 C418.98,217.689 440.161,256.27 450.64,305.568 Z" id="Shape" fill="#FFDF5E"></path>
            <path d="M255.997,422.771 C126.244,401.841 61.361,305.563 61.361,305.563 C96.662,139.447 253.513,94.88 255.969,94.195 C254.462,94.907 193.458,124.334 159.16,223.362 C136.556,288.609 157.904,361.612 213.829,402.134 C226.304,411.162 240.355,418.515 255.997,422.771 Z" id="Shape" fill="#FFB133"></path>
            <path d="M394.324,187.772 C361.073,147.446 321.473,122.874 293.189,109.103 L379.073,0.001 C379.073,0.001 471.808,76.676 394.324,187.772 Z" id="Shape" fill="#FFB133"></path>
            <ellipse id="Oval" fill="#3C363F" cx="185.072" cy="263.837" rx="21.377" ry="33.271"></ellipse>
            <ellipse id="Oval" fill="#3C363F" cx="326.928" cy="263.837" rx="21.377" ry="33.271"></ellipse>
            <ellipse id="Oval" fill="#3C363F" cx="256" cy="320.209" rx="35.579" ry="29.309"></ellipse>
            <path d="M287.134,302.077 C274.021,302.077 262.517,308.943 256.001,319.271 C249.485,308.943 237.982,302.077 224.868,302.077 C204.548,302.077 188.075,318.55 188.075,338.87 C188.075,359.19 204.548,375.663 224.868,375.663 C237.981,375.663 249.485,368.797 256.001,358.469 C262.517,368.797 274.02,375.663 287.134,375.663 C307.454,375.663 323.927,359.19 323.927,338.87 C323.927,318.55 307.454,302.077 287.134,302.077 Z" id="Shape" fill="#FFFFFF"></path>
            <path d="M209.006,338.87 C209.006,322.193 220.104,308.117 235.314,303.602 C232.001,302.621 228.5,302.077 224.868,302.077 C204.548,302.077 188.075,318.55 188.075,338.87 C188.075,359.19 204.548,375.663 224.868,375.663 C228.5,375.663 232,375.12 235.314,374.138 C220.104,369.623 209.006,355.546 209.006,338.87 Z" id="Shape" fill="#EAEAEA"></path>
            <path d="M294.879,327.146 C293.042,327.146 291.283,326.105 290.453,324.332 C289.309,321.889 290.362,318.982 292.804,317.838 L366.292,283.42 C368.734,282.276 371.642,283.329 372.786,285.772 C373.93,288.215 372.877,291.122 370.435,292.266 L296.947,326.684 C296.277,326.998 295.572,327.146 294.879,327.146 Z" id="Shape" fill="#BA4C20"></path>
            <path d="M375.337,398.18 C374.643,398.18 373.939,398.032 373.269,397.718 L299.781,363.3 C297.338,362.156 296.286,359.249 297.43,356.806 C298.574,354.364 301.482,353.31 303.924,354.454 L377.413,388.872 C379.856,390.016 380.908,392.923 379.764,395.366 C378.933,397.14 377.174,398.18 375.337,398.18 Z" id="Shape" fill="#BA4C20"></path>
            <path d="M392.549,342.958 L308.829,342.958 C306.132,342.958 303.945,340.772 303.945,338.074 C303.945,335.377 306.131,333.19 308.829,333.19 L392.549,333.19 C395.246,333.19 397.433,335.376 397.433,338.074 C397.433,340.773 395.246,342.958 392.549,342.958 Z" id="Shape" fill="#BA4C20"></path>
            <path d="M217.122,327.146 C216.428,327.146 215.724,326.998 215.054,326.684 L141.566,292.266 C139.123,291.122 138.071,288.215 139.215,285.772 C140.359,283.33 143.267,282.277 145.709,283.42 L219.197,317.838 C221.64,318.982 222.692,321.889 221.548,324.332 C220.719,326.105 218.959,327.146 217.122,327.146 Z" id="Shape" fill="#BA4C20"></path>
            <path d="M136.664,398.18 C134.827,398.18 133.069,397.139 132.238,395.366 C131.094,392.923 132.147,390.016 134.589,388.872 L208.077,354.454 C210.52,353.31 213.427,354.363 214.571,356.806 C215.715,359.249 214.662,362.156 212.22,363.3 L138.732,397.718 C138.062,398.032 137.358,398.18 136.664,398.18 Z" id="Shape" fill="#BA4C20"></path>
            <path d="M203.173,342.958 L119.453,342.958 C116.756,342.958 114.569,340.772 114.569,338.074 C114.569,335.377 116.755,333.19 119.453,333.19 L203.173,333.19 C205.87,333.19 208.057,335.376 208.057,338.074 C208.057,340.773 205.87,342.958 203.173,342.958 Z" id="Shape" fill="#BA4C20"></path>
            <ellipse id="Oval" fill="#5C5560" cx="193.567" cy="261.036" rx="6.977" ry="16.976"></ellipse>
            <ellipse id="Oval" fill="#5C5560" cx="334.493" cy="261.036" rx="6.977" ry="16.976"></ellipse>
            <path d="M137.176,164.652 C136.911,165.085 136.632,165.504 136.367,165.936 C131.386,173.68 125.233,181.02 117.698,187.759 C40.199,76.661 132.92,0.001 132.92,0.001 C132.92,0.001 132.92,0.015 132.934,0.029 C133.255,0.685 138.097,11.053 143.161,27.015 C146.077,36.238 149.064,47.346 151.282,59.527 C151.938,63.113 152.523,66.783 153.026,70.522 C157.018,100.578 155.386,135.392 137.176,164.652 Z" id="Shape" fill="#E86523"></path>
            <path d="M137.176,164.652 C136.911,165.085 136.632,165.504 136.367,165.936 C129.976,164.317 124.869,160.913 123.795,154.354 C120.544,134.359 139.144,139.005 139.144,129.699 C139.144,120.406 114.028,129.699 114.028,112.955 C114.028,96.211 139.144,104.583 139.144,90.63 C139.144,76.677 113.107,74.821 118.688,60.867 C124.27,46.913 151.284,59.527 151.284,59.527 L153.028,70.522 C157.018,100.578 155.386,135.392 137.176,164.652 Z" id="Shape" fill="#EAEAEA"></path>
            <path d="M374.831,164.652 C375.096,165.085 375.375,165.504 375.64,165.936 C380.621,173.68 386.774,181.02 394.309,187.759 C471.806,76.661 379.086,0.001 379.086,0.001 C379.086,0.001 379.086,0.015 379.072,0.029 C378.751,0.685 373.909,11.053 368.845,27.015 C365.929,36.238 362.942,47.346 360.724,59.527 C360.068,63.113 359.483,66.783 358.98,70.522 C354.989,100.578 356.622,135.392 374.831,164.652 Z" id="Shape" fill="#FF8E4F"></path>
            <path d="M374.831,164.652 C375.096,165.085 375.375,165.504 375.64,165.936 C382.031,164.317 387.138,160.913 388.212,154.354 C391.463,134.359 372.863,139.005 372.863,129.699 C372.863,120.406 397.979,129.699 397.979,112.955 C397.979,96.211 372.863,104.583 372.863,90.63 C372.863,76.677 398.9,74.82 393.319,60.866 C387.737,46.912 360.723,59.526 360.723,59.526 L358.979,70.521 C354.989,100.578 356.622,135.392 374.831,164.652 Z" id="Shape" fill="#FFFFFF"></path>
            <path d="M271.27,338.87 C271.27,322.193 282.368,308.117 297.578,303.602 C294.265,302.621 290.764,302.077 287.132,302.077 C274.019,302.077 262.515,308.943 255.999,319.271 L255.999,358.469 C262.515,368.797 274.018,375.663 287.132,375.663 C290.764,375.663 294.264,375.12 297.578,374.138 C282.368,369.623 271.27,355.546 271.27,338.87 Z" id="Shape" fill="#EAEAEA"></path>
        </g>
    </g>
</svg>