<?xml version="1.0" encoding="iso-8859-1"?>
<!-- Generator: Adobe Illustrator 21.0.0, SVG Export Plug-In . SVG Version: 6.00 Build 0)  -->
<svg version="1.1" id="Capa_1" xmlns="http://www.w3.org/2000/svg" xmlns:xlink="http://www.w3.org/1999/xlink" x="0px" y="0px"
	 viewBox="0 0 512 512" style="enable-background:new 0 0 512 512;" xml:space="preserve">
<path style="fill:#EA5A52;" d="M512,256c0,71.973-29.706,137.007-77.521,183.526c-7.523,7.314-15.506,14.179-23.886,20.543
	c-7.701,5.841-15.747,11.264-24.106,16.217c-8.986,5.35-18.338,10.146-28.003,14.378C327.105,504.383,292.446,512,256,512
	s-71.116-7.617-102.494-21.337c-9.665-4.232-19.007-9.038-27.993-14.378c-8.359-4.953-16.415-10.376-24.116-16.227
	c-8.38-6.353-16.353-13.218-23.876-20.532C29.706,393.007,0,327.973,0,256C0,114.615,114.615,0,256,0S512,114.615,512,256z"/>
<path style="fill:#1F6599;" d="M255.999,350.906c-89.76,0-162.786-73.026-162.786-162.786S166.238,25.335,255.999,25.335
	S418.785,98.36,418.785,188.12S345.759,350.906,255.999,350.906z M255.999,56.682c-72.475,0-131.439,58.964-131.439,131.439
	s58.964,131.439,131.439,131.439s131.439-58.964,131.439-131.439S328.474,56.682,255.999,56.682z"/>
<path style="fill:#FFB133;" d="M434.5,438.178c0,0.449-0.01,0.899-0.021,1.348c-7.523,7.314-15.506,14.179-23.886,20.543
	c-7.701,5.841-15.747,11.264-24.106,16.217c-8.986,5.35-18.338,10.146-28.003,14.378c-7.22-2.738-14.002-7.011-19.811-12.821
	l-22.476-22.476H195.793l-22.476,22.476c-5.81,5.81-12.591,10.083-19.811,12.821c-9.665-4.232-19.007-9.038-27.993-14.378
	c-8.359-4.953-16.415-10.376-24.116-16.227c-8.38-6.353-16.353-13.218-23.876-20.532c-0.355-14.493,4.869-29.079,15.673-40.291
	c-10.47-10.867-15.694-24.9-15.694-38.943c0-14.357,5.475-28.714,16.426-39.675c21.922-21.922,57.469-21.922,79.391,0l22.476,22.476
	h120.404l22.476-22.476c10.961-10.961,25.328-16.436,39.696-16.436c14.367,0,28.735,5.475,39.696,16.436
	c21.671,21.671,21.901,56.644,0.742,78.618C429.265,410.102,434.5,424.135,434.5,438.178z"/>
<path style="fill:#FFDF5E;" d="M406.444,411.136c12.905,13.396,14.242,34.022,4.148,48.933
	c-7.701,5.841-15.747,11.264-24.106,16.217c-2.633,0.564-5.35,0.846-8.119,0.846c-10.407,0-20.198-4.054-27.564-11.421
	l-27.491-27.502H188.688l-27.502,27.502c-7.367,7.367-17.147,11.421-27.564,11.421c-2.759,0-5.475-0.282-8.108-0.846
	c-8.359-4.953-16.415-10.376-24.116-16.227c-10.083-14.911-8.746-35.537,4.148-48.922l11.473-11.901l-11.473-11.901
	c-14.618-15.193-14.388-39.675,0.512-54.575c7.367-7.367,17.157-11.421,27.564-11.421c10.418,0,20.198,4.054,27.564,11.421
	l27.502,27.502h134.625l27.502-27.502c7.356-7.367,17.147-11.421,27.554-11.421c10.418,0,20.198,4.054,27.564,11.421
	c14.911,14.9,15.141,39.382,0.512,54.575l-11.463,11.901L406.444,411.136z"/>
<path style="fill:#6095C4;" d="M255.999,325.572c-89.76,0-162.786-73.026-162.786-162.786S166.238,0.001,255.999,0.001
	s162.786,73.026,162.786,162.786S345.759,325.572,255.999,325.572z M255.999,31.348c-72.475,0-131.439,58.964-131.439,131.439
	s58.964,131.439,131.439,131.439s131.439-58.964,131.439-131.439S328.474,31.348,255.999,31.348z"/>
<path style="fill:#FFB133;" d="M255.998,358.468c-17.789,0-32.262-14.473-32.262-32.263s14.473-32.263,32.262-32.263
	s32.263,14.473,32.263,32.263S273.788,358.468,255.998,358.468z M255.998,311.102c-8.328,0-15.103,6.775-15.103,15.103
	c0,8.328,6.775,15.103,15.103,15.103c8.329,0,15.104-6.775,15.104-15.103C271.102,317.877,264.327,311.102,255.998,311.102z"/>
<path style="fill:#1F6599;" d="M255.999,285.539L255.999,285.539c-4.839,0-8.76,3.923-8.76,8.76v30.785
	c0,4.839,3.923,8.76,8.76,8.76l0,0c4.839,0,8.76-3.923,8.76-8.76V294.3C264.759,289.462,260.837,285.539,255.999,285.539z"/>
<g>
</g>
<g>
</g>
<g>
</g>
<g>
</g>
<g>
</g>
<g>
</g>
<g>
</g>
<g>
</g>
<g>
</g>
<g>
</g>
<g>
</g>
<g>
</g>
<g>
</g>
<g>
</g>
<g>
</g>
</svg>
