<?xml version="1.0" encoding="iso-8859-1"?>
<!-- Generator: Adobe Illustrator 21.0.0, SVG Export Plug-In . SVG Version: 6.00 Build 0)  -->
<svg version="1.1" id="Capa_1" xmlns="http://www.w3.org/2000/svg" xmlns:xlink="http://www.w3.org/1999/xlink" x="0px" y="0px"
	 viewBox="0 0 511.999 511.999" style="enable-background:new 0 0 511.999 511.999;" xml:space="preserve">
<circle style="fill:#FFDF5E;" cx="256" cy="256" r="255.999"/>
<path style="fill:#1F6599;" d="M440.125,433.841c-0.115,0.125-0.23,0.24-0.345,0.366c-11.567,11.933-24.283,22.737-37.982,32.235
	c-0.784,0.543-1.567,1.087-2.361,1.62c-4.838,3.281-9.78,6.395-14.838,9.341c-0.721,0.418-1.442,0.836-2.173,1.243
	c-14.702-8.119-31.566-21.264-51.127-40.824c-63.279-63.279-95.054-134.102-70.98-158.176l5.183,3.73l86.016,61.868L440.125,433.841
	z"/>
<path style="fill:#6095C4;" d="M473.374,391.283c-0.679,1.087-1.369,2.163-2.058,3.239c-9.101,14.117-19.56,27.303-31.19,39.319
	c-0.115,0.125-0.23,0.24-0.345,0.366c-11.567,11.933-24.283,22.737-37.982,32.235c-0.784,0.543-1.567,1.087-2.361,1.62
	c-15.663-7.847-33.886-21.588-55.338-43.039c-52.266-52.266-83.048-109.683-78.597-141.646c0.93-6.74,3.427-12.34,7.617-16.53
	c24.085-24.074,94.897,7.701,158.176,70.98C451.891,358.421,465.38,376.048,473.374,391.283z"/>
<path style="fill:#E86523;" d="M357.159,270.591L254.595,373.155c-21.602,21.602-56.626,21.602-78.228,0L16.206,212.993
	c-21.602-21.602-21.602-56.626,0-78.228L118.769,32.201c21.602-21.602,56.626-21.602,78.228,0l160.162,160.162
	C378.761,213.965,378.761,248.989,357.159,270.591z"/>
<path style="fill:#FF8E4F;" d="M373.159,254.591L270.595,357.155c-21.602,21.602-56.626,21.602-78.228,0L32.205,196.994
	c-21.602-21.602-21.602-56.626,0-78.228L134.769,16.202c21.602-21.602,56.626-21.602,78.228,0l160.162,160.162
	C394.761,197.965,394.761,232.989,373.159,254.591z"/>
<path style="fill:#EAEAEA;" d="M254.595,341.157c-12.746,12.746-33.484,12.746-46.229,0L48.204,180.995
	c-12.746-12.746-12.746-33.484,0-46.229L150.768,32.202c12.746-12.746,33.484-12.746,46.229,0l160.162,160.162
	c12.746,12.746,12.746,33.484,0,46.229L254.595,341.157z"/>
<g>
	<path style="fill:#1F6599;" d="M220.679,25.489l-75.597,75.597l-19.999-19.999L200.68,5.489c5.522-5.522,14.477-5.522,19.999,0l0,0
		C226.201,11.012,226.201,19.965,220.679,25.489z"/>
	<path style="fill:#1F6599;" d="M253.317,58.127l-75.597,75.597l-19.999-19.999l75.597-75.597c5.522-5.522,14.477-5.522,19.999,0
		l0,0C258.84,43.65,258.84,52.605,253.317,58.127z"/>
	<path style="fill:#1F6599;" d="M285.956,90.765l-75.597,75.597l-19.999-19.999l75.597-75.597c5.522-5.522,14.476-5.522,19.999,0
		l0,0C291.479,76.289,291.479,85.243,285.956,90.765z"/>
	<path style="fill:#1F6599;" d="M318.594,123.404l-75.597,75.597l-19.999-19.999l75.597-75.597c5.522-5.522,14.476-5.522,19.999,0
		l0,0C324.118,108.928,324.118,117.881,318.594,123.404z"/>
	<path style="fill:#1F6599;" d="M351.234,156.042l-75.597,75.597l-19.999-19.999l75.597-75.597c5.522-5.522,14.476-5.522,19.999,0
		l0,0C356.756,141.566,356.756,150.52,351.234,156.042z"/>
	<path style="fill:#1F6599;" d="M383.872,188.682l-75.597,75.597l-19.999-19.999l75.597-75.597c5.522-5.522,14.476-5.522,19.999,0
		l0,0C389.394,174.204,389.394,183.158,383.872,188.682z"/>
</g>
<g>
	<circle style="fill:#6095C4;" cx="210.683" cy="15.489" r="14.142"/>
	<circle style="fill:#6095C4;" cx="243.315" cy="48.128" r="14.142"/>
	<circle style="fill:#6095C4;" cx="275.957" cy="80.771" r="14.142"/>
	<circle style="fill:#6095C4;" cx="308.589" cy="113.403" r="14.142"/>
	<circle style="fill:#6095C4;" cx="341.232" cy="146.046" r="14.142"/>
	<circle style="fill:#6095C4;" cx="373.874" cy="178.678" r="14.142"/>
</g>
<g>
	<path style="fill:#1F6599;" d="M212.599,66.207l-75.597,75.597l-19.999-19.999L192.6,46.208c5.522-5.522,14.477-5.522,19.999,0l0,0
		C218.121,51.73,218.121,60.684,212.599,66.207z"/>
	<path style="fill:#1F6599;" d="M245.237,98.846l-75.597,75.597l-19.999-19.999l75.597-75.597c5.522-5.522,14.476-5.522,19.999,0
		l0,0C250.76,84.37,250.76,93.323,245.237,98.846z"/>
	<path style="fill:#1F6599;" d="M277.876,131.484l-75.597,75.597l-19.999-19.999l75.597-75.597c5.522-5.522,14.477-5.522,19.999,0
		l0,0C283.399,117.008,283.399,125.962,277.876,131.484z"/>
	<path style="fill:#1F6599;" d="M310.514,164.122l-75.597,75.597l-19.999-19.999l75.597-75.597c5.522-5.522,14.477-5.522,19.999,0
		l0,0C316.037,149.646,316.037,158.6,310.514,164.122z"/>
	<path style="fill:#1F6599;" d="M343.153,196.762l-75.597,75.597l-19.999-19.999l75.597-75.597c5.522-5.522,14.477-5.522,19.999,0
		l0,0C348.676,182.285,348.676,191.238,343.153,196.762z"/>
</g>
<g>
	<circle style="fill:#6095C4;" cx="202.595" cy="56.208" r="14.142"/>
	<circle style="fill:#6095C4;" cx="235.238" cy="88.848" r="14.142"/>
	<circle style="fill:#6095C4;" cx="267.88" cy="121.48" r="14.142"/>
	<circle style="fill:#6095C4;" cx="300.512" cy="154.123" r="14.142"/>
	<circle style="fill:#6095C4;" cx="333.155" cy="186.765" r="14.142"/>
</g>
<g>
	<path style="fill:#1F6599;" d="M170.281,75.886l-75.597,75.597l-19.999-19.999l75.597-75.597c5.522-5.522,14.477-5.522,19.999,0
		l0,0C175.804,61.409,175.804,70.364,170.281,75.886z"/>
	<path style="fill:#1F6599;" d="M202.92,108.524l-75.597,75.597l-19.999-19.999l75.597-75.597c5.522-5.522,14.477-5.522,19.999,0
		l0,0C208.442,94.048,208.442,103.002,202.92,108.524z"/>
	<path style="fill:#1F6599;" d="M235.558,141.163l-75.597,75.597l-19.999-19.999l75.597-75.597c5.522-5.522,14.477-5.522,19.999,0
		l0,0C241.081,126.687,241.081,135.641,235.558,141.163z"/>
	<path style="fill:#1F6599;" d="M268.197,173.801L192.6,249.398L172.6,229.399l75.597-75.597c5.522-5.522,14.476-5.522,19.999,0l0,0
		C273.719,159.325,273.719,168.279,268.197,173.801z"/>
	<path style="fill:#1F6599;" d="M300.835,206.441l-75.597,75.597l-19.999-19.999l75.597-75.597c5.522-5.522,14.476-5.522,19.999,0
		l0,0C306.357,191.964,306.357,200.917,300.835,206.441z"/>
	<path style="fill:#1F6599;" d="M333.474,239.079l-75.597,75.597l-19.999-19.999l75.597-75.597c5.522-5.522,14.476-5.522,19.999,0
		l0,0C338.997,224.602,338.997,233.557,333.474,239.079z"/>
</g>
<g>
	<circle style="fill:#6095C4;" cx="160.277" cy="65.881" r="14.142"/>
	<circle style="fill:#6095C4;" cx="192.919" cy="98.524" r="14.142"/>
	<circle style="fill:#6095C4;" cx="225.562" cy="131.166" r="14.142"/>
	<circle style="fill:#6095C4;" cx="258.194" cy="163.798" r="14.142"/>
	<circle style="fill:#6095C4;" cx="290.837" cy="196.441" r="14.142"/>
	<circle style="fill:#6095C4;" cx="323.469" cy="229.083" r="14.142"/>
</g>
<g>
	<path style="fill:#1F6599;" d="M160.201,118.605l-75.597,75.597l-19.999-19.999l75.597-75.597c5.522-5.522,14.476-5.522,19.999,0
		l0,0C165.724,104.129,165.724,113.082,160.201,118.605z"/>
	<path style="fill:#1F6599;" d="M192.84,151.243l-75.597,75.597l-19.999-19.999l75.597-75.597c5.522-5.522,14.476-5.522,19.999,0
		l0,0C198.362,136.767,198.362,145.721,192.84,151.243z"/>
	<path style="fill:#1F6599;" d="M225.478,183.882l-75.597,75.597l-19.999-19.999l75.597-75.597c5.522-5.522,14.476-5.522,19.999,0
		l0,0C231.001,169.405,231.001,178.359,225.478,183.882z"/>
	<path style="fill:#1F6599;" d="M258.117,216.521l-75.597,75.597l-19.999-19.999l75.597-75.597c5.522-5.522,14.476-5.522,19.999,0
		l0,0C263.639,202.044,263.639,210.997,258.117,216.521z"/>
	<path style="fill:#1F6599;" d="M290.755,249.159l-75.597,75.597l-19.999-19.999l75.597-75.597c5.522-5.522,14.476-5.522,19.999,0
		l0,0C296.277,234.682,296.277,243.637,290.755,249.159z"/>
</g>
<g>
	<circle style="fill:#6095C4;" cx="150.204" cy="108.607" r="14.142"/>
	<circle style="fill:#6095C4;" cx="182.836" cy="141.239" r="14.142"/>
	<circle style="fill:#6095C4;" cx="215.479" cy="173.882" r="14.142"/>
	<circle style="fill:#6095C4;" cx="248.121" cy="206.524" r="14.142"/>
	<circle style="fill:#6095C4;" cx="280.753" cy="239.156" r="14.142"/>
</g>
<g>
	<path style="fill:#1F6599;" d="M117.883,128.283l-49.598,49.598l-8.825-8.825c-6.171-6.171-6.171-16.177,0-22.348l38.424-38.424
		c5.522-5.522,14.476-5.522,19.999,0l0,0C123.406,113.807,123.406,122.761,117.883,128.283z"/>
	<path style="fill:#1F6599;" d="M150.522,160.923l-49.598,49.598l-19.999-19.999l49.598-49.598c5.522-5.522,14.476-5.522,19.999,0
		l0,0C156.045,146.446,156.045,155.4,150.522,160.923z"/>
	<path style="fill:#1F6599;" d="M183.16,193.561l-49.598,49.598l-19.999-19.999l49.598-49.598c5.522-5.522,14.477-5.522,19.999,0
		l0,0C188.683,179.084,188.683,188.038,183.16,193.561z"/>
	<path style="fill:#1F6599;" d="M215.799,226.2l-49.598,49.598l-19.999-19.999L195.8,206.2c5.522-5.522,14.476-5.522,19.999,0l0,0
		C221.322,211.723,221.322,220.677,215.799,226.2z"/>
	<path style="fill:#1F6599;" d="M248.438,258.838l-49.598,49.598l-19.999-19.999l49.598-49.598c5.522-5.522,14.476-5.522,19.999,0
		l0,0C253.96,244.362,253.96,253.316,248.438,258.838z"/>
	<path style="fill:#1F6599;" d="M281.076,291.476L242.652,329.9c-6.171,6.171-16.177,6.171-22.348,0l-8.825-8.825l49.598-49.598
		c5.522-5.522,14.477-5.522,19.999,0l0,0C286.598,277,286.598,285.954,281.076,291.476z"/>
</g>
<g>
	<circle style="fill:#6095C4;" cx="107.886" cy="118.283" r="14.142"/>
	<circle style="fill:#6095C4;" cx="140.518" cy="150.925" r="14.142"/>
	<circle style="fill:#6095C4;" cx="173.16" cy="183.557" r="14.142"/>
	<circle style="fill:#6095C4;" cx="205.803" cy="216.2" r="14.142"/>
	<circle style="fill:#6095C4;" cx="238.435" cy="248.842" r="14.142"/>
	<circle style="fill:#6095C4;" cx="271.078" cy="281.475" r="14.142"/>
</g>
<g>
</g>
<g>
</g>
<g>
</g>
<g>
</g>
<g>
</g>
<g>
</g>
<g>
</g>
<g>
</g>
<g>
</g>
<g>
</g>
<g>
</g>
<g>
</g>
<g>
</g>
<g>
</g>
<g>
</g>
</svg>
