<?xml version="1.0" encoding="iso-8859-1"?>
<!-- Generator: Adobe Illustrator 21.0.0, SVG Export Plug-In . SVG Version: 6.00 Build 0)  -->
<svg version="1.1" id="Capa_1" xmlns="http://www.w3.org/2000/svg" xmlns:xlink="http://www.w3.org/1999/xlink" x="0px" y="0px"
	 viewBox="0 0 512 512" style="enable-background:new 0 0 512 512;" xml:space="preserve">
<path style="fill:#EA5A52;" d="M512,256c0,82.58-39.145,156.026-99.898,202.792c-35.345,27.203-78.008,45.377-124.533,51.055
	c-10.261,1.253-20.71,1.9-31.316,1.9c-10.606,0-21.055-0.647-31.316-1.9c-46.525-5.679-89.188-23.852-124.533-51.055
	C39.651,412.027,0.506,338.58,0.506,256c0-141.245,114.502-255.747,255.747-255.747S512,114.755,512,256z"/>
<path style="fill:#FFDF5E;" d="M287.569,377.37v132.477c-10.261,1.253-20.71,1.9-31.316,1.9c-10.606,0-21.055-0.647-31.316-1.9
	V377.37H287.569z"/>
<path style="fill:#FFB133;" d="M256.253,377.37v134.377c-10.606,0-21.055-0.647-31.316-1.9V377.37H256.253z"/>
<circle style="fill:#FFDF5E;" cx="256.248" cy="359.622" r="62.632"/>
<g>
	<path style="fill:#FFB133;" d="M256.249,422.257c-34.594,0-62.632-28.038-62.632-62.632s28.038-62.632,62.632-62.632
		c-11.462,0-20.752,28.038-20.752,62.632S244.788,422.257,256.249,422.257z"/>
	<path style="fill:#FFB133;" d="M172.161,333.34c-45.652,0-83.389-15.658-112.161-46.538C-8.507,213.279,0.154,78.862,0.556,73.177
		l1.373-19.404h118.624v41.755H41.831c0.337,36.854,6.261,117.329,48.788,162.888c20.836,22.321,47.508,33.171,81.541,33.171V333.34
		z"/>
</g>
<g>
	<path style="fill:#FFDF5E;" d="M339.836,333.34v-41.755c34.072,0,60.768-10.875,81.612-33.247
		c15.931-17.097,36.704-50.571,45.198-112.942c2.683-19.702,3.447-37.327,3.551-49.87h-78.752V53.772h118.623l1.373,19.404
		c0.403,5.686,9.064,140.102-59.443,213.626C423.225,317.683,385.488,333.34,339.836,333.34z"/>
	<path style="fill:#FFDF5E;" d="M66.196,28.819c0,187.887,85.09,340.201,190.054,340.201S446.304,216.707,446.304,28.819"/>
</g>
<g>
	<path style="fill:#FFB133;" d="M256.252,369.019c-104.971,0-190.056-152.31-190.056-340.195h96.098
		C162.294,216.709,204.362,369.019,256.252,369.019z"/>
	<circle style="fill:#FFB133;" cx="255.674" cy="217.051" r="55.981"/>
	<circle style="fill:#FFB133;" cx="222.865" cy="120.901" r="23.278"/>
	<circle style="fill:#FFB133;" cx="170.442" cy="161.758" r="23.278"/>
	<circle style="fill:#FFB133;" cx="342.054" cy="163.585" r="23.278"/>
	<circle style="fill:#FFB133;" cx="290.518" cy="121.621" r="23.278"/>
</g>
<path style="fill:#FFDF5E;" d="M412.102,458.792c-35.345,27.203-78.008,45.377-124.533,51.055c-10.261,1.253-20.71,1.9-31.316,1.9
	c-10.606,0-21.055-0.647-31.316-1.9c-46.525-5.679-89.188-23.852-124.533-51.055H412.102z"/>
<g>
	<path style="fill:#FFF4C7;" d="M420.356,52.487L420.356,52.487c-21.811,0-39.49-17.681-39.49-39.49l0,0
		c0-7.037-5.705-12.741-12.741-12.741l0,0c-7.037,0-12.741,5.705-12.741,12.741l0,0c0,21.811-17.681,39.49-39.49,39.49l0,0
		c-7.037,0-12.741,5.705-12.741,12.741l0,0c0,7.037,5.705,12.741,12.741,12.741l0,0c21.811,0,39.49,17.681,39.49,39.49l0,0
		c0,7.037,5.705,12.741,12.741,12.741l0,0c7.037,0,12.741-5.705,12.741-12.741l0,0c0-21.811,17.681-39.49,39.49-39.49l0,0
		c7.037,0,12.741-5.705,12.741-12.741l0,0C433.098,58.192,427.393,52.487,420.356,52.487z"/>
	<path style="fill:#FFF4C7;" d="M227.75,334.331L227.75,334.331c-21.811,0-39.49-17.681-39.49-39.49l0,0
		c0-7.037-5.705-12.741-12.741-12.741l0,0c-7.037,0-12.741,5.705-12.741,12.741l0,0c0,21.811-17.681,39.49-39.49,39.49l0,0
		c-7.037,0-12.741,5.705-12.741,12.741l0,0c0,7.037,5.705,12.741,12.741,12.741l0,0c21.811,0,39.49,17.681,39.49,39.49l0,0
		c0,7.037,5.705,12.741,12.741,12.741l0,0c7.037,0,12.741-5.705,12.741-12.741l0,0c0-21.811,17.681-39.49,39.49-39.49l0,0
		c7.037,0,12.741-5.705,12.741-12.741l0,0C240.491,340.035,234.786,334.331,227.75,334.331z"/>
</g>
<g>
</g>
<g>
</g>
<g>
</g>
<g>
</g>
<g>
</g>
<g>
</g>
<g>
</g>
<g>
</g>
<g>
</g>
<g>
</g>
<g>
</g>
<g>
</g>
<g>
</g>
<g>
</g>
<g>
</g>
</svg>
