<?xml version="1.0" encoding="iso-8859-1"?>
<!-- Generator: Adobe Illustrator 21.0.0, SVG Export Plug-In . SVG Version: 6.00 Build 0)  -->
<svg version="1.1" id="Capa_1" xmlns="http://www.w3.org/2000/svg" xmlns:xlink="http://www.w3.org/1999/xlink" x="0px" y="0px"
	 viewBox="0 0 512 512" style="enable-background:new 0 0 512 512;" xml:space="preserve">
<circle style="fill:#FFDF5E;" cx="256" cy="255.998" r="255.997"/>
<path style="fill:#6095C4;" d="M499.87,334.087C466.862,437.28,370.157,512,256.003,512c-0.888,0-1.787,0-2.675-0.01
	c-112.994-1.16-208.455-75.524-241.191-177.923v-0.01l18.265-121.594h451.193L499.87,334.087z"/>
<g>
	<path style="fill:#1F6599;" d="M256.003,512c-114.164,0-210.869-74.73-243.866-177.934l18.265-121.604h38.452l41.89,37.365
		C110.743,249.828,72.532,445.451,256.003,512z"/>
	<path style="fill:#1F6599;" d="M256,288.8c-56.079,0-109.075-5.838-149.223-16.439c-50.676-13.381-76.37-33.534-76.37-59.898
		s25.695-46.517,76.37-59.898c40.149-10.601,93.144-16.439,149.223-16.439s109.074,5.839,149.223,16.439
		c50.676,13.381,76.371,33.534,76.371,59.898s-25.695,46.517-76.371,59.898C365.074,282.961,312.079,288.8,256,288.8z"/>
</g>
<path style="fill:#EA5A52;" d="M458.809,212.461c0,29.581-90.801,53.55-202.813,53.55c-112.001,0-202.802-23.97-202.802-53.55
	c0-29.57,90.801-53.55,202.802-53.55c51.941,0,99.327,5.162,135.208,13.636c22.193,5.245,39.988,11.765,51.743,19.111
	C453.156,198.063,458.809,205.084,458.809,212.461z"/>
<g>
	<path style="fill:#D33531;" d="M442.947,191.658l-32.297,21.786l-46.121-2.905l26.676-37.992
		C413.398,177.792,431.192,184.312,442.947,191.658z"/>
	<path style="fill:#D33531;" d="M433.167,212.461c-4.315,3.082-12.612,7.481-26.707,12.068c-4.42,1.442-9.404,2.894-15.025,4.326
		c-2.832,0.721-5.83,1.442-8.986,2.152c-0.313,0.073-0.627,0.136-0.94,0.209c-12.058,2.675-25.276,4.942-39.309,6.75
		c-26.551,3.438-56.027,5.256-86.193,5.256c-10.961,0-21.849-0.24-32.527-0.721c-7.377-0.324-14.66-0.763-21.807-1.306
		c-8.808-0.669-17.418-1.494-25.767-2.487c-10.856-1.275-21.253-2.811-31.064-4.598c-5.277-0.961-10.376-1.996-15.276-3.103
		c-3.166-0.711-6.154-1.431-8.996-2.152c-5.611-1.431-10.606-2.894-15.025-4.326c-14.096-4.587-22.392-8.986-26.707-12.068
		c4.608-3.291,13.751-8.087,29.643-12.988c4.89-1.515,10.407-3.03,16.635-4.524c1.442-0.345,2.926-0.69,4.451-1.034
		c15.287-3.438,32.475-6.207,50.855-8.223c7.91-0.878,16.039-1.609,24.335-2.205c8.788-0.616,17.753-1.087,26.854-1.379
		c8.046-0.272,16.196-0.408,24.398-0.408c3.197,0,6.384,0.021,9.561,0.063c38.661,0.491,75.786,3.971,106.558,9.989
		c3.532,0.69,6.969,1.411,10.323,2.163c1.515,0.345,2.999,0.69,4.441,1.034c5.308,1.264,10.104,2.56,14.43,3.856
		c0.742,0.219,1.473,0.439,2.184,0.658C419.416,204.363,428.549,209.17,433.167,212.461z"/>
</g>
<path style="fill:#EAEAEA;" d="M452.759,173.393l-40.636,8.693l-10.418,16.081l-0.387,0.637l-19.811,32.412
	c-12.058,2.675-25.276,4.942-39.309,6.75c-26.551,3.438-56.027,5.256-86.193,5.256c-10.961,0-21.849-0.24-32.527-0.721l32.36-46.32
	l5.35-7.659l4.378-6.76l43.164-66.643l-8.683-40.636c-0.93-4.347-1.379-8.673-1.379-12.946c0-28.421,19.811-53.979,48.723-60.165
	c33.05-7.063,65.577,13.813,72.964,46.727c0.104,0.408,0.146,0.627,0.146,0.627l1.139,5.36l5.36-1.149
	c4.347-0.93,8.673-1.379,12.946-1.379c28.421,0,53.979,19.811,60.165,48.723C507.218,133.551,486.028,166.277,452.759,173.393z"/>
<g>
	<path style="fill:#FFFFFF;" d="M160.775,319.688c-10.052-1.578-20.062-3.396-30.041-5.465c-5.736-1.191-10.323,1.087-11.118,4.587
		c-2.215,9.916-4.43,19.842-6.656,29.758c-5.862,26.248-11.724,52.485-17.596,78.732c-0.784,3.49,3.145,7.722,10.041,9.143
		c11.954,2.476,23.949,4.66,35.975,6.551c5.339,0.846,10.48,1.17,15.318,0.94c19.738-0.909,34.439-11.097,36.341-33.886
		c1.421-15.475,2.853-30.95,4.274-46.424C199.708,335.183,183.084,323.219,160.775,319.688z M173.711,361.034
		c-1.975,15.412-3.95,30.824-5.924,46.236c-1.64,13.197-10.229,18.557-23.374,16.499c-0.784-0.125-1.578-0.251-2.361-0.387
		c-6.102-0.972-12.183-2.027-18.265-3.156c1.452-7.763,2.894-15.537,4.347-23.301c3.803-20.375,7.607-40.751,11.4-61.136
		c6.06,1.128,12.131,2.173,18.212,3.135C169.291,340.721,175.352,347.795,173.711,361.034z"/>
	<path style="fill:#FFFFFF;" d="M304.615,412.63c-1.014-15.841-2.027-31.691-3.041-47.542c-2.048-28.473-20.323-37.72-42.84-37.741
		c-22.517,0.021-40.625,9.268-42.673,37.741c-1.014,15.851-2.027,31.702-3.041,47.542c-2.058,28.41,18.327,40.573,45.693,40.573
		C286.078,453.214,306.673,441.041,304.615,412.63z M258.723,433.737c-13.291-0.021-20.751-6.468-20.323-19.936
		c0.449-15.872,0.909-31.744,1.358-47.616c0.428-13.5,7.325-19.383,18.975-19.372c11.473,0,18.714,5.872,19.153,19.372l1.348,47.616
		C279.663,427.269,271.805,433.727,258.723,433.737z"/>
	<path style="fill:#FFFFFF;" d="M415.456,396.8c-1.484-6.604-2.957-13.218-4.441-19.832c-0.825-3.668-4.336-6.363-9.132-5.35
		c-10.48,2.226-20.992,4.19-31.535,5.914c-4.827,0.794-6.771,5.569-6.133,9.791c0.658,4.389,3.981,8.213,8.944,7.398
		c5.151-0.836,10.303-1.735,15.433-2.696c0.616,3.302,1.233,6.604,1.849,9.906c2.487,13.072-4.284,20.835-17.251,22.883
		c-13.166,2.048-21.566-3.333-23.217-16.53c-2.006-15.746-4.023-31.503-6.039-47.25c-1.651-13.239,4.242-20.281,15.955-22.11
		c14.858-2.403,19.289,5.663,21.316,13.49c1.139,5.162,6.719,5.872,13.051,4.577c7.784-1.599,11.295-4.524,9.425-12.852
		c-4.671-19.989-24.346-27.94-47.668-24.315c-21.462,3.375-38.076,15.36-35.693,43.802c1.463,15.82,2.915,31.629,4.368,47.438
		c2.382,28.39,24.409,37.24,51.523,32.977C403.325,439.797,421.903,424.542,415.456,396.8z"/>
</g>
<path style="fill:#EAEAEA;" d="M156.7,443.935c-4.838,0.23-9.979-0.094-15.318-0.94c-12.027-1.891-24.022-4.075-35.975-6.551
	c-6.896-1.421-10.825-5.653-10.041-9.143c5.872-26.248,11.734-52.485,17.596-78.732c3.176,15.632,8.004,32.036,15.172,48.357
	c-1.452,7.763-2.894,15.537-4.347,23.301c6.081,1.128,12.162,2.184,18.265,3.156C146.387,430.362,151.256,437.248,156.7,443.935z"/>
<path style="fill:#D8D8D8;" d="M353.181,15.96c53.613-14.879,65.786,26.519,67.176,32.141
	c-7.387-32.914-39.915-53.791-72.965-46.727c-28.912,6.186-48.723,31.744-48.723,60.165c0,4.274,0.449,8.599,1.379,12.946
	l8.683,40.636l-43.164,66.643l-25.683,37.25l-16.405,23.489c10.679,0.481,21.566,0.721,32.527,0.721
	c30.166,0,59.642-1.818,86.193-5.256c14.033-1.808,27.251-4.075,39.309-6.75l17.366-28.41c-2.351,0.679-4.827,1.348-7.44,2.017
	c-2.832,0.721-5.83,1.442-8.986,2.152c-0.313,0.073-0.627,0.136-0.94,0.209c-12.058,2.675-25.276,4.942-39.309,6.75
	c-6.322,0.818-16.634,1.815-24.473,2.532c-10.82,0.991-21.761-1.072-31.285-6.301c-0.107-0.059-0.213-0.118-0.32-0.177
	c-7.13-3.977-9.124-13.334-4.339-19.95l52.591-72.725C334.373,117.314,295.712,31.915,353.181,15.96z"/>
<g>
</g>
<g>
</g>
<g>
</g>
<g>
</g>
<g>
</g>
<g>
</g>
<g>
</g>
<g>
</g>
<g>
</g>
<g>
</g>
<g>
</g>
<g>
</g>
<g>
</g>
<g>
</g>
<g>
</g>
</svg>
