<?xml version="1.0" encoding="iso-8859-1"?>
<!-- Generator: Adobe Illustrator 21.0.0, SVG Export Plug-In . SVG Version: 6.00 Build 0)  -->
<svg version="1.1" id="Capa_1" xmlns="http://www.w3.org/2000/svg" xmlns:xlink="http://www.w3.org/1999/xlink" x="0px" y="0px"
	 viewBox="0 0 512 512" style="enable-background:new 0 0 512 512;" xml:space="preserve">
<path style="fill:#FFDF5E;" d="M512,256c0,60.395-20.908,115.91-55.902,159.68c-46.905,58.712-119.107,96.318-200.097,96.318
	S102.81,474.393,55.905,415.68C20.911,371.91,0.003,316.395,0.003,256c0-141.384,114.614-255.998,255.998-255.998
	S512,114.616,512,256z"/>
<path style="fill:#60C5E8;" d="M456.098,184.874V415.68c-8.495,10.637-17.826,20.584-27.888,29.727
	c-9.634,8.767-19.937,16.812-30.835,24.033c-2.654,1.766-5.35,3.49-8.077,5.151c-5.423,3.312-10.992,6.437-16.676,9.352
	c-34.973,17.941-74.616,28.055-116.62,28.055s-81.648-10.115-116.62-28.055c-5.684-2.915-11.253-6.039-16.676-9.352
	c-2.727-1.661-5.423-3.385-8.077-5.151c-10.898-7.22-21.201-15.266-30.835-24.033c-10.062-9.143-19.393-19.09-27.888-29.727V184.874
	L456.098,184.874L456.098,184.874z"/>
<g>
	<rect x="55.902" y="204.035" style="fill:#3AA5C9;" width="400.193" height="24.033"/>
	<rect x="55.902" y="284.492" style="fill:#3AA5C9;" width="400.193" height="24.033"/>
	<rect x="55.902" y="364.949" style="fill:#3AA5C9;" width="400.193" height="24.033"/>
	<path style="fill:#3AA5C9;" d="M428.21,445.407c-9.634,8.767-19.937,16.812-30.835,24.033H114.628
		c-10.898-7.22-21.201-15.266-30.835-24.033H428.21z"/>
</g>
<polygon style="fill:#6095C4;" points="511.997,209.26 255.998,0.003 0,209.26 "/>
<g>
	<circle style="fill:#FFFFFF;" cx="255.998" cy="143.432" r="38.839"/>
	<circle style="fill:#FFFFFF;" cx="233.241" cy="76.726" r="16.151"/>
	<circle style="fill:#FFFFFF;" cx="196.868" cy="105.074" r="16.151"/>
	<circle style="fill:#FFFFFF;" cx="315.933" cy="106.338" r="16.151"/>
	<circle style="fill:#FFFFFF;" cx="280.167" cy="77.224" r="16.151"/>
</g>
<path style="fill:#3AA5C9;" d="M389.298,379.13v95.461c-5.423,3.312-10.992,6.437-16.676,9.352
	c-34.973,17.941-74.616,28.055-116.62,28.055s-81.648-10.115-116.62-28.055c-5.684-2.915-11.253-6.039-16.676-9.352V379.13
	c0-73.613,59.674-133.297,133.297-133.297S389.298,305.517,389.298,379.13z"/>
<path style="fill:#3C363F;" d="M372.622,380.217v103.726c-34.973,17.941-74.616,28.055-116.62,28.055s-81.648-10.115-116.62-28.055
	V380.217c0-64.407,52.213-116.62,116.62-116.62S372.622,315.81,372.622,380.217z"/>
<g>
</g>
<g>
</g>
<g>
</g>
<g>
</g>
<g>
</g>
<g>
</g>
<g>
</g>
<g>
</g>
<g>
</g>
<g>
</g>
<g>
</g>
<g>
</g>
<g>
</g>
<g>
</g>
<g>
</g>
</svg>
