<?xml version="1.0" encoding="iso-8859-1"?>
<!-- Generator: Adobe Illustrator 21.0.0, SVG Export Plug-In . SVG Version: 6.00 Build 0)  -->
<svg version="1.1" id="Capa_1" xmlns="http://www.w3.org/2000/svg" xmlns:xlink="http://www.w3.org/1999/xlink" x="0px" y="0px"
	 viewBox="0 0 512 512" style="enable-background:new 0 0 512 512;" xml:space="preserve">
<path style="fill:#5C5560;" d="M512,256c0,141.385-114.615,256-256,256S0,397.385,0,256c0-80.624,37.272-152.555,95.535-199.471
	C139.431,21.159,195.239,0,256,0s116.569,21.159,160.465,56.529C474.728,103.445,512,175.376,512,256z"/>
<path style="fill:#60C5E8;" d="M512,256c0,141.385-114.615,256-256,256S0,397.385,0,256c0-80.624,37.272-152.555,95.535-199.471
	h320.93C474.728,103.445,512,175.376,512,256z"/>
<path style="fill:#FFFFFF;" d="M429.181,77.751c0,5.433-2.288,10.689-6.562,15.673c-20.605,24.022-87.406,41.608-166.619,41.608
	c-79.224,0-146.014-17.586-166.619-41.608c-4.274-4.984-6.562-10.24-6.562-15.673C82.819,46.122,160.35,20.48,256,20.48
	C351.639,20.48,429.181,46.122,429.181,77.751z"/>
<path style="fill:#60C5E8;" d="M429.181,77.751c0,5.433-2.288,10.689-6.562,15.673c-20.605,24.022-87.406,41.608-166.619,41.608
	c-79.224,0-146.014-17.586-166.619-41.608c-4.274-4.984-6.562-10.24-6.562-15.673C82.819,46.122,160.35,20.48,256,20.48
	C351.639,20.48,429.181,46.122,429.181,77.751z"/>
<g>
	<path style="fill:#3AA5C9;" d="M406.002,444.492c0,4.706-1.982,9.259-5.683,13.575c-17.848,20.807-75.707,36.039-144.318,36.039
		c-68.621,0-126.471-15.231-144.318-36.039c-3.702-4.318-5.683-8.869-5.683-13.575c0-27.396,67.155-49.605,150.002-49.605
		C338.838,394.887,406.002,417.097,406.002,444.492z"/>
	<path style="fill:#3AA5C9;" d="M422.619,93.424c-20.605,24.022-87.406,41.608-166.619,41.608
		c-79.224,0-146.014-17.586-166.619-41.608C109.986,69.413,176.776,51.827,256,51.827C335.214,51.827,402.014,69.413,422.619,93.424
		z"/>
</g>
<g>
	
		<ellipse transform="matrix(0.5461 -0.8377 0.8377 0.5461 -91.3484 543.1863)" style="fill:#82DCF4;" cx="455.586" cy="355.891" rx="64.26" ry="19.547"/>
	
		<ellipse transform="matrix(0.5 -0.866 0.866 0.5 -121.0489 128.0157)" style="fill:#82DCF4;" cx="50.342" cy="168.841" rx="64.26" ry="19.546"/>
</g>
<path style="fill:#EA5A52;" d="M362.502,222.901c24.663-13.302,17.987-57.804-17.614-71.153
	c-35.601-13.351-173.555-31.15-194.694,105.69L362.502,222.901z"/>
<path style="fill:#FF8E4F;" d="M286.576,369.888v3.974c0,4.26-0.945,8.293-2.632,11.912c-4.488,9.634-14.258,16.308-25.587,16.308
	h-48.551l9.271-21.1l6.504-14.806L286.576,369.888z"/>
<path style="fill:#FFDF5E;" d="M445.184,326.17c-30.45,18.201-66.285,31.54-105.434,38.449c-0.4,0.078-0.812,0.144-1.213,0.211
	c-3.327,0.589-6.686,1.113-10.047,1.602c-0.589,0.078-1.18,0.167-1.769,0.245c-3.761,0.522-7.543,0.979-11.348,1.379
	c-12.249,1.268-24.754,1.936-37.459,1.936c-63.27,0-121.399-16.399-167.269-43.823c10.258-34.945,31.162-65.34,58.965-87.422
	c29.738-23.619,67.375-37.726,108.306-37.726c22.262,0,43.556,4.172,63.136,11.804c0.011,0,0.033,0,0.045,0.011
	c3.271,1.269,6.497,2.636,9.667,4.105c0.868,0.4,1.736,0.801,2.592,1.213c3.104,1.502,6.152,3.081,9.145,4.75
	c37.381,20.782,66.307,54.937,80.358,95.978C443.681,321.286,444.461,323.711,445.184,326.17z"/>
<path style="fill:#E86523;" d="M286.576,369.888v3.974c0,4.26-0.945,8.293-2.632,11.912c-1.999,0.042-4.016,0.06-6.032,0.06
	c-20.214,0-39.904-1.671-58.835-4.85l6.504-14.806L286.576,369.888z"/>
<g>
	<path style="fill:#FFB133;" d="M445.178,326.171c-45.877,27.426-104.012,43.827-167.267,43.827
		c-63.264,0-121.399-16.401-167.267-43.827c10.259-34.944,31.164-65.34,58.97-87.417c-19.201,58.54,74.552,112.145,157.38,98.081
		c45.497-7.72,87.367-13.928,115.865-17.952C443.685,321.286,444.46,323.716,445.178,326.171z"/>
	<path style="fill:#FFB133;" d="M445.184,326.17c-30.45,18.201-66.285,31.54-105.434,38.449c-0.4,0.078-0.812,0.144-1.213,0.211
		c-14.697-21.038-23.307-46.637-23.307-74.25c0-29.16,9.602-56.071,25.822-77.755c0.011,0,0.033,0,0.045,0.011
		c3.271,1.269,6.497,2.636,9.667,4.105c0.868,0.4,1.736,0.801,2.592,1.213c3.104,1.502,6.152,3.081,9.145,4.75
		c37.381,20.782,66.307,54.937,80.358,95.978C443.681,321.286,444.461,323.711,445.184,326.17z"/>
</g>
<circle style="fill:#FFFFFF;" cx="375.871" cy="295.612" r="33.252"/>
<path style="fill:#3C363F;" d="M393.989,299.227c-0.063,0.293-0.125,0.585-0.199,0.867c-2.048,8.087-9.529,13.981-17.93,13.981
	c-7.732,0-14.775-4.984-17.387-12.246c-2.56-7.147-0.366-15.402,5.433-20.313c4.535-3.835,10.648-5.162,16.269-3.835
	c1.891,0.439,3.73,1.181,5.433,2.236C392.087,283.92,395.483,291.756,393.989,299.227z"/>
<g>
	<path style="fill:#FF8E4F;" d="M34.325,272.829h23.71c29.352,0,53.147,23.794,53.147,53.147l0,0h-23.71
		C58.119,325.975,34.325,302.18,34.325,272.829L34.325,272.829z"/>
	<path style="fill:#FF8E4F;" d="M58.035,402.831v-23.71c0-29.352,23.794-53.147,53.147-53.147l0,0v23.71
		C111.181,379.037,87.387,402.831,58.035,402.831L58.035,402.831z"/>
</g>
<path style="fill:#5C5560;" d="M393.989,299.227c-0.063,0.293-0.125,0.585-0.199,0.867c-2.247,1.776-5.089,2.842-8.182,2.842
	c-7.293,0-13.208-5.925-13.208-13.218c0-5.36,3.187-9.979,7.774-12.037c1.891,0.439,3.73,1.181,5.433,2.236
	C392.087,283.92,395.483,291.756,393.989,299.227z"/>
<g>
	<circle style="fill:#3AA5C9;" cx="414.229" cy="169.765" r="16.064"/>
	<circle style="fill:#3AA5C9;" cx="105.587" cy="234.015" r="16.064"/>
	<circle style="fill:#3AA5C9;" cx="447.676" cy="229.042" r="32.272"/>
</g>
<g>
</g>
<g>
</g>
<g>
</g>
<g>
</g>
<g>
</g>
<g>
</g>
<g>
</g>
<g>
</g>
<g>
</g>
<g>
</g>
<g>
</g>
<g>
</g>
<g>
</g>
<g>
</g>
<g>
</g>
</svg>
