<?xml version="1.0" encoding="iso-8859-1"?>
<!-- Generator: Adobe Illustrator 21.0.0, SVG Export Plug-In . SVG Version: 6.00 Build 0)  -->
<svg version="1.1" id="Capa_1" xmlns="http://www.w3.org/2000/svg" xmlns:xlink="http://www.w3.org/1999/xlink" x="0px" y="0px"
	 viewBox="0 0 512 512" style="enable-background:new 0 0 512 512;" xml:space="preserve">
<path style="fill:#6095C4;" d="M493.339,256v1.053c-0.088,19.139-2.418,37.741-6.747,55.554
	c-16.994,69.906-64.739,127.79-128.102,158.483c-6.942,3.364-14.069,6.396-21.362,9.097c-7.332,2.701-14.839,5.05-22.493,7.03
	c-4.378,1.141-8.794,2.155-13.269,3.042c-0.214,0.049-0.439,0.098-0.653,0.137c-3.412,0.673-6.864,1.267-10.335,1.794
	c-2.71,0.41-5.431,0.77-8.161,1.082c-9.097,1.053-18.359,1.599-27.748,1.599c-1.716,0-3.422-0.019-5.128-0.059
	c-2.272-0.049-4.524-0.127-6.776-0.234c-4.855-0.244-9.682-0.624-14.449-1.16c-0.468-0.039-0.926-0.098-1.394-0.146
	c-2.73-0.312-5.45-0.682-8.161-1.092c-9.799-1.482-19.402-3.549-28.781-6.181c-3.832-1.072-7.624-2.242-11.378-3.51
	c-9.535-3.188-18.798-6.981-27.748-11.3c-3.412-1.648-6.766-3.373-10.081-5.177c-63.559-34.534-109.685-97.079-121.804-171.07
	C16.682,282.266,15.6,269.26,15.6,256c0-4.202,0.107-8.375,0.331-12.519c0.127-2.632,0.302-5.255,0.526-7.858
	c1.989-23.516,7.381-46.058,15.687-67.137c1.033-2.642,2.125-5.265,3.256-7.858c13.572-31.131,33.578-58.801,58.352-81.342
	c1.267-1.15,2.545-2.291,3.841-3.422C139.558,39.282,194.42,17.13,254.469,17.13c98.015,0,182.243,59.035,219.068,143.497
	c1.131,2.593,2.223,5.206,3.266,7.849c9.964,25.31,15.736,52.727,16.458,81.401C493.31,251.905,493.339,253.953,493.339,256z"/>
<path style="fill:#FFDF5E;" d="M512,248.99c0,0-7.03,2.194-18.661,8.063c-38.346,19.324-126.767,78.486-178.704,230.163
	c-4.378,1.141-8.794,2.155-13.269,3.042c-0.214,0.049-0.439,0.098-0.653,0.137c-3.412,0.673-6.864,1.267-10.335,1.794
	c-11.71,1.765-23.702,2.681-35.908,2.681c-1.716,0-3.422-0.019-5.128-0.059c31.375-80.601,107.969-232.035,243.92-244.934
	C499.384,249.292,505.633,248.99,512,248.99z"/>
<g>
	<path style="fill:#FFB133;" d="M486.592,312.607c-16.994,69.906-64.739,127.79-128.102,158.483
		c-6.942,3.364-14.069,6.396-21.362,9.097C369.546,416.218,418.002,347.853,486.592,312.607z"/>
	<path style="fill:#FFB133;" d="M282.217,493.271c-9.097,1.053-18.359,1.599-27.748,1.599c-1.716,0-3.422-0.019-5.128-0.059
		c-7.166-0.146-14.244-0.614-21.225-1.394c-0.468-0.039-0.926-0.098-1.394-0.146c-2.73-0.312-5.45-0.682-8.161-1.092
		C166.682,273.998,70.598,193.016,32.145,168.486c-10.364-6.62-16.545-9.145-16.545-9.145c6.737,0,13.338,0.439,19.802,1.287
		C176.764,179.142,253.699,392.994,282.217,493.271z"/>
	<path style="fill:#FFB133;" d="M242.565,494.577c-4.855-0.244-9.682-0.624-14.449-1.16c-0.468-0.039-0.926-0.098-1.394-0.146
		c-2.73-0.312-5.45-0.682-8.161-1.092c-9.799-1.482-19.402-3.549-28.781-6.181c-3.832-1.072-7.624-2.242-11.378-3.51
		C124.885,327.476,49.519,264.921,16.545,243.881c-0.205-0.136-0.409-0.263-0.614-0.4C5.938,237.163,0,234.736,0,234.736
		c5.577,0,11.066,0.302,16.458,0.887c1.121,0.117,2.233,0.253,3.344,0.4C131.915,250.706,203.507,388.256,242.565,494.577z"/>
	<path style="fill:#FFB133;" d="M150.654,471.187c-3.412-1.648-6.766-3.373-10.081-5.177
		c-63.559-34.534-109.685-97.079-121.804-171.07C76.546,332.195,119.903,402.588,150.654,471.187z"/>
	<path style="fill:#FFB133;" d="M493.339,159.341c0,0-6.172,2.515-16.536,9.136c-38.443,24.53-134.557,105.512-186.426,323.712
		c-11.71,1.765-23.702,2.681-35.908,2.681c-9.389,0-18.651-0.546-27.748-1.599c28.508-100.277,105.444-314.128,246.816-332.643
		C480.001,159.779,486.602,159.341,493.339,159.341z"/>
</g>
<g>
	<path style="fill:#FFDF5E;" d="M460.131,338.483c0,0-60.137,35.665-101.641,132.607c-18.105,8.775-37.478,15.327-57.777,19.305
		C330.235,421.912,379.169,357.641,460.131,338.483z"/>
	<path style="fill:#FFDF5E;" d="M189.779,485.997c-17.277-4.846-33.754-11.592-49.207-19.987
		c-15.317-114.579-88.635-179.874-88.635-179.874C141.294,336.894,176.578,418.617,189.779,485.997z"/>
</g>
<g>
	
		<line style="fill:none;stroke:#2B272D;stroke-width:20;stroke-linecap:round;stroke-miterlimit:10;" x1="346.77" y1="167.218" x2="375.367" y2="149.337"/>
	
		<line style="fill:none;stroke:#2B272D;stroke-width:20;stroke-linecap:round;stroke-miterlimit:10;" x1="245.012" y1="167.218" x2="216.416" y2="149.337"/>
	
		<line style="fill:none;stroke:#2B272D;stroke-width:20;stroke-linecap:round;stroke-miterlimit:10;" x1="358.47" y1="215.314" x2="395.519" y2="215.314"/>
	
		<line style="fill:none;stroke:#2B272D;stroke-width:20;stroke-linecap:round;stroke-miterlimit:10;" x1="341.896" y1="264.385" x2="365.617" y2="286.809"/>
</g>
<g>
	<path style="fill:#D8D8D8;" d="M284.45,95.393c-18.039,0-32.662,14.623-32.662,32.662s14.623,32.662,32.662,32.662"/>
	<path style="fill:#D8D8D8;" d="M306.387,95.393c18.039,0,32.662,14.623,32.662,32.662s-14.623,32.662-32.662,32.662"/>
</g>
<path style="fill:#D33531;" d="M375.367,215.314c0,38.356-27.007,70.403-63.052,78.154c-5.44,1.18-11.095,1.794-16.896,1.794
	c-44.157,0-79.948-35.791-79.948-79.948s35.791-79.948,79.948-79.948c5.801,0,11.456,0.614,16.896,1.794
	C348.36,144.911,375.367,176.959,375.367,215.314z"/>
<path style="fill:#EA5A52;" d="M375.367,215.314c0,38.356-27.007,70.403-63.052,78.154c-36.035-7.751-63.042-39.799-63.042-78.154
	s27.007-70.403,63.042-78.154C348.36,144.911,375.367,176.959,375.367,215.314z"/>
<g>
	<circle style="fill:#3C363F;" cx="275.431" cy="169.49" r="17.55"/>
	<circle style="fill:#3C363F;" cx="315.405" cy="169.49" r="17.55"/>
</g>
<path style="fill:#FFDF5E;" d="M301.366,490.258c-0.214,0.049-0.439,0.098-0.653,0.137c-3.412,0.673-6.864,1.267-10.335,1.794
	c-11.71,1.765-23.702,2.681-35.908,2.681c-8.911,0-17.706-0.487-26.354-1.453C224.459,392.76,203.692,170.884,93.754,79.285
	c-4.339-3.617-8.804-7.03-13.425-10.218c0,0,6.484,1.638,17.267,6.796C144.004,98.102,270.049,185.772,301.366,490.258z"/>
<g>
</g>
<g>
</g>
<g>
</g>
<g>
</g>
<g>
</g>
<g>
</g>
<g>
</g>
<g>
</g>
<g>
</g>
<g>
</g>
<g>
</g>
<g>
</g>
<g>
</g>
<g>
</g>
<g>
</g>
</svg>
