<?xml version="1.0" encoding="iso-8859-1"?>
<!-- Generator: Adobe Illustrator 21.0.0, SVG Export Plug-In . SVG Version: 6.00 Build 0)  -->
<svg version="1.1" id="Capa_1" xmlns="http://www.w3.org/2000/svg" xmlns:xlink="http://www.w3.org/1999/xlink" x="0px" y="0px"
	 viewBox="0 0 512 512" style="enable-background:new 0 0 512 512;" xml:space="preserve">
<path style="fill:#60C5E8;" d="M512,256c0,48.086-13.26,93.09-36.331,131.532C430.926,462.096,349.288,512,256,512
	c-91.596,0-171.948-48.097-217.192-120.414C14.211,352.266,0,305.789,0,256C0,114.615,114.615,0,256,0S512,114.615,512,256z"/>
<path style="fill:#FFDF5E;" d="M474.749,33.541c-6.75,28.609-13.51,57.271-20.271,85.974
	c-116.046-16.635-233.671-18.526-350.072-5.674c-14.952,1.64-29.884,3.542-44.795,5.674C52.851,90.812,46.09,62.151,39.34,33.541
	l62.38,6.405l18.296-9.55l31.775-16.593l53.373,17.638l51.879-21.964l51.879,21.964l53.373-17.638l50.072,26.143L474.749,33.541z"/>
<path style="fill:#FF8E4F;" d="M475.669,387.532C430.926,462.096,349.288,512,256,512c-48.734,0-94.281-13.615-133.047-37.251
	c-34.105-20.783-62.976-49.319-84.146-83.163c-8.913-91.418-1.944-182.826,20.908-274.233c25.161-6.29,50.312-11.379,75.473-15.266
	c106.392-16.426,212.793-11.337,319.185,15.266C476.881,207.412,483.986,297.472,475.669,387.532z"/>
<path style="fill:#FFFFFF;" d="M366.924,184.856c-73.253-6.282-146.505-6.282-219.758,0c-10.599,0.909-19.031,9.341-19.94,19.94
	c-6.282,73.253-6.282,146.505,0,219.758c0.909,10.599,9.341,19.031,19.94,19.94c73.253,6.282,146.505,6.282,219.758,0
	c10.599-0.909,19.031-9.341,19.94-19.94c6.282-73.253,6.282-146.505,0-219.758C385.955,194.197,377.523,185.765,366.924,184.856z"/>
<path style="fill:#FFB133;" d="M135.189,102.087l-30.783,11.755c-14.952,1.64-29.884,3.542-44.795,5.674
	C52.851,90.812,46.09,62.151,39.34,33.541l62.38,6.405l18.296-9.55L135.189,102.087z"/>
<path style="fill:#E86523;" d="M122.953,474.749c-34.105-20.783-62.976-49.319-84.146-83.163
	c-8.913-91.418-1.944-182.826,20.908-274.233c25.161-6.29,50.312-11.379,75.473-15.266l0.01,0.01
	C135.199,102.097,51.882,283.779,122.953,474.749z"/>
<path style="fill:#BA4C20;" d="M255.226,366.712l53.857-53.857h20.106c19.612,0,35.51-15.898,35.51-35.51l0,0
	c0-19.384-15.534-35.129-34.832-35.493c-0.363-19.297-16.109-34.832-35.493-34.832l0,0c-19.612,0-35.51,15.898-35.51,35.51v20.106
	l-53.857,53.857h-20.106c-19.612,0-35.51,15.898-35.51,35.51l0,0c0,19.384,15.535,35.129,34.832,35.493
	c0.363,19.297,16.109,34.832,35.493,34.832l0,0c19.612,0,35.51-15.898,35.51-35.51V366.712z"/>
<g>
</g>
<g>
</g>
<g>
</g>
<g>
</g>
<g>
</g>
<g>
</g>
<g>
</g>
<g>
</g>
<g>
</g>
<g>
</g>
<g>
</g>
<g>
</g>
<g>
</g>
<g>
</g>
<g>
</g>
</svg>
