<?xml version="1.0" encoding="iso-8859-1"?>
<!-- Generator: Adobe Illustrator 21.0.0, SVG Export Plug-In . SVG Version: 6.00 Build 0)  -->
<svg version="1.1" id="Capa_1" xmlns="http://www.w3.org/2000/svg" xmlns:xlink="http://www.w3.org/1999/xlink" x="0px" y="0px"
	 viewBox="0 0 512 512" style="enable-background:new 0 0 512 512;" xml:space="preserve">
<path style="fill:#FFDF5E;" d="M512,256c0,68.545-26.948,130.821-70.834,176.765c-35.809,37.512-82.913,64.157-135.858,74.491
	C289.353,510.37,272.865,512,256,512s-33.353-1.63-49.309-4.744c-52.945-10.334-100.059-36.979-135.879-74.501
	C26.937,386.811,0,324.545,0,256C0,114.615,114.615,0,256,0S512,114.615,512,256z"/>
<g>
	<path style="fill:#BA4C20;" d="M445.116,405.002c-0.094,9.592-1.463,18.902-3.95,27.763
		c-35.809,37.512-82.913,64.157-135.858,74.491c-7.304-2.236-14.284-5.235-20.846-8.903c-17.763-9.927-39.173-9.927-56.937,0
		c-6.552,3.668-13.531,6.666-20.835,8.903c-52.945-10.334-100.059-36.979-135.879-74.501c-2.476-8.861-3.845-18.16-3.939-27.752
		c-0.387-39.863,20.825-74.794,52.632-93.832c17.711-10.595,28.735-29.508,28.432-50.145c-0.01-0.522-0.01-1.045-0.01-1.578
		c0-60.385,49.528-109.202,110.174-108.053c57.856,1.097,105.033,48.452,105.953,106.308c0.021,1.108,0.021,2.215,0,3.312
		c-0.293,20.449,10.177,39.393,27.794,49.779C424.009,329.749,445.503,364.878,445.116,405.002z"/>
	
		<ellipse transform="matrix(0.9934 -0.1147 0.1147 0.9934 -7.5173 20.9079)" style="fill:#BA4C20;" cx="177.923" cy="75.776" rx="54.003" ry="76.006"/>
	
		<ellipse transform="matrix(0.1147 -0.9934 0.9934 0.1147 220.4707 398.9389)" style="fill:#BA4C20;" cx="334.061" cy="75.774" rx="76.006" ry="54.003"/>
</g>
<g>
	
		<ellipse transform="matrix(0.866 -0.5 0.5 0.866 -86.5661 65.8557)" style="fill:#EA5A52;" cx="79.602" cy="194.458" rx="47.124" ry="66.329"/>
	
		<ellipse transform="matrix(0.5 -0.866 0.866 0.5 47.782 471.6989)" style="fill:#EA5A52;" cx="432.4" cy="194.468" rx="66.329" ry="47.124"/>
</g>
<g>
	
		<ellipse transform="matrix(0.5 -0.866 0.866 0.5 47.782 471.6989)" style="fill:#BA4C20;" cx="432.4" cy="194.468" rx="66.329" ry="47.124"/>
	
		<ellipse transform="matrix(0.866 -0.5 0.5 0.866 -86.5661 65.8557)" style="fill:#BA4C20;" cx="79.602" cy="194.458" rx="47.124" ry="66.329"/>
</g>
<g>
</g>
<g>
</g>
<g>
</g>
<g>
</g>
<g>
</g>
<g>
</g>
<g>
</g>
<g>
</g>
<g>
</g>
<g>
</g>
<g>
</g>
<g>
</g>
<g>
</g>
<g>
</g>
<g>
</g>
</svg>
