<?xml version="1.0" encoding="iso-8859-1"?>
<!-- Generator: Adobe Illustrator 21.0.0, SVG Export Plug-In . SVG Version: 6.00 Build 0)  -->
<svg version="1.1" id="Capa_1" xmlns="http://www.w3.org/2000/svg" xmlns:xlink="http://www.w3.org/1999/xlink" x="0px" y="0px"
	 viewBox="0 0 512 512" style="enable-background:new 0 0 512 512;" xml:space="preserve">
<path style="fill:#BA4C20;" d="M512,256c0,89.59-46.017,168.427-115.712,214.173C355.997,496.619,307.796,512,256,512
	c-45.746,0-88.691-11.995-125.848-33.029C52.443,435.033,0,351.639,0,256C0,114.615,114.615,0,256,0S512,114.615,512,256z"/>
<g>
	<ellipse style="fill:#EAEAEA;" cx="266.041" cy="31.347" rx="14.488" ry="30.739"/>
	
		<ellipse transform="matrix(0.7071 -0.7071 0.7071 0.7071 40.8012 360.8918)" style="fill:#EAEAEA;" cx="456.036" cy="131.195" rx="30.739" ry="14.487"/>
	
		<ellipse transform="matrix(0.7071 -0.7071 0.7071 0.7071 -70.3282 92.6114)" style="fill:#EAEAEA;" cx="76.628" cy="131.199" rx="14.487" ry="30.739"/>
	<ellipse style="fill:#EAEAEA;" cx="66.173" cy="361.796" rx="30.739" ry="14.487"/>
</g>
<path style="fill:#FFDF5E;" d="M467.205,168.02c0.648,30.271-15.911,56.719-40.563,70.266
	c-18.52,10.177-30.354,29.291-30.354,50.423v181.464C355.997,496.619,307.796,512,256,512c-45.746,0-88.691-11.995-125.848-33.029
	v-37.554c-37.042-6.154-65.285-38.327-65.285-77.103c0-32.684,20.052-60.667,48.525-72.349c5.057-2.079,9.258-5.58,12.173-9.927
	c2.926-4.347,4.587-9.54,4.587-15.015c0-10.992-6.708-20.793-16.865-24.984c-28.494-11.734-48.525-39.811-48.421-72.558
	c0.125-41.921,33.876-76.633,75.786-77.897c17.627-0.533,33.98,4.796,47.303,14.158c2.006-41.388,36.195-74.334,78.085-74.334
	s76.089,32.946,78.096,74.334c13.312-9.362,29.665-14.691,47.302-14.158C432.786,92.829,466.317,126.663,467.205,168.02z"/>
<g>
	<circle style="fill:#FF8E4F;" cx="266.041" cy="109.589" r="39.702"/>
	<circle style="fill:#FF8E4F;" cx="143.057" cy="364.304" r="39.702"/>
	<circle style="fill:#FF8E4F;" cx="143.057" cy="169.733" r="39.702"/>
	<circle style="fill:#FF8E4F;" cx="389.036" cy="169.733" r="39.702"/>
	<path style="fill:#FF8E4F;" d="M261.827,261.35c0,0,24.676-51.25,72.13-30.371c23.727,10.44,28.472,37.014,15.897,66.198
		c-32.997,76.578-143.057,76.578-176.054,0c-12.575-29.184-7.829-55.758,15.897-66.198C237.151,210.1,261.827,261.35,261.827,261.35
		z"/>
</g>
<g>
</g>
<g>
</g>
<g>
</g>
<g>
</g>
<g>
</g>
<g>
</g>
<g>
</g>
<g>
</g>
<g>
</g>
<g>
</g>
<g>
</g>
<g>
</g>
<g>
</g>
<g>
</g>
<g>
</g>
</svg>
