<?xml version="1.0" encoding="iso-8859-1"?>
<!-- Generator: Adobe Illustrator 21.0.0, SVG Export Plug-In . SVG Version: 6.00 Build 0)  -->
<svg version="1.1" id="Capa_1" xmlns="http://www.w3.org/2000/svg" xmlns:xlink="http://www.w3.org/1999/xlink" x="0px" y="0px"
	 viewBox="0 0 512 512" style="enable-background:new 0 0 512 512;" xml:space="preserve">
<path style="fill:#FF8E4F;" d="M512,256c0,98.137-55.223,183.38-136.296,226.346C339.978,501.279,299.248,512,256,512
	c-44.283,0-85.932-11.243-122.253-31.023C54.073,437.593,0,353.113,0,256C0,114.615,114.615,0,256,0S512,114.615,512,256z"/>
<g>
	<path style="fill:#7AC48F;" d="M19.223,74.839c0,0,127.748,52.045,177.428,319.37h54.411
		C251.062,394.209,184.823,74.839,19.223,74.839z"/>
	<path style="fill:#7AC48F;" d="M470.07,74.839c0,0-127.748,52.045-177.428,319.37h-54.411
		C238.231,394.209,304.472,74.839,470.07,74.839z"/>
</g>
<g>
	<path style="fill:#6EB585;" d="M510.102,149.158c0,0-127.748,39.934-177.428,245.05h-54.411
		C278.264,394.209,344.504,149.158,510.102,149.158z"/>
	<path style="fill:#6EB585;" d="M5.027,226.243c0,0,127.748,27.372,177.428,167.965h54.411
		C236.866,394.209,170.627,226.243,5.027,226.243z"/>
	<path style="fill:#6EB585;" d="M220.307,394.209c0,0,8.284-303.445-123.017-394.208c0,0,165.6,41.718,186.89,394.208"/>
</g>
<path style="fill:#A03510;" d="M379.298,445.273v15.945c0,7.408-1.264,14.524-3.594,21.128C339.978,501.279,299.248,512,256,512
	c-23.134,0-45.558-3.072-66.873-8.829c-19.477-5.245-38.034-12.758-55.38-22.194c-2.038-6.217-3.135-12.863-3.135-19.759v-15.945
	c0-35.129,28.473-63.603,63.603-63.603h121.48C350.824,381.67,379.298,410.143,379.298,445.273z"/>
<path style="fill:#BA4C20;" d="M379.298,445.273v15.945c0,7.408-1.264,14.524-3.594,21.128C339.978,501.279,299.248,512,256,512
	c-23.134,0-45.558-3.072-66.873-8.829v-57.898c0-35.129,28.473-63.603,63.603-63.603h62.966
	C350.824,381.67,379.298,410.143,379.298,445.273z"/>
<g>
</g>
<g>
</g>
<g>
</g>
<g>
</g>
<g>
</g>
<g>
</g>
<g>
</g>
<g>
</g>
<g>
</g>
<g>
</g>
<g>
</g>
<g>
</g>
<g>
</g>
<g>
</g>
<g>
</g>
</svg>
