<?xml version="1.0" encoding="iso-8859-1"?>
<!-- Generator: Adobe Illustrator 21.0.0, SVG Export Plug-In . SVG Version: 6.00 Build 0)  -->
<svg version="1.1" id="Capa_1" xmlns="http://www.w3.org/2000/svg" xmlns:xlink="http://www.w3.org/1999/xlink" x="0px" y="0px"
	 viewBox="0 0 512 512" style="enable-background:new 0 0 512 512;" xml:space="preserve">
<path style="fill:#FFDF5E;" d="M510.885,257.115c0,8.364-0.406,16.625-1.186,24.781c-6.689,69.266-41.094,130.418-91.988,172.23
	C373.715,490.298,317.401,512,256,512c-65.303,0-124.852-24.552-169.951-64.938C38.214,404.251,6.649,343.62,1.781,275.602
	c-0.447-6.107-0.666-12.266-0.666-18.487C1.115,116.345,115.23,2.229,256,2.229S510.885,116.345,510.885,257.115z"/>
<path style="fill:#6095C4;" d="M361.706,139.836H146.134V41.643C146.134,18.682,164.815,0,187.777,0h132.284
	c22.962,0,41.643,18.682,41.643,41.643v98.193H361.706z M177.344,108.626h153.151V41.643c0-5.753-4.681-10.433-10.433-10.433
	H187.777c-5.753,0-10.433,4.681-10.433,10.433V108.626z"/>
<path style="fill:#D8D8D8;" d="M509.699,281.896c-6.689,69.266-41.094,130.418-91.988,172.23C373.715,490.298,317.401,512,256,512
	c-65.303,0-124.852-24.552-169.951-64.938C38.214,404.251,6.649,343.62,1.781,275.602L103.755,98.961
	c8.916-15.428,25.384-24.948,43.216-24.948h213.896c17.832,0,34.3,9.519,43.216,24.948L509.699,281.896z"/>
<path style="fill:#EAEAEA;" d="M493.012,323.707l-75.3,130.418C373.715,490.298,317.401,512,256,512
	c-65.303,0-124.852-24.552-169.951-64.938L14.827,323.697c-5.181-8.968-5.181-20.11,0-29.088l106.948-185.244
	c5.181-8.968,14.835-14.544,25.197-14.544h213.896c10.362,0,20.016,5.576,25.197,14.544l106.948,185.244
	C498.193,303.587,498.193,314.729,493.012,323.707z"/>
<path style="fill:#3C363F;" d="M429.78,329.192l-36.152,62.619l-17.686,30.628l-15.605,27.028l-1.134,1.966
	c-7.158,12.401-20.391,20.037-34.706,20.037H183.342c-14.315,0-27.548-7.636-34.706-20.037l-1.134-1.966l-17.686-30.628
	l-15.605-27.028l-36.152-62.619c-7.158-12.401-7.158-27.673,0-40.074l36.152-62.619l15.605-27.028l17.686-30.628l1.134-1.966
	c7.158-12.401,20.391-20.037,34.706-20.037h141.154c14.315,0,27.548,7.636,34.706,20.037l1.134,1.966l15.605,27.028l17.686,30.628
	l36.152,62.619C436.937,301.519,436.937,316.791,429.78,329.192z"/>
<g>
	<polygon style="fill:#3AA5C9;" points="147.502,168.843 147.502,449.467 129.816,418.839 114.211,391.811 114.211,226.499 
		129.816,199.472 	"/>
	<rect x="196.252" y="146.845" style="fill:#3AA5C9;" width="33.291" height="324.63"/>
	<rect x="278.294" y="146.845" style="fill:#3AA5C9;" width="33.291" height="324.63"/>
	<polygon style="fill:#3AA5C9;" points="393.628,226.499 393.628,391.811 375.942,422.439 360.337,449.467 360.337,168.843 
		375.942,195.872 	"/>
</g>
<g>
	<polygon style="fill:#60C5E8;" points="147.502,168.843 147.502,449.467 129.816,418.839 129.816,199.472 	"/>
	<rect x="211.857" y="146.845" style="fill:#60C5E8;" width="17.686" height="324.63"/>
	<rect x="293.899" y="146.845" style="fill:#60C5E8;" width="17.686" height="324.63"/>
	<polygon style="fill:#60C5E8;" points="393.628,226.499 393.628,391.811 375.942,422.439 375.942,195.872 	"/>
</g>
<g>
</g>
<g>
</g>
<g>
</g>
<g>
</g>
<g>
</g>
<g>
</g>
<g>
</g>
<g>
</g>
<g>
</g>
<g>
</g>
<g>
</g>
<g>
</g>
<g>
</g>
<g>
</g>
<g>
</g>
</svg>
