<?xml version="1.0" encoding="iso-8859-1"?>
<!-- Generator: Adobe Illustrator 21.0.0, SVG Export Plug-In . SVG Version: 6.00 Build 0)  -->
<svg version="1.1" id="Capa_1" xmlns="http://www.w3.org/2000/svg" xmlns:xlink="http://www.w3.org/1999/xlink" x="0px" y="0px"
	 viewBox="0 0 512 512" style="enable-background:new 0 0 512 512;" xml:space="preserve">
<path style="fill:#6EB585;" d="M512,256c0,109.662-68.963,203.233-165.878,239.679c-7.283,2.748-14.723,5.162-22.309,7.241
	C302.216,508.844,279.479,512,256,512C114.615,512,0,397.385,0,256S114.615,0,256,0S512,114.615,512,256z"/>
<g>
	<path style="fill:#7AC48F;" d="M291.176,2.418L2.418,291.176c-3.909-28.32-3.074-57.173,2.512-85.264L205.913,4.93
		C234.004-0.656,262.857-1.491,291.176,2.418z"/>
	<path style="fill:#7AC48F;" d="M413.014,53.768L53.768,413.014c-12.59-16.181-22.971-33.521-31.136-51.616L361.398,22.632
		C379.492,30.797,396.833,41.178,413.014,53.768z"/>
	<path style="fill:#7AC48F;" d="M489.367,150.602L150.602,489.367c-18.094-8.165-35.436-18.545-51.616-31.136L458.232,98.986
		C470.822,115.167,481.203,132.508,489.367,150.602z"/>
	<path style="fill:#7AC48F;" d="M507.07,306.087L306.087,507.07c-28.091,5.586-56.944,6.421-85.264,2.512l288.759-288.759
		C513.491,249.143,512.656,277.996,507.07,306.087z"/>
</g>
<path style="fill:#3C363F;" d="M443.705,389.507c-23.416,23.416-61.513,23.416-84.929,0l-25.004-25.004
	c-16.384-16.384-43.029-16.384-59.413,0c-16.374,16.384-16.374,43.029,0,59.413l71.764,71.764
	c-7.283,2.748-14.723,5.162-22.309,7.241l-64.23-64.23c-24.524-24.524-24.524-64.439,0-88.963c24.524-24.524,64.439-24.524,88.963,0
	l25.004,25.004c15.266,15.266,40.114,15.266,55.38,0c15.255-15.266,15.255-40.103,0-55.369L306.594,197.036l14.775-14.785
	l122.337,122.337C467.111,328.004,467.111,366.101,443.705,389.507z"/>
<g>
	<path style="fill:#EA5A52;" d="M279.092,110.634L180.088,11.63c-15.506-15.506-40.647-15.506-56.153,0L11.63,123.935
		c-15.506,15.517-15.506,40.647,0,56.153l99.004,99.015c46.519,46.508,121.94,46.508,168.458,0
		c23.259-23.259,34.889-53.75,34.889-84.229C313.981,164.383,302.352,133.893,279.092,110.634z M199.304,110.634l-88.67,88.67
		c-5.716,5.716-14.973,5.716-20.679,0l-36.958-36.948c-5.705-5.716-5.705-14.973,0-20.679l88.67-88.67
		c5.716-5.716,14.973-5.716,20.679,0l36.958,36.948C205.009,95.671,205.009,104.929,199.304,110.634z"/>
	
		<rect x="274.034" y="112.743" transform="matrix(0.7071 -0.7071 0.7071 0.7071 -40.2128 270.508)" style="fill:#EA5A52;" width="64.783" height="142.105"/>
</g>
<path style="fill:#D33531;" d="M194.864,272.191c-20.654,0-40.072-8.043-54.675-22.646l0,0l109.351-109.351l0,0
	c14.605,14.605,22.647,34.022,22.646,54.674c0.001,20.656-8.042,40.073-22.646,54.677
	C234.936,264.147,215.519,272.191,194.864,272.191z"/>
<g>
</g>
<g>
</g>
<g>
</g>
<g>
</g>
<g>
</g>
<g>
</g>
<g>
</g>
<g>
</g>
<g>
</g>
<g>
</g>
<g>
</g>
<g>
</g>
<g>
</g>
<g>
</g>
<g>
</g>
</svg>
