<?xml version="1.0" encoding="iso-8859-1"?>
<!-- Generator: Adobe Illustrator 21.0.0, SVG Export Plug-In . SVG Version: 6.00 Build 0)  -->
<svg version="1.1" id="Capa_1" xmlns="http://www.w3.org/2000/svg" xmlns:xlink="http://www.w3.org/1999/xlink" x="0px" y="0px"
	 viewBox="0 0 512 512" style="enable-background:new 0 0 512 512;" xml:space="preserve">
<path style="fill:#BA4C20;" d="M512,256c0,112.264-72.265,207.653-172.816,242.186C313.104,507.141,285.121,512,256,512
	s-57.104-4.859-83.184-13.824C72.265,463.653,0,368.264,0,256C0,114.615,114.615,0,256,0S512,114.615,512,256z"/>
<polygon style="fill:#1F6599;" points="229.738,0.001 91.476,0.001 186.866,228.07 325.127,228.07 "/>
<path style="fill:#FFB133;" d="M326.611,330.47H185.383c-9.765,0-17.68-7.915-17.68-17.68V208.133c0-9.765,7.915-17.68,17.68-17.68
	H326.61c9.765,0,17.68,7.915,17.68,17.68V312.79C344.291,322.555,336.375,330.47,326.611,330.47z"/>
<path style="fill:#6095C4;" d="M282.256,0.001h138.262L331.58,212.644c-3.908,9.343-13.045,15.426-23.173,15.426H205.924
	c-9.06,0-15.201-9.223-11.705-17.582L282.256,0.001z"/>
<path style="fill:#FFDF5E;" d="M399.151,381.67c0,48.034-23.667,90.551-59.967,116.517C313.104,507.141,285.121,512,256,512
	s-57.104-4.859-83.184-13.824c-36.31-25.955-59.967-68.472-59.967-116.506c0-79.057,64.084-143.151,143.151-143.151
	C335.057,238.519,399.151,302.613,399.151,381.67z"/>
<circle style="fill:#FFB133;" cx="256" cy="381.67" r="119.118"/>
<circle style="fill:#FFFFFF;" cx="256" cy="381.67" r="98.941"/>
<path style="fill:#FFDF5E;" d="M254.739,417.666l37.254-37.254H305.9c13.566,0,24.563-10.998,24.563-24.563l0,0
	c0-13.408-10.746-24.3-24.094-24.551c-0.251-13.349-11.143-24.094-24.551-24.094l0,0c-13.566,0-24.563,10.998-24.563,24.563v13.908
	l-37.254,37.255h-13.908c-13.566,0-24.563,10.998-24.563,24.563l0,0c0,13.408,10.746,24.3,24.094,24.551
	c0.251,13.349,11.143,24.094,24.551,24.094l0,0c13.566,0,24.563-10.998,24.563-24.563V417.666z"/>
<g>
</g>
<g>
</g>
<g>
</g>
<g>
</g>
<g>
</g>
<g>
</g>
<g>
</g>
<g>
</g>
<g>
</g>
<g>
</g>
<g>
</g>
<g>
</g>
<g>
</g>
<g>
</g>
<g>
</g>
</svg>
