<?xml version="1.0" encoding="iso-8859-1"?>
<!-- Generator: Adobe Illustrator 21.0.0, SVG Export Plug-In . SVG Version: 6.00 Build 0)  -->
<svg version="1.1" id="Capa_1" xmlns="http://www.w3.org/2000/svg" xmlns:xlink="http://www.w3.org/1999/xlink" x="0px" y="0px"
	 viewBox="0 0 512 512" style="enable-background:new 0 0 512 512;" xml:space="preserve">
<path style="fill:#60C5E8;" d="M512,256c0,74.031-31.42,140.716-81.659,187.455C384.637,485.992,323.365,512,256,512
	c-24.66,0-48.494-3.49-71.053-9.989c-39.09-11.264-74.324-31.598-103.299-58.566C31.42,396.706,0,330.021,0,256
	C0,114.615,114.615,0,256,0S512,114.615,512,256z"/>
<rect x="130.612" y="93.278" style="fill:#D8D8D8;" width="248.686" height="96.131"/>
<path style="fill:#D33531;" d="M408.552,44.92v59.099c0,15.997-12.967,28.965-28.965,28.965H132.406
	c-15.997,0-28.965-12.967-28.965-28.965V44.92c0-15.997,12.967-28.965,28.965-28.965h247.181
	C395.585,15.956,408.552,28.923,408.552,44.92z"/>
<path style="fill:#EA5A52;" d="M408.552,44.92v59.099c0,15.997-12.967,28.965-28.965,28.965h-159.41
	c-15.997,0-28.965-12.967-28.965-28.965V44.92c0-15.997,12.967-28.965,28.965-28.965h159.41
	C395.585,15.956,408.552,28.923,408.552,44.92z"/>
<path style="fill:#D8D8D8;" d="M430.341,201.613v241.842C384.637,485.992,323.365,512,256,512c-24.66,0-48.494-3.49-71.053-9.989
	c-39.09-11.264-74.324-31.598-103.299-58.566V201.613c0-18.286,14.817-33.102,33.102-33.102h282.488
	C415.525,168.511,430.341,183.327,430.341,201.613z"/>
<path style="fill:#EAEAEA;" d="M430.341,201.613v241.842C384.637,485.992,323.365,512,256,512c-24.66,0-48.494-3.49-71.053-9.989
	c-1.923-4.19-2.988-8.85-2.988-13.761V201.613c0-18.286,14.817-33.102,33.102-33.102h182.178
	C415.525,168.511,430.341,183.327,430.341,201.613z"/>
<path style="fill:#EA5A52;" d="M255.997,291.028c0,0,38.286-79.517,111.912-47.121s29.45,164.923-111.912,229.714
	C114.635,408.83,70.459,276.302,144.085,243.907S255.997,291.028,255.997,291.028z"/>
<path style="fill:#FFFFFF;" d="M228.399,371.782h55.196l10.303,10.303c10.05,10.05,26.344,10.05,36.393,0l0,0
	c9.933-9.933,10.041-25.963,0.339-36.036c9.703-10.075,9.594-26.104-0.339-36.036l0,0c-10.05-10.05-26.343-10.05-36.393,0
	l-10.303,10.303h-55.197l-10.303-10.303c-10.05-10.05-26.344-10.05-36.393,0l0,0c-9.933,9.933-10.041,25.963-0.339,36.036
	c-9.703,10.075-9.594,26.104,0.339,36.036l0,0c10.05,10.05,26.344,10.05,36.393,0L228.399,371.782z"/>
<g>
</g>
<g>
</g>
<g>
</g>
<g>
</g>
<g>
</g>
<g>
</g>
<g>
</g>
<g>
</g>
<g>
</g>
<g>
</g>
<g>
</g>
<g>
</g>
<g>
</g>
<g>
</g>
<g>
</g>
</svg>
