<?xml version="1.0" encoding="iso-8859-1"?>
<!-- Generator: Adobe Illustrator 21.0.0, SVG Export Plug-In . SVG Version: 6.00 Build 0)  -->
<svg version="1.1" id="Capa_1" xmlns="http://www.w3.org/2000/svg" xmlns:xlink="http://www.w3.org/1999/xlink" x="0px" y="0px"
	 viewBox="0 0 512 512" style="enable-background:new 0 0 512 512;" xml:space="preserve">
<circle style="fill:#EA5A52;" cx="256" cy="256" r="256"/>
<circle style="fill:#FFFFFF;" cx="256" cy="256" r="185.814"/>
<path style="fill:#A03510;" d="M320.256,152.888v39.184c0,21.64-17.544,39.184-39.184,39.184h-50.155
	c-10.815,0-20.605-4.389-27.7-11.473c-7.084-7.095-11.473-16.896-11.473-27.711c0-21.64,17.544-39.184,39.173-39.184H320.256z"/>
<path style="fill:#BA4C20;" d="M320.256,152.888v39.184c0,21.64-17.544,39.184-39.184,39.184h-20.898
	c-10.815,0-20.605-4.389-27.7-11.473c-7.084-7.095-11.473-16.896-11.473-27.711c0-21.64,17.544-39.184,39.173-39.184H320.256z"/>
<path style="fill:#A03510;" d="M359.44,237.995c0,21.64-17.544,39.184-39.184,39.184H191.744c-10.815,0-20.616-4.389-27.711-11.473
	c-7.084-7.095-11.473-16.886-11.473-27.711c0-21.64,17.544-39.184,39.184-39.184h128.512c10.825,0,20.616,4.389,27.711,11.473
	C355.051,217.38,359.44,227.17,359.44,237.995z"/>
<path style="fill:#BA4C20;" d="M359.44,237.995c0,21.64-17.544,39.184-39.184,39.184h-85.671c-10.815,0-20.616-4.389-27.711-11.473
	c-7.084-7.095-11.473-16.886-11.473-27.711c0-21.64,17.544-39.184,39.184-39.184h85.671c10.825,0,20.616,4.389,27.711,11.473
	C355.051,217.38,359.44,227.17,359.44,237.995z"/>
<path style="fill:#A03510;" d="M398.623,291.285c0,21.64-17.544,39.184-39.184,39.184H152.56c-10.815,0-20.616-4.389-27.711-11.473
	c-7.084-7.095-11.473-16.886-11.473-27.711c0-21.64,17.544-39.184,39.184-39.184H359.44c10.825,0,20.616,4.389,27.711,11.473
	C394.235,270.669,398.623,280.46,398.623,291.285z"/>
<g>
	<path style="fill:#BA4C20;" d="M398.623,291.285c0,21.64-17.544,39.184-39.184,39.184H219.434
		c-10.815,0-20.616-4.389-27.711-11.473c-7.084-7.095-11.473-16.886-11.473-27.711c0-21.64,17.544-39.184,39.184-39.184H359.44
		c10.825,0,20.616,4.389,27.711,11.473C394.235,270.669,398.623,280.46,398.623,291.285z"/>
	<path style="fill:#BA4C20;" d="M320.257,152.893v-11.688c0-12.948-16.656-18.217-24.103-7.625l0,0
		c-8.512,12.107-22.385,19.313-37.185,19.313h-28.047"/>
</g>
<rect x="41.925" y="227.728" transform="matrix(0.7071 -0.7071 0.7071 0.7071 -106.0416 255.9982)" style="fill:#EA5A52;" width="428.143" height="56.549"/>
<g>
</g>
<g>
</g>
<g>
</g>
<g>
</g>
<g>
</g>
<g>
</g>
<g>
</g>
<g>
</g>
<g>
</g>
<g>
</g>
<g>
</g>
<g>
</g>
<g>
</g>
<g>
</g>
<g>
</g>
</svg>
