<?xml version="1.0" encoding="iso-8859-1"?>
<!-- Generator: Adobe Illustrator 21.0.0, SVG Export Plug-In . SVG Version: 6.00 Build 0)  -->
<svg version="1.1" id="Capa_1" xmlns="http://www.w3.org/2000/svg" xmlns:xlink="http://www.w3.org/1999/xlink" x="0px" y="0px"
	 viewBox="0 0 512 512" style="enable-background:new 0 0 512 512;" xml:space="preserve">
<path style="fill:#60C5E8;" d="M512,256c0,49.368-14.05,95.444-38.392,134.449c-0.675,1.08-1.36,2.15-2.046,3.219
	c-9.045,14.03-19.44,27.135-30.998,39.077c-0.114,0.125-0.228,0.239-0.343,0.363c-11.496,11.859-24.134,22.597-37.748,32.036
	c-0.779,0.54-1.558,1.08-2.347,1.61c-4.808,3.261-9.72,6.355-14.746,9.284c-0.717,0.415-1.433,0.831-2.16,1.236
	c-10.011,5.701-20.447,10.738-31.247,15.047c-29.191,11.683-61.04,18.1-94.395,18.1c-54.197,0-104.427-16.948-145.695-45.827
	c-19.481-13.624-36.969-29.918-51.912-48.34C24.436,372.514,3.158,316.739,3.158,256c0-140.513,113.908-254.421,254.421-254.421
	S512,115.487,512,256z"/>
<path style="fill:#D33531;" d="M0,131.569c7.579,32.461,72.942,44.95,145.994,27.896s126.127-57.196,118.549-89.657"/>
<path style="fill:#EA5A52;" d="M351.974,52.588v439.733c-29.191,11.683-61.04,18.1-94.395,18.1
	c-54.197,0-104.427-16.948-145.695-45.827c-19.481-13.624-36.969-29.918-51.912-48.34V267.579
	c0-84.187,48.382-157.066,118.861-192.353c28.931-14.486,61.58-22.638,96.13-22.638L351.974,52.588L351.974,52.588z"/>
<path style="fill:#D33531;" d="M326.875,52.588c-34.549,0-67.198,8.152-96.13,22.638c-70.48,35.287-118.861,108.165-118.861,192.353
	v197.015c-19.481-13.624-36.969-29.918-51.912-48.34V267.579c0-84.187,48.382-157.066,118.861-192.353
	c28.931-14.486,61.58-22.638,96.13-22.638L326.875,52.588L326.875,52.588z"/>
<path style="fill:#EA5A52;" d="M3.304,52.591c0,33.334,60.813,60.357,135.829,60.357s135.829-27.023,135.829-60.357"/>
<path style="fill:#EAEAEA;" d="M351.972,52.591v264.017h-16.554c-68.124,0-128.186-34.515-163.652-87.013
	c-6.681-9.889-12.489-28.259-17.314-48.811c-15.3-65.167,34.157-127.874,101.095-128.19c0.427-0.002,0.853-0.003,1.28-0.003
	L351.972,52.591L351.972,52.591z"/>
<path style="fill:#5C5560;" d="M506.943,207.567v58.725H351.964V52.588c42.795,0,81.539,17.353,109.588,45.391
	C489.59,126.027,506.943,164.772,506.943,207.567z"/>
<ellipse style="fill:#3C363F;" cx="297.963" cy="136.712" rx="31.496" ry="44.799"/>
<ellipse style="fill:#5C5560;" cx="308.514" cy="136.712" rx="15.743" ry="22.398"/>
<path style="fill:#3C363F;" d="M506.943,266.291H351.964v-74.395C351.964,220.973,413.607,266.291,506.943,266.291z"/>
<g>
</g>
<g>
</g>
<g>
</g>
<g>
</g>
<g>
</g>
<g>
</g>
<g>
</g>
<g>
</g>
<g>
</g>
<g>
</g>
<g>
</g>
<g>
</g>
<g>
</g>
<g>
</g>
<g>
</g>
</svg>
