<?xml version="1.0" encoding="iso-8859-1"?>
<!-- Generator: Adobe Illustrator 21.0.0, SVG Export Plug-In . SVG Version: 6.00 Build 0)  -->
<svg version="1.1" id="Capa_1" xmlns="http://www.w3.org/2000/svg" xmlns:xlink="http://www.w3.org/1999/xlink" x="0px" y="0px"
	 viewBox="0 0 512 512" style="enable-background:new 0 0 512 512;" xml:space="preserve">
<path style="fill:#FF8E4F;" d="M512,256c0,63.634-23.218,121.856-61.649,166.63C403.404,477.341,333.751,512,256,512
	s-147.404-34.659-194.351-89.37C23.218,377.856,0,319.634,0,256S23.218,134.144,61.649,89.37
	c28.014-32.653,64.115-58.159,105.2-73.415C194.612,5.632,224.643,0,256,0s61.388,5.632,89.151,15.956
	c41.085,15.256,77.187,40.761,105.2,73.415C488.782,134.144,512,192.366,512,256z"/>
<path style="fill:#EAEAEA;" d="M450.351,15.956V422.63c-9.55,11.128-20.041,21.431-31.347,30.772
	c-12.455,10.303-25.893,19.435-40.166,27.251C342.371,500.642,300.513,512,256,512s-86.371-11.358-122.838-31.347
	c-14.273-7.816-27.711-16.948-40.166-27.251c-11.306-9.341-21.797-19.644-31.347-30.772V15.956H450.351z"/>
<path style="fill:#FFDF5E;" d="M92.996,47.303v406.1c12.455,10.303,25.893,19.435,40.166,27.251h245.676
	c14.273-7.816,27.711-16.948,40.166-27.251v-406.1H92.996z M398.106,459.755H113.894V68.2h284.212V459.755z"/>
<g>
	<circle style="fill:#3C363F;" cx="255.739" cy="144.969" r="24.79"/>
	<circle style="fill:#3C363F;" cx="241.215" cy="102.39" r="10.309"/>
	<circle style="fill:#3C363F;" cx="217.997" cy="120.487" r="10.309"/>
	<circle style="fill:#3C363F;" cx="293.992" cy="121.292" r="10.309"/>
	<circle style="fill:#3C363F;" cx="271.172" cy="102.703" r="10.309"/>
	<rect x="145.241" y="237.474" style="fill:#3C363F;" width="221.518" height="25.078"/>
	<rect x="145.241" y="285.257" style="fill:#3C363F;" width="221.518" height="25.078"/>
	<rect x="145.241" y="333.04" style="fill:#3C363F;" width="221.518" height="25.078"/>
</g>
<circle style="fill:#EA5A52;" cx="316.604" cy="411.596" r="31.723"/>
<g>
</g>
<g>
</g>
<g>
</g>
<g>
</g>
<g>
</g>
<g>
</g>
<g>
</g>
<g>
</g>
<g>
</g>
<g>
</g>
<g>
</g>
<g>
</g>
<g>
</g>
<g>
</g>
<g>
</g>
</svg>
