<?xml version="1.0" encoding="iso-8859-1"?>
<!-- Generator: Adobe Illustrator 21.0.0, SVG Export Plug-In . SVG Version: 6.00 Build 0)  -->
<svg version="1.1" id="Capa_1" xmlns="http://www.w3.org/2000/svg" xmlns:xlink="http://www.w3.org/1999/xlink" x="0px" y="0px"
	 viewBox="0 0 512 512" style="enable-background:new 0 0 512 512;" xml:space="preserve">
<path style="fill:#6095C4;" d="M512,256c0,50.918-14.869,98.366-40.5,138.239c-45.536,70.833-125.032,117.759-215.498,117.759
	S86.039,465.072,40.503,394.239C14.872,354.366,0.003,306.918,0.003,256s14.869-98.366,40.5-138.239
	c18.474-28.745,42.538-53.54,70.666-72.871c41.179-28.317,91.073-44.889,144.832-44.889S359.655,16.574,400.834,44.89
	c28.128,19.33,52.192,44.126,70.666,72.871C497.131,157.633,512,205.082,512,256z"/>
<path style="fill:#EAEAEA;" d="M471.5,44.89v349.349c-8.735,13.573-18.704,26.279-29.779,37.94
	c-46.644,49.162-112.598,79.819-185.719,79.819c-5.433,0-10.836-0.167-16.185-0.502c-11.818-0.742-23.426-2.278-34.753-4.577
	c-52.548-10.595-99.265-37.303-134.781-74.741c-11.076-11.661-21.044-24.367-29.779-37.94V44.89H471.5z"/>
<rect x="40.503" y="37.058" style="fill:#D8D8D8;" width="430.997" height="48.587"/>
<g>
	<rect y="12.538" style="fill:#FFDF5E;" width="511.997" height="43.324"/>
	<rect x="70.279" y="77.802" style="fill:#FFDF5E;" width="371.438" height="131.646"/>
</g>
<rect x="91.177" y="98.7" style="fill:#EA5A52;" width="329.642" height="89.854"/>
<g>
	<path style="fill:#FFFFFF;" d="M113.284,124.538c0-1.48,1.339-2.818,3.452-2.818h14.162c8.947,0,15.993,4.298,15.993,15.853v0.422
		c0,11.554-7.257,15.993-16.557,15.993h-7.891v16.346c0,1.903-2.326,2.889-4.58,2.889c-2.326,0-4.58-0.986-4.58-2.889
		L113.284,124.538L113.284,124.538z M122.444,129.752v17.051h7.891c4.58,0,7.398-2.607,7.398-8.102v-0.845
		c0-5.495-2.818-8.102-7.398-8.102h-7.891V129.752z"/>
	<path style="fill:#FFFFFF;" d="M161.69,143.843h10.709c1.832,0,2.889,1.762,2.889,3.663c0,1.621-0.916,3.522-2.889,3.522H161.69
		v14.161h19.939c1.832,0,2.889,1.903,2.889,4.087c0,1.902-0.916,3.946-2.889,3.946h-25.083c-2.043,0-4.016-0.986-4.016-2.889
		v-45.726c0-1.902,1.973-2.889,4.016-2.889h25.083c1.973,0,2.889,2.044,2.889,3.946c0,2.184-1.057,4.087-2.889,4.087H161.69V143.843
		z"/>
	<path style="fill:#FFFFFF;" d="M223.412,121.72c1.974,0,2.889,2.114,2.889,4.087c0,2.184-1.056,4.157-2.889,4.157h-10.287v40.371
		c0,1.903-2.325,2.889-4.58,2.889c-2.325,0-4.58-0.986-4.58-2.889v-40.371h-10.357c-1.832,0-2.888-1.902-2.888-4.157
		c0-1.973,0.915-4.087,2.888-4.087H223.412z"/>
	<path style="fill:#FFFFFF;" d="M266.746,159.484c0-10.568-22.617-7.328-22.617-24.025c0-10.498,9.018-14.091,17.121-14.091
		c4.158,0,13.387,0.986,13.387,5.636c0,1.621-1.126,4.862-3.663,4.862c-2.185,0-3.805-2.678-9.724-2.678
		c-5.072,0-7.961,2.044-7.961,5.425c0,8.736,22.617,5.706,22.617,23.954c0,10.076-7.046,15.289-16.768,15.289
		c-9.23,0-16.275-4.65-16.275-8.736c0-1.973,1.832-4.932,4.017-4.932c2.889,0,4.791,5.425,11.978,5.425
		C263.084,165.614,266.746,163.711,266.746,159.484z"/>
	<path style="fill:#FFFFFF;" d="M307.19,150.114h-15.852v20.221c0,1.903-2.326,2.889-4.58,2.889c-2.326,0-4.58-0.986-4.58-2.889
		v-45.797c0-1.973,2.254-2.818,4.58-2.818c2.254,0,4.58,0.846,4.58,2.818v18.389h15.852v-18.389c0-1.973,2.255-2.818,4.58-2.818
		c2.255,0,4.581,0.846,4.581,2.818v45.797c0,1.903-2.326,2.889-4.581,2.889c-2.325,0-4.58-0.986-4.58-2.889V150.114z"/>
	<path style="fill:#FFFFFF;" d="M324.244,157.512v-19.658c0-11.767,7.187-16.134,16.486-16.134c9.301,0,16.557,4.369,16.557,16.134
		v19.658c0,11.767-7.256,16.134-16.557,16.134C331.431,173.646,324.244,169.277,324.244,157.512z M348.129,137.854
		c0-5.566-2.818-8.102-7.398-8.102c-4.65,0-7.327,2.537-7.327,8.102v19.658c0,5.566,2.677,8.102,7.327,8.102
		c4.58,0,7.398-2.537,7.398-8.102V137.854z"/>
	<path style="fill:#FFFFFF;" d="M365.112,124.538c0-1.48,1.339-2.818,3.452-2.818h14.162c8.947,0,15.993,4.298,15.993,15.853v0.422
		c0,11.554-7.257,15.993-16.557,15.993h-7.891v16.346c0,1.903-2.326,2.889-4.58,2.889c-2.326,0-4.58-0.986-4.58-2.889
		L365.112,124.538L365.112,124.538z M374.272,129.752v17.051h7.891c4.58,0,7.398-2.607,7.398-8.102v-0.845
		c0-5.495-2.818-8.102-7.398-8.102h-7.891V129.752z"/>
</g>
<path style="fill:#FFDF5E;" d="M205.063,237.662V506.92c-7.074-1.431-14.043-3.145-20.898-5.141
	c-34.586-10.094-66.152-27.282-92.985-49.904c-7.335-6.175-14.305-12.748-20.898-19.696V237.662L205.063,237.662L205.063,237.662z"
	/>
<path style="fill:#60C5E8;" d="M184.165,258.56v243.219c-34.586-10.094-66.152-27.282-92.985-49.904V258.56H184.165L184.165,258.56z
	"/>
<path style="fill:#FFDF5E;" d="M441.721,237.662v194.517c-6.593,6.949-13.563,13.521-20.898,19.686
	c-43.415,36.592-99.16,58.995-160.109,60.081c-1.567,0.042-3.135,0.052-4.712,0.052c-5.433,0-10.836-0.167-16.185-0.502V237.662
	L441.721,237.662L441.721,237.662z"/>
<path style="fill:#60C5E8;" d="M420.823,258.56v193.305c-43.415,36.592-99.16,58.995-160.109,60.081V258.56H420.823z"/>
<path style="fill:#EAEAEA;" d="M362.411,403.755v-46.42l8.665-8.665c8.452-8.452,8.452-22.155,0-30.607l0,0
	c-8.354-8.354-21.834-8.445-30.307-0.285c-8.473-8.16-21.953-8.069-30.307,0.285l0,0c-8.452,8.452-8.452,22.155,0,30.607
	l8.665,8.665v46.42l-8.665,8.665c-8.452,8.452-8.452,22.155,0,30.607l0,0c8.354,8.354,21.834,8.445,30.307,0.285
	c8.473,8.16,21.953,8.069,30.307-0.285l0,0c8.452-8.452,8.452-22.155,0-30.607L362.411,403.755z"/>
<rect x="70.279" y="377.54" style="fill:#FFDF5E;" width="134.781" height="28.211"/>
<g>
</g>
<g>
</g>
<g>
</g>
<g>
</g>
<g>
</g>
<g>
</g>
<g>
</g>
<g>
</g>
<g>
</g>
<g>
</g>
<g>
</g>
<g>
</g>
<g>
</g>
<g>
</g>
<g>
</g>
</svg>
