<?xml version="1.0" encoding="iso-8859-1"?>
<!-- Generator: Adobe Illustrator 21.0.0, SVG Export Plug-In . SVG Version: 6.00 Build 0)  -->
<svg version="1.1" id="Capa_1" xmlns="http://www.w3.org/2000/svg" xmlns:xlink="http://www.w3.org/1999/xlink" x="0px" y="0px"
	 viewBox="0 0 512 512" style="enable-background:new 0 0 512 512;" xml:space="preserve">
<path style="fill:#FFDF5E;" d="M512,256c0,67.156-25.861,128.282-68.169,173.944C397.072,480.413,330.23,512,256,512
	c-44.701,0-86.727-11.452-123.298-31.598c-24.158-13.302-45.934-30.386-64.533-50.458C25.861,384.282,0,323.156,0,256
	C0,114.615,114.615,0,256,0S512,114.615,512,256z"/>
<g>
	<path style="fill:#D33531;" d="M339.592,416.151c0,14.43-11.692,26.122-26.122,26.122H198.531c-7.21,0-13.751-2.926-18.474-7.649
		c-4.723-4.723-7.649-11.264-7.649-18.474c0-14.43,11.692-26.122,26.122-26.122h114.939c7.21,0,13.751,2.926,18.474,7.649
		C336.666,402.401,339.592,408.942,339.592,416.151z"/>
	<path style="fill:#D33531;" d="M339.592,363.907c0,14.43-11.692,26.122-26.122,26.122H198.531c-7.21,0-13.751-2.926-18.474-7.649
		c-4.723-4.723-7.649-11.264-7.649-18.474c0-14.43,11.692-26.122,26.122-26.122h114.939c7.21,0,13.751,2.926,18.474,7.649
		C336.666,350.156,339.592,356.697,339.592,363.907z"/>
</g>
<rect x="400.196" y="95.368" style="fill:#3C363F;" width="20.898" height="157.55"/>
<g>
	<path style="fill:#D33531;" d="M339.592,311.662c0,14.43-11.692,26.122-26.122,26.122H198.531c-7.21,0-13.751-2.926-18.474-7.649
		c-4.723-4.723-7.649-11.264-7.649-18.474c0-14.43,11.692-26.122,26.122-26.122h114.939c7.21,0,13.751,2.926,18.474,7.649
		C336.666,297.911,339.592,304.452,339.592,311.662z"/>
	<path style="fill:#D33531;" d="M339.592,259.417c0,14.43-11.692,26.122-26.122,26.122H198.531c-7.21,0-13.751-2.926-18.474-7.649
		c-4.723-4.723-7.649-11.264-7.649-18.474c0-14.43,11.692-26.122,26.122-26.122h114.939c7.21,0,13.751,2.926,18.474,7.649
		C336.666,245.666,339.592,252.207,339.592,259.417z"/>
	<path style="fill:#D33531;" d="M339.592,207.172c0,14.43-11.692,26.122-26.122,26.122H198.531c-7.21,0-13.751-2.926-18.474-7.649
		c-4.723-4.723-7.649-11.264-7.649-18.474c0-14.43,11.692-26.122,26.122-26.122h114.939c7.21,0,13.751,2.926,18.474,7.649
		S339.592,199.962,339.592,207.172z"/>
	<path style="fill:#D33531;" d="M339.592,154.927c0,14.43-11.692,26.122-26.122,26.122H198.531c-7.21,0-13.751-2.926-18.474-7.649
		c-4.723-4.723-7.649-11.264-7.649-18.474c0-14.43,11.692-26.122,26.122-26.122h114.939c7.21,0,13.751,2.926,18.474,7.649
		C336.666,141.176,339.592,147.717,339.592,154.927z"/>
</g>
<g>
	<path style="fill:#EA5A52;" d="M339.592,416.151c0,14.43-11.692,26.122-26.122,26.122h-71.053c-7.21,0-13.751-2.926-18.474-7.649
		c-4.723-4.723-7.649-11.264-7.649-18.474c0-14.43,11.692-26.122,26.122-26.122h71.053c7.21,0,13.751,2.926,18.474,7.649
		C336.666,402.401,339.592,408.942,339.592,416.151z"/>
	<path style="fill:#EA5A52;" d="M339.592,363.907c0,14.43-11.692,26.122-26.122,26.122h-71.053c-7.21,0-13.751-2.926-18.474-7.649
		c-4.723-4.723-7.649-11.264-7.649-18.474c0-14.43,11.692-26.122,26.122-26.122h71.053c7.21,0,13.751,2.926,18.474,7.649
		C336.666,350.156,339.592,356.697,339.592,363.907z"/>
	<path style="fill:#EA5A52;" d="M339.592,311.662c0,14.43-11.692,26.122-26.122,26.122h-71.053c-7.21,0-13.751-2.926-18.474-7.649
		c-4.723-4.723-7.649-11.264-7.649-18.474c0-14.43,11.692-26.122,26.122-26.122h71.053c7.21,0,13.751,2.926,18.474,7.649
		C336.666,297.911,339.592,304.452,339.592,311.662z"/>
	<path style="fill:#EA5A52;" d="M339.592,259.417c0,14.43-11.692,26.122-26.122,26.122h-71.053c-7.21,0-13.751-2.926-18.474-7.649
		c-4.723-4.723-7.649-11.264-7.649-18.474c0-14.43,11.692-26.122,26.122-26.122h71.053c7.21,0,13.751,2.926,18.474,7.649
		C336.666,245.666,339.592,252.207,339.592,259.417z"/>
	<path style="fill:#EA5A52;" d="M339.592,207.172c0,14.43-11.692,26.122-26.122,26.122h-71.053c-7.21,0-13.751-2.926-18.474-7.649
		c-4.723-4.723-7.649-11.264-7.649-18.474c0-14.43,11.692-26.122,26.122-26.122h71.053c7.21,0,13.751,2.926,18.474,7.649
		S339.592,199.962,339.592,207.172z"/>
	<path style="fill:#EA5A52;" d="M339.592,154.927c0,14.43-11.692,26.122-26.122,26.122h-71.053c-7.21,0-13.751-2.926-18.474-7.649
		c-4.723-4.723-7.649-11.264-7.649-18.474c0-14.43,11.692-26.122,26.122-26.122h71.053c7.21,0,13.751,2.926,18.474,7.649
		C336.666,141.176,339.592,147.717,339.592,154.927z"/>
</g>
<path style="fill:#D8D8D8;" d="M456.62,60.123v51.681c0,14.012-11.358,25.36-25.36,25.36H80.729
	c-14.002,0-25.349-11.348-25.349-25.36V60.123c0-14.012,11.348-25.36,25.349-25.36h350.532
	C445.262,34.764,456.62,46.111,456.62,60.123z"/>
<path style="fill:#EAEAEA;" d="M456.62,60.123v51.681c0,14.012-11.358,25.36-25.36,25.36H158.051
	c-14.002,0-25.349-11.348-25.349-25.36V60.123c0-14.012,11.348-25.36,25.349-25.36h273.209
	C445.262,34.764,456.62,46.111,456.62,60.123z"/>
<path style="fill:#D8D8D8;" d="M443.831,429.944C397.072,480.413,330.23,512,256,512s-141.072-31.587-187.831-82.056
	c3.699-2.132,7.993-3.344,12.56-3.344h350.532C435.837,426.6,440.132,427.813,443.831,429.944z"/>
<path style="fill:#EAEAEA;" d="M443.831,429.944C397.072,480.413,330.23,512,256,512c-44.701,0-86.727-11.452-123.298-31.598V451.96
	c0-14.012,11.348-25.36,25.349-25.36h273.209C435.837,426.6,440.132,427.813,443.831,429.944z"/>
<path style="fill:#1F6599;" d="M462.199,294.717c0,22.601-15.37,41.618-36.227,47.146c-4.002,1.066-8.202,1.63-12.539,1.63
	c-26.937,0-48.776-21.838-48.776-48.776c0-26.927,21.838-48.765,48.776-48.765c4.336,0,8.537,0.564,12.539,1.63
	C446.829,253.108,462.199,272.125,462.199,294.717z"/>
<path style="fill:#6095C4;" d="M462.199,294.717c0,22.601-15.37,41.618-36.227,47.146c-20.856-5.528-36.237-24.545-36.237-47.146
	c0-22.591,15.381-41.608,36.237-47.135C446.829,253.108,462.199,272.125,462.199,294.717z"/>
<g>
</g>
<g>
</g>
<g>
</g>
<g>
</g>
<g>
</g>
<g>
</g>
<g>
</g>
<g>
</g>
<g>
</g>
<g>
</g>
<g>
</g>
<g>
</g>
<g>
</g>
<g>
</g>
<g>
</g>
</svg>
