<?xml version="1.0" encoding="iso-8859-1"?>
<!-- Generator: Adobe Illustrator 21.0.0, SVG Export Plug-In . SVG Version: 6.00 Build 0)  -->
<svg version="1.1" id="Capa_1" xmlns="http://www.w3.org/2000/svg" xmlns:xlink="http://www.w3.org/1999/xlink" x="0px" y="0px"
	 viewBox="0 0 512 512" style="enable-background:new 0 0 512 512;" xml:space="preserve">
<path style="fill:#6EB585;" d="M512,256c0,119.003-81.199,219.041-191.215,247.733c-7.534,1.964-15.203,3.594-22.988,4.869
	c-8.913,1.463-17.972,2.466-27.167,2.988c-4.838,0.272-9.717,0.408-14.628,0.408c-7.461,0-14.848-0.324-22.141-0.951
	c-48.086-4.106-92.368-21.525-129.169-48.535c-25.224-18.505-46.937-41.534-63.937-67.887c-4.932-7.649-9.477-15.569-13.584-23.74
	c-9.78-19.435-17.157-40.301-21.734-62.182c-2.017-9.623-3.49-19.445-4.389-29.435c-0.69-7.659-1.045-15.423-1.045-23.27
	c0-17.742,1.808-35.067,5.235-51.785c6.468-31.441,18.683-60.771,35.516-86.841c3.95-6.134,8.161-12.079,12.601-17.826
	C100.177,38.997,173.539,0.002,256.002,0.002C397.386,0.002,512,114.616,512,256z"/>
<g>
	<path style="fill:#7AC48F;" d="M291.178,2.419L2.421,291.176c-3.909-28.32-3.074-57.172,2.512-85.263L205.915,4.931
		C234.007-0.655,262.858-1.489,291.178,2.419z"/>
	<path style="fill:#7AC48F;" d="M413.014,53.769L53.771,413.013c-12.59-16.181-22.971-33.521-31.136-51.616L361.399,22.634
		C379.493,30.798,396.834,41.179,413.014,53.769z"/>
	<path style="fill:#7AC48F;" d="M489.368,150.603L150.604,489.365c-18.094-8.165-35.435-18.545-51.616-31.136L458.232,98.986
		C470.822,115.167,481.203,132.508,489.368,150.603z"/>
	<path style="fill:#7AC48F;" d="M507.07,306.086L306.088,507.069c-28.091,5.586-56.943,6.421-85.263,2.512l288.757-288.757
		C513.491,249.143,512.656,277.995,507.07,306.086z"/>
</g>
<path style="fill:#BA4C20;" d="M297.797,115.223v393.38c-13.604,2.236-27.564,3.396-41.796,3.396
	c-7.461,0-14.848-0.324-22.141-0.951c-48.086-4.106-92.368-21.525-129.169-48.535c-25.224-18.505-46.937-41.534-63.937-67.887
	V115.223H297.797z"/>
<path style="fill:#3C363F;" d="M233.86,394.208v116.84c-48.086-4.106-92.368-21.525-129.169-48.535v-68.305
	c0-35.662,28.923-64.585,64.585-64.585S233.86,358.546,233.86,394.208z"/>
<g>
	<path style="fill:#E86523;" d="M320.785,279.27v224.464c-7.534,1.964-15.203,3.594-22.988,4.869
		c-8.913,1.463-17.972,2.466-27.167,2.988V279.27H320.785z"/>
	<path style="fill:#E86523;" d="M27.17,279.27v91.616c-9.78-19.435-17.157-40.301-21.734-62.182
		c-2.017-9.623-3.49-19.445-4.389-29.435L27.17,279.27L27.17,279.27z"/>
</g>
<path style="fill:#FF8E4F;" d="M487.351,350.436l-69.82,77.74L284.496,308.703H5.437c-3.563-17.011-5.433-34.638-5.433-52.704
	c0-17.742,1.808-35.067,5.235-51.785h319.288L487.351,350.436z"/>
<rect x="40.751" y="113.13" style="fill:#A03510;" width="257.043" height="37.616"/>
<polygon style="fill:#EA5A52;" points="338.551,124.342 169.276,0.002 0,124.342 "/>
<path style="fill:#1F6599;" d="M512,109.757c0,37.282-24.795,68.775-58.796,78.889c-7.45,2.226-15.339,3.417-23.51,3.417
	c-45.453,0-82.306-36.853-82.306-82.306s36.853-82.306,82.306-82.306c8.171,0,16.06,1.191,23.51,3.417
	C487.205,40.982,512,72.474,512,109.757z"/>
<path style="fill:#6095C4;" d="M512,109.757c0,37.282-24.795,68.775-58.796,78.889c-34.001-10.115-58.796-41.608-58.796-78.889
	s24.795-68.775,58.796-78.889C487.205,40.982,512,72.474,512,109.757z"/>
<g>
</g>
<g>
</g>
<g>
</g>
<g>
</g>
<g>
</g>
<g>
</g>
<g>
</g>
<g>
</g>
<g>
</g>
<g>
</g>
<g>
</g>
<g>
</g>
<g>
</g>
<g>
</g>
<g>
</g>
</svg>
