<?xml version="1.0" encoding="iso-8859-1"?>
<!-- Generator: Adobe Illustrator 21.0.0, SVG Export Plug-In . SVG Version: 6.00 Build 0)  -->
<svg version="1.1" id="Capa_1" xmlns="http://www.w3.org/2000/svg" xmlns:xlink="http://www.w3.org/1999/xlink" x="0px" y="0px"
	 viewBox="0 0 512 512" style="enable-background:new 0 0 512 512;" xml:space="preserve">
<path style="fill:#60C5E8;" d="M512,256c0,16.279-1.526,32.204-4.43,47.637c-1.014,5.423-2.215,10.794-3.574,16.102
	c-10.397,40.584-30.49,77.281-57.668,107.468C399.464,479.263,331.557,512,256,512c-75.442,0-143.256-32.632-190.109-84.553
	c-27.293-30.239-47.47-67.02-57.898-107.708c-1.358-5.308-2.55-10.679-3.563-16.102C1.515,288.204,0,272.279,0,256
	c0-2.832,0.042-5.653,0.146-8.453C4.598,110.07,117.447,0,256,0s251.402,110.07,255.854,247.547
	C511.958,250.347,512,253.168,512,256z"/>
<path style="fill:#FFDF5E;" d="M507.57,303.637c-1.014,5.423-2.215,10.794-3.574,16.102c-10.397,40.584-30.49,77.281-57.668,107.468
	C399.464,479.263,331.557,512,256,512c-75.442,0-143.256-32.632-190.109-84.553c-27.293-30.239-47.47-67.02-57.898-107.708
	c-1.358-5.308-2.55-10.679-3.563-16.102H507.57z"/>
<path style="fill:#1F6599;" d="M489.064,300.837l-14.838,43.886l-15.373,45.451c-4.195,12.405-15.833,20.754-28.929,20.754H82.212
	c-13.096,0-24.734-8.35-28.929-20.756l-30.211-89.335H489.064z"/>
<path style="fill:#6095C4;" d="M474.227,344.722l-15.373,45.451c-4.195,12.405-15.833,20.754-28.929,20.754H130.863l-6.865-19.623
	c-7.962-22.768,8.944-46.582,33.061-46.582L474.227,344.722L474.227,344.722z"/>
<path style="fill:#A03510;" d="M319.801,87.312v39.184c0,21.64-17.544,39.184-39.184,39.184h-50.155
	c-10.815,0-20.605-4.389-27.7-11.473c-7.084-7.095-11.473-16.896-11.473-27.711c0-21.64,17.544-39.184,39.173-39.184H319.801z"/>
<path style="fill:#BA4C20;" d="M319.801,87.312v39.184c0,21.64-17.544,39.184-39.184,39.184H259.72
	c-10.815,0-20.605-4.389-27.7-11.473c-7.084-7.095-11.473-16.896-11.473-27.711c0-21.64,17.544-39.184,39.173-39.184H319.801z"/>
<path style="fill:#A03510;" d="M358.985,172.419c0,21.64-17.544,39.184-39.184,39.184H191.289c-10.815,0-20.616-4.389-27.711-11.473
	c-7.084-7.095-11.473-16.886-11.473-27.711c0-21.64,17.544-39.184,39.184-39.184h128.512c10.825,0,20.616,4.389,27.711,11.473
	C354.597,151.803,358.985,161.593,358.985,172.419z"/>
<path style="fill:#BA4C20;" d="M358.985,172.419c0,21.64-17.544,39.184-39.184,39.184H234.13c-10.815,0-20.616-4.389-27.711-11.473
	c-7.084-7.095-11.473-16.886-11.473-27.711c0-21.64,17.544-39.184,39.184-39.184h85.671c10.825,0,20.616,4.389,27.711,11.473
	C354.597,151.803,358.985,161.593,358.985,172.419z"/>
<path style="fill:#A03510;" d="M398.169,225.708c0,21.64-17.544,39.184-39.184,39.184H152.106c-10.815,0-20.616-4.389-27.711-11.473
	c-7.084-7.095-11.473-16.886-11.473-27.711c0-21.64,17.544-39.184,39.184-39.184h206.879c10.825,0,20.616,4.389,27.711,11.473
	C393.78,205.093,398.169,214.883,398.169,225.708z"/>
<g>
	<path style="fill:#BA4C20;" d="M398.169,225.708c0,21.64-17.544,39.184-39.184,39.184H218.979
		c-10.815,0-20.616-4.389-27.711-11.473c-7.084-7.095-11.473-16.886-11.473-27.711c0-21.64,17.544-39.184,39.184-39.184h140.006
		c10.825,0,20.616,4.389,27.711,11.473C393.78,205.093,398.169,214.883,398.169,225.708z"/>
	<path style="fill:#BA4C20;" d="M319.802,87.316V75.629c0-12.948-16.656-18.217-24.103-7.625l0,0
		c-8.512,12.107-22.385,19.313-37.185,19.313h-28.047"/>
</g>
<path style="fill:#6095C4;" d="M512,256c0,22.006-2.779,43.363-8.004,63.739H7.993C2.769,299.363,0,278.006,0,256
	c0-2.832,0.042-5.653,0.146-8.453h511.707C511.958,250.347,512,253.168,512,256z"/>
<g>
	<path style="fill:#FFDF5E;" d="M496.767,67.729L496.767,67.729c-21.832,0-39.53-17.698-39.53-39.53l0,0
		c0-7.044-5.71-12.754-12.754-12.754l0,0c-7.044,0-12.754,5.71-12.754,12.754l0,0c0,21.832-17.698,39.53-39.53,39.53l0,0
		c-7.044,0-12.754,5.71-12.754,12.754l0,0c0,7.044,5.71,12.754,12.754,12.754l0,0c21.832,0,39.53,17.698,39.53,39.53l0,0
		c0,7.044,5.71,12.754,12.754,12.754l0,0c7.044,0,12.754-5.71,12.754-12.754l0,0c0-21.832,17.698-39.53,39.53-39.53l0,0
		c7.044,0,12.754-5.71,12.754-12.754l0,0C509.523,73.44,503.812,67.729,496.767,67.729z"/>
	<path style="fill:#FFDF5E;" d="M125.599,111.615L125.599,111.615c-21.832,0-39.53-17.698-39.53-39.53l0,0
		c0-7.044-5.71-12.754-12.754-12.754l0,0c-7.044,0-12.754,5.71-12.754,12.754l0,0c0,21.832-17.698,39.53-39.53,39.53l0,0
		c-7.044,0-12.754,5.71-12.754,12.754l0,0c0,7.044,5.71,12.754,12.754,12.754l0,0c21.832,0,39.53,17.698,39.53,39.53l0,0
		c0,7.044,5.71,12.754,12.754,12.754l0,0c7.044,0,12.754-5.71,12.754-12.754l0,0c0-21.832,17.698-39.53,39.53-39.53l0,0
		c7.044,0,12.754-5.71,12.754-12.754l0,0C138.353,117.325,132.642,111.615,125.599,111.615z"/>
</g>
<g>
</g>
<g>
</g>
<g>
</g>
<g>
</g>
<g>
</g>
<g>
</g>
<g>
</g>
<g>
</g>
<g>
</g>
<g>
</g>
<g>
</g>
<g>
</g>
<g>
</g>
<g>
</g>
<g>
</g>
</svg>
