<?xml version="1.0" encoding="iso-8859-1"?>
<!-- Generator: Adobe Illustrator 21.0.0, SVG Export Plug-In . SVG Version: 6.00 Build 0)  -->
<svg version="1.1" id="Capa_1" xmlns="http://www.w3.org/2000/svg" xmlns:xlink="http://www.w3.org/1999/xlink" x="0px" y="0px"
	 viewBox="0 0 512 512" style="enable-background:new 0 0 512 512;" xml:space="preserve">
<circle style="fill:#FF8E4F;" cx="256" cy="256" r="256"/>
<g>
	<path style="fill:#E8AA72;" d="M72.003,238.017l16.74,8.857c19.108,10.109,42.304-2.753,43.848-24.316l2.836-39.601"/>
	<path style="fill:#E8AA72;" d="M34.677,197.393L150.964,83.865c11.682-11.41,27.094-18.233,43.405-19.205l163.798-9.822
		c0.073-0.01,0.146-0.01,0.219-0.021c9.707-0.648,18.432-6.186,23.615-14.42l3.365-5.35c3.814,2.226,7.555,4.556,11.233,6.98
		c33.708,22.194,61.858,52.14,81.91,87.301l-22.173,29.508l-1.494-1.536l-30.448,44.032c-15.203,22.016-39.622,36.342-66.351,37.616
		c-1.087,0.042-2.173,0.084-3.25,0.094l-147.31,1.776c-5.402,0.052-10.376-1.682-14.378-4.629c-0.951-0.7-1.86-1.494-2.696-2.33
		c-4.483-4.483-7.178-10.731-6.949-17.586c0.408-12.361,10.23-22.34,22.58-22.925l92.118-4.504
		c5.705-0.272,10.773-2.696,14.493-6.416c4.598-4.598,7.147-11.191,6.301-18.202c-0.115-0.94-0.293-1.87-0.512-2.79h-0.01
		c-2.508-9.979-11.724-17.042-22.277-16.593l-105.848,4.462c-9.404,0.408-18.401,3.981-25.506,10.146l-91.732,79.632
		c-10.564,9.153-26.07,9.174-36.634,0.428c-0.69-0.554-1.358-1.16-1.996-1.808l-0.146-0.146
		C23.277,226.378,23.455,208.375,34.677,197.393z"/>
</g>
<path style="fill:#FEC68B;" d="M43.444,210.067L159.73,96.529c11.682-11.41,27.105-18.233,43.416-19.205l163.788-9.822h0.084
	c8.443-0.261,16.311-4.389,20.814-11.546l3.082-4.901l5.684-9.028c33.708,22.194,61.858,52.14,81.91,87.301l-9.561,12.716
	l-12.612,16.792l-31.943,42.496c-15.203,22.016-39.623,36.342-66.351,37.616c-1.087,0.042-2.173,0.084-3.25,0.094l-147.31,1.776
	c-5.402,0.052-10.376-1.682-14.378-4.629c-0.637-2.299-0.961-4.723-0.878-7.252c0.408-12.351,10.23-22.329,22.58-22.925
	l92.118-4.503c5.705-0.272,10.773-2.685,14.503-6.416c4.598-4.598,7.137-11.191,6.29-18.202c-0.773-6.457-4.284-11.964-9.279-15.454
	h-0.01c-2.508-9.979-11.724-17.042-22.277-16.593l-105.848,4.462c-9.404,0.408-18.401,3.981-25.506,10.146l-91.732,79.632
	c-10.564,9.153-26.07,9.174-36.634,0.428C33.016,229.502,35.367,217.967,43.444,210.067z"/>
<path style="fill:#A03510;" d="M308.248,295.988v39.184c0,21.64-17.544,39.184-39.184,39.184h-50.155
	c-10.815,0-20.605-4.389-27.7-11.473c-7.084-7.095-11.473-16.896-11.473-27.711c0-21.64,17.544-39.184,39.173-39.184H308.248z"/>
<path style="fill:#BA4C20;" d="M308.248,295.988v39.184c0,21.64-17.544,39.184-39.184,39.184h-20.898
	c-10.815,0-20.605-4.389-27.7-11.473c-7.084-7.095-11.473-16.896-11.473-27.711c0-21.64,17.544-39.184,39.173-39.184H308.248z"/>
<path style="fill:#A03510;" d="M347.432,381.095c0,21.64-17.544,39.184-39.184,39.184H179.736c-10.815,0-20.616-4.389-27.711-11.473
	c-7.084-7.095-11.473-16.886-11.473-27.711c0-21.64,17.544-39.184,39.184-39.184h128.512c10.825,0,20.616,4.389,27.711,11.473
	C343.043,360.479,347.432,370.27,347.432,381.095z"/>
<path style="fill:#BA4C20;" d="M347.432,381.095c0,21.64-17.544,39.184-39.184,39.184h-85.671c-10.815,0-20.616-4.389-27.711-11.473
	c-7.084-7.095-11.473-16.886-11.473-27.711c0-21.64,17.544-39.184,39.184-39.184h85.671c10.825,0,20.616,4.389,27.711,11.473
	C343.043,360.479,347.432,370.27,347.432,381.095z"/>
<path style="fill:#A03510;" d="M386.615,434.385c0,21.64-17.544,39.184-39.184,39.184H140.552c-10.815,0-20.616-4.389-27.711-11.473
	c-7.084-7.095-11.473-16.886-11.473-27.711c0-21.64,17.544-39.184,39.184-39.184h206.879c10.825,0,20.616,4.389,27.711,11.473
	C382.227,413.769,386.615,423.56,386.615,434.385z"/>
<g>
	<path style="fill:#BA4C20;" d="M386.615,434.385c0,21.64-17.544,39.184-39.184,39.184H207.426
		c-10.815,0-20.616-4.389-27.711-11.473c-7.084-7.095-11.473-16.886-11.473-27.711c0-21.64,17.544-39.184,39.184-39.184h140.006
		c10.825,0,20.616,4.389,27.711,11.473C382.227,413.769,386.615,423.56,386.615,434.385z"/>
	<path style="fill:#BA4C20;" d="M308.249,295.992v-11.688c0-12.948-16.656-18.217-24.103-7.625l0,0
		c-8.512,12.107-22.385,19.313-37.185,19.313h-28.047"/>
</g>
<g>
</g>
<g>
</g>
<g>
</g>
<g>
</g>
<g>
</g>
<g>
</g>
<g>
</g>
<g>
</g>
<g>
</g>
<g>
</g>
<g>
</g>
<g>
</g>
<g>
</g>
<g>
</g>
<g>
</g>
</svg>
