<?xml version="1.0" encoding="iso-8859-1"?>
<!-- Generator: Adobe Illustrator 21.0.0, SVG Export Plug-In . SVG Version: 6.00 Build 0)  -->
<svg version="1.1" id="Capa_1" xmlns="http://www.w3.org/2000/svg" xmlns:xlink="http://www.w3.org/1999/xlink" x="0px" y="0px"
	 viewBox="0 0 512 512" style="enable-background:new 0 0 512 512;" xml:space="preserve">
<circle style="fill:#BA4C20;" cx="256" cy="256" r="256"/>
<path style="fill:#C6C6C6;" d="M490.151,359.633c-7.461,16.854-16.687,32.737-27.449,47.428C416.131,470.685,340.887,512,256,512
	S95.869,470.685,49.288,407.061c-10.752-14.691-19.978-30.574-27.439-47.417C74,286.647,159.441,239.052,256,239.052
	S438,286.636,490.151,359.633z"/>
<path style="fill:#D8D8D8;" d="M71.411,107.846c8.595,25.901,25.983,64.508,55.105,73.196h0.011l64.355-81.474
	c0,0-32.482-43.958-106.251-58.009c0,0-0.317,0.351-0.855,0.996C68.555,60.657,63.964,85.4,71.411,107.846z"/>
<path style="fill:#F9B7D2;" d="M71.411,107.846c8.595,25.901,25.983,64.508,55.105,73.196h0.011l17.529-24.286
	c-3.22-61.627-60.28-114.202-60.28-114.202C68.555,60.657,63.964,85.4,71.411,107.846z"/>
<path style="fill:#C6C6C6;" d="M440.582,107.846c-8.595,25.901-25.983,64.508-55.105,73.196h-0.011l-64.355-81.474
	c0,0,32.482-43.958,106.251-58.009c0,0,0.317,0.351,0.855,0.996C443.439,60.657,448.029,85.4,440.582,107.846z"/>
<path style="fill:#F9B7D2;" d="M440.582,107.846c-8.595,25.901-25.983,64.508-55.105,73.196h-0.011l-17.529-24.286
	c3.22-61.627,60.28-114.202,60.28-114.202C443.439,60.657,448.029,85.4,440.582,107.846z"/>
<g>
	<polyline style="fill:#FFFFFF;" points="212.744,394.909 231.094,444.713 250.463,444.713 250.463,343.998 	"/>
	<polyline style="fill:#FFFFFF;" points="299.248,394.909 280.899,444.713 261.531,444.713 261.531,343.998 	"/>
</g>
<path style="fill:#D8D8D8;" d="M441.937,306.835l-78.727,78.727c-6.561,6.561-14.291,11.683-22.707,15.178
	c-8.416,3.482-17.503,5.324-26.793,5.324c-18.848,0-36.903-7.609-50.078-21.093l-7.636-7.811l-7.636,7.811
	c-6.588,6.735-14.399,12.018-22.908,15.609c-8.523,3.576-17.745,5.485-27.169,5.485c-18.566,0-36.379-7.38-49.5-20.502
	l-78.727-78.727c-13.712-13.712-15.447-35.33-4.1-51.059l109.795-152.103c10.714-14.828,27.896-23.621,46.193-23.621h68.106
	c18.297,0,35.477,8.792,46.193,23.621l109.795,152.103C457.384,271.505,455.65,293.123,441.937,306.835z"/>
<path style="fill:#C6C6C6;" d="M170.858,307.252c-2.612-5.115-4.672-10.45-6.251-15.954l30.445,4.302l40.331-23.665l-14.777-12.863
	c-9.943-8.655-15.517-21.288-15.208-34.466l0.303-12.902c0.194-8.304-1.948-16.496-6.185-23.641l0,0
	c-8.409-14.184-8.203-31.842,0.416-45.9c22.215-36.229,47.829-62.112,59.653-62.112h-37.642c-18.297,0-35.477,8.792-46.193,23.621
	L65.956,255.776c-11.347,15.729-9.612,37.347,4.1,51.059l78.727,78.727c13.121,13.121,30.934,20.502,49.5,20.502
	c9.424,0,18.646-1.909,27.169-5.485c8.51-3.589,16.32-8.873,22.908-15.609l7.636-7.811
	C255.997,377.159,213.877,391.503,170.858,307.252z"/>
<g>
	<path style="fill:#EAEAEA;" d="M441.937,306.835l-78.727,78.727c-6.561,6.561-14.291,11.683-22.707,15.178
		c-8.416,3.482-17.503,5.324-26.793,5.324c-18.848,0-36.903-7.609-50.078-21.093l-7.636-7.811l-7.636,7.811
		c-6.588,6.735-14.399,12.018-22.908,15.609c-8.523,3.576-17.745,5.485-27.169,5.485c-18.566,0-36.379-7.38-49.5-20.502
		l-78.727-78.727l14.532-3.751c10.714-2.769,21.483-5.27,32.292-7.501c0.014,0,0.014,0,0.014,0
		c14.949-3.105,29.967-5.686,45.036-7.771c0.551-0.08,1.116-0.161,1.68-0.229c15.823-2.151,31.7-3.751,47.618-4.786
		c29.805-1.962,59.731-1.962,89.535,0c16.482,1.075,32.924,2.743,49.298,5.014c15.071,2.083,30.087,4.665,45.036,7.771
		c0,0,0,0,0.014,0c10.808,2.232,21.577,4.732,32.292,7.501L441.937,306.835z"/>
	<path style="fill:#EAEAEA;" d="M428.211,320.561c-5.592,1.95-9.989,2.823-9.989,2.823l-134.438-18.822h-55.576l-54.743,7.663
		L93.77,323.384c0,0-4.396-0.874-9.989-2.823c-11.374-3.953-27.708-12.328-22.37-26.713c6.467-17.396,38.892-5.459,50.951-0.309
		c-5.216-2.931-11.938-9.075-2.46-18.552c9.841-9.827,31.808,0.685,43.813,7.663c-4.813-4.181-8.577-10.634-0.793-18.418
		c1.989-1.989,4.611-3.025,7.636-3.348c12.099-1.277,30.705,8.981,41.689,15.891c-3.509-3.63-6.144-8.954-3.616-16.132
		c5.377-15.231,57.364,8.967,57.364,8.967s51.987-24.199,57.364-8.967c2.528,7.178-0.108,12.502-3.616,16.132
		c13.726-8.644,39.363-22.491,49.325-12.543c7.783,7.783,4.02,14.237-0.793,18.418c12.005-6.977,33.972-17.491,43.813-7.663
		c9.478,9.478,2.756,15.621-2.46,18.552c12.059-5.149,44.485-17.087,50.951,0.309C455.918,308.233,439.584,316.609,428.211,320.561z
		"/>
	<ellipse style="fill:#EAEAEA;" cx="256" cy="271.935" rx="20.614" ry="24.283"/>
</g>
<path style="fill:#D8D8D8;" d="M225.452,400.578c-8.523,3.576-17.745,5.485-27.169,5.485c-18.566,0-36.379-7.38-49.5-20.502l-65-65
	c-11.374-3.953-27.708-12.328-22.37-26.713c6.467-17.396,38.892-5.459,50.951-0.309c-5.216-2.931-11.938-9.075-2.46-18.552
	c9.841-9.827,31.808,0.685,43.813,7.663c-4.813-4.181-8.577-10.634-0.793-18.418c1.99-1.989,4.611-3.025,7.636-3.348
	C160.56,354.753,225.452,400.578,225.452,400.578z"/>
<ellipse style="fill:#3C363F;" cx="298.517" cy="214.883" rx="20.431" ry="31.799"/>
<ellipse style="fill:#5C5560;" cx="305.748" cy="212.208" rx="6.669" ry="16.226"/>
<ellipse style="fill:#3C363F;" cx="213.483" cy="214.883" rx="20.431" ry="31.799"/>
<ellipse style="fill:#5C5560;" cx="220.714" cy="212.208" rx="6.669" ry="16.226"/>
<path style="fill:#E86523;" d="M290.454,347.306c-20.677-14.279-48.238-14.279-68.915,0c-4.789,3.307-5.409,10.153-1.294,14.269
	l18.334,18.334c9.619,9.619,25.215,9.619,34.835,0l18.334-18.334C295.863,357.46,295.243,350.613,290.454,347.306z"/>
<ellipse style="fill:#FF8E4F;" cx="264.955" cy="355.203" rx="15.237" ry="8.515"/>
<g>
</g>
<g>
</g>
<g>
</g>
<g>
</g>
<g>
</g>
<g>
</g>
<g>
</g>
<g>
</g>
<g>
</g>
<g>
</g>
<g>
</g>
<g>
</g>
<g>
</g>
<g>
</g>
<g>
</g>
</svg>
