<?xml version="1.0" encoding="iso-8859-1"?>
<!-- Generator: Adobe Illustrator 21.0.0, SVG Export Plug-In . SVG Version: 6.00 Build 0)  -->
<svg version="1.1" id="Capa_1" xmlns="http://www.w3.org/2000/svg" xmlns:xlink="http://www.w3.org/1999/xlink" x="0px" y="0px"
	 viewBox="0 0 512 512" style="enable-background:new 0 0 512 512;" xml:space="preserve">
<path style="fill:#60C5E8;" d="M511.967,256.033c0,26.495-4.022,52.05-11.492,76.08c-14.501,46.638-41.968,87.551-78.201,118.528
	C377.548,488.9,319.48,512,256,512s-121.548-23.1-166.274-61.359c-14.052-12.004-26.777-25.513-37.935-40.265
	c-17.646-23.298-31.385-49.71-40.265-78.263c-7.47-24.03-11.492-49.584-11.492-76.08c0-26.495,4.022-52.05,11.492-76.08
	c6.101-19.61,14.491-38.207,24.865-55.487c5.182-8.63,10.855-16.936,16.988-24.865C100.194,39.056,173.547,0.066,256,0.066
	S411.806,39.056,458.621,99.6c18.398,23.8,32.701,50.943,41.853,80.353C507.945,203.983,511.967,229.538,511.967,256.033z"/>
<polygon style="fill:#3C363F;" points="349.528,134.886 258.993,44.352 168.459,134.886 146.297,112.724 258.993,0.027 
	371.691,112.724 "/>
<path style="fill:#BA4C20;" d="M500.475,99.6v232.512c-14.501,46.638-41.968,87.551-78.201,118.528H89.726
	c-36.232-30.977-63.699-71.89-78.201-118.528V99.6H500.475z"/>
<rect x="53.314" y="141.388" style="fill:#EAEAEA;" width="405.368" height="267.46"/>
<g>
	<circle style="fill:#D8D8D8;" cx="256.405" cy="314.234" r="69.696"/>
	<circle style="fill:#D8D8D8;" cx="215.566" cy="194.525" r="28.982"/>
	<circle style="fill:#D8D8D8;" cx="150.289" cy="245.394" r="28.982"/>
	<circle style="fill:#D8D8D8;" cx="363.953" cy="247.672" r="28.982"/>
	<circle style="fill:#D8D8D8;" cx="299.784" cy="195.423" r="28.982"/>
</g>
<g>
	<rect x="119.291" y="188.872" style="fill:#3C363F;" width="274.24" height="25.856"/>
	<rect x="119.291" y="275.839" style="fill:#3C363F;" width="274.24" height="25.856"/>
	<rect x="119.291" y="323.898" style="fill:#3C363F;" width="274.24" height="25.856"/>
</g>
<g>
	<circle style="fill:#EA5A52;" cx="385.444" cy="367.433" r="25.833"/>
	<circle style="fill:#EA5A52;" cx="396.905" cy="321.975" r="10.742"/>
	<circle style="fill:#EA5A52;" cx="366.346" cy="324.619" r="10.742"/>
	<circle style="fill:#EA5A52;" cx="432.312" cy="368.436" r="10.742"/>
	<circle style="fill:#EA5A52;" cx="422.909" cy="339.245" r="10.742"/>
</g>
<path style="fill:#A03510;" d="M53.316,141.391v267.46l-1.525,1.525c-17.646-23.298-31.385-49.71-40.265-78.263V99.6L53.316,141.391
	z"/>
<circle style="fill:#EA5A52;" cx="258.996" cy="30.646" r="30.646"/>
<g>
</g>
<g>
</g>
<g>
</g>
<g>
</g>
<g>
</g>
<g>
</g>
<g>
</g>
<g>
</g>
<g>
</g>
<g>
</g>
<g>
</g>
<g>
</g>
<g>
</g>
<g>
</g>
<g>
</g>
</svg>
