<?xml version="1.0" encoding="iso-8859-1"?>
<!-- Generator: Adobe Illustrator 21.0.0, SVG Export Plug-In . SVG Version: 6.00 Build 0)  -->
<svg version="1.1" id="Capa_1" xmlns="http://www.w3.org/2000/svg" xmlns:xlink="http://www.w3.org/1999/xlink" x="0px" y="0px"
	 viewBox="0 0 512.002 512.002" style="enable-background:new 0 0 512.002 512.002;" xml:space="preserve">
<circle style="fill:#FFDF5E;" cx="257.187" cy="257.187" r="254.815"/>
<path style="fill:#EA5A52;" d="M475.559,388.575c-13.854,22.975-31.233,43.589-51.379,61.083
	c-6.896,5.98-14.114,11.607-21.633,16.839h-0.01c-3.983-2.871-7.644-6.355-10.848-10.432l-71.452-91.005l-33.074-42.143
	l46.969-46.969l39.543,31.035l93.595,73.501C470.39,382.927,473.157,385.652,475.559,388.575z"/>
<path style="fill:#D33531;" d="M424.18,449.658c-6.896,5.98-14.114,11.607-21.633,16.839c-3.994-2.871-7.655-6.355-10.858-10.442
	l-71.442-90.995h-0.01l-33.074-42.143v-0.01l11.867-11.867h0.01l35.092-35.092l39.543,31.035
	c-2.299,3.879-6.178,9.121-10.619,14.675c-14.967,18.742-14.134,45.586,1.789,63.527l45.95,51.764
	C415.028,441.722,419.552,445.976,424.18,449.658z"/>
<circle style="fill:#6095C4;" cx="189.167" cy="189.167" r="189.167"/>
<path style="fill:#82DCF4;" d="M291.354,291.36c-5.367,5.377-11.045,10.234-16.995,14.571
	c-56.517,41.363-136.311,36.506-187.388-14.571c-1.269-1.269-2.517-2.559-3.713-3.869c-6.24-6.698-11.721-13.843-16.423-21.332
	c-31.337-49.684-29.486-114.292,5.554-162.198c4.347-5.939,9.205-11.618,14.571-16.995c56.444-56.434,147.97-56.434,204.404,0
	c16.256,16.256,27.832,35.425,34.717,55.82c3.027,8.955,5.148,18.139,6.365,27.426C338.105,213.241,324.407,258.317,291.354,291.36z
	"/>
<path style="fill:#60C5E8;" d="M259.803,118.535c51.081,51.081,55.934,130.864,14.559,187.398
	c-56.524,41.364-136.319,36.501-187.389-14.569S31.041,160.5,72.395,103.966C128.929,62.591,208.723,67.454,259.803,118.535z"/>
<g>
	<circle style="fill:#BA4C20;" cx="190.623" cy="222.105" r="58.472"/>
	<circle style="fill:#BA4C20;" cx="156.353" cy="121.667" r="24.316"/>
	<circle style="fill:#BA4C20;" cx="101.604" cy="164.351" r="24.316"/>
	<circle style="fill:#BA4C20;" cx="280.859" cy="166.254" r="24.316"/>
	<circle style="fill:#BA4C20;" cx="227.014" cy="122.426" r="24.316"/>
</g>
<g>
</g>
<g>
</g>
<g>
</g>
<g>
</g>
<g>
</g>
<g>
</g>
<g>
</g>
<g>
</g>
<g>
</g>
<g>
</g>
<g>
</g>
<g>
</g>
<g>
</g>
<g>
</g>
<g>
</g>
</svg>
