<?xml version="1.0" encoding="iso-8859-1"?>
<!-- Generator: Adobe Illustrator 21.0.0, SVG Export Plug-In . SVG Version: 6.00 Build 0)  -->
<svg version="1.1" id="Capa_1" xmlns="http://www.w3.org/2000/svg" xmlns:xlink="http://www.w3.org/1999/xlink" x="0px" y="0px"
	 viewBox="0 0 512 512" style="enable-background:new 0 0 512 512;" xml:space="preserve">
<path style="fill:#6095C4;" d="M510.957,256c0,7.362-0.313,14.651-0.928,21.856c-6.549,77.301-47.519,144.799-107.52,187.094
	c-41.575,29.323-92.296,46.528-147.031,46.528c-22.013,0-43.379-2.784-63.755-8.019c-30.292-7.779-58.416-20.981-83.276-38.509
	C42.847,418.714,0,342.362,0,256c0-6.184,0.219-12.305,0.657-18.374C10.073,105.101,120.565,0.521,255.479,0.521
	C396.576,0.521,510.957,114.903,510.957,256z"/>
<rect x="234.613" y="27.915" style="fill:#D8D8D8;" width="41.732" height="71.951"/>
<g>
	<rect x="184.57" y="79.011" style="fill:#EAEAEA;" width="141.817" height="81.336"/>
	<path style="fill:#EAEAEA;" d="M510.029,277.856c-6.549,77.301-47.519,144.799-107.52,187.094
		c-41.575,29.323-92.296,46.528-147.031,46.528c-22.013,0-43.369-2.784-63.745-8.019h-0.01C81.472,475.138,0,375.084,0,256
		c0-6.184,0.219-12.305,0.657-18.374c6.83-4.056,14.807-6.371,23.327-6.371c9.614,0,18.53,2.961,25.902,8.008
		c9.729-17.55,28.426-29.427,49.907-29.427c31.513,0,57.05,25.537,57.05,57.04c0,9.75-2.451,18.916-6.757,26.945h169.919
		c-0.396-2.722-0.605-5.506-0.605-8.342c0-31.502,25.537-57.04,57.04-57.04c9.395,0,18.259,2.273,26.069,6.298
		c14.369,7.393,25.183,20.709,29.229,36.726c9.52-8.78,22.232-14.14,36.205-14.14C485.044,257.324,500.258,265.354,510.029,277.856z
		"/>
</g>
<rect x="184.57" y="79.011" style="fill:#D8D8D8;" width="48.989" height="81.336"/>
<rect x="210.681" y="0.522" style="fill:#EAEAEA;" width="89.584" height="51.377"/>
<rect x="210.681" y="0.522" style="fill:#D8D8D8;" width="30.944" height="51.377"/>
<path style="fill:#3AA5C9;" d="M402.509,182.088V464.95c-41.575,29.323-92.296,46.528-147.031,46.528
	c-22.013,0-43.379-2.784-63.755-8.019c-30.292-7.779-58.416-20.981-83.276-38.509V182.088c0-24.255,19.667-43.921,43.921-43.921
	h206.218C382.843,138.167,402.509,157.834,402.509,182.088z"/>
<path style="fill:#60C5E8;" d="M402.509,182.088V464.95c-41.575,29.323-92.296,46.528-147.031,46.528
	c-22.013,0-43.369-2.784-63.745-8.019h-0.01c-11.262-7.946-18.624-21.064-18.624-35.903V182.088
	c0-24.255,19.667-43.921,43.921-43.921h141.566C382.843,138.167,402.509,157.834,402.509,182.088z"/>
<g>
	<circle style="fill:#FFFFFF;" cx="254.957" cy="356.262" r="50.633"/>
	<circle style="fill:#FFFFFF;" cx="225.28" cy="269.306" r="21.054"/>
	<circle style="fill:#FFFFFF;" cx="177.865" cy="306.262" r="21.054"/>
	<circle style="fill:#FFFFFF;" cx="333.082" cy="307.909" r="21.054"/>
	<circle style="fill:#FFFFFF;" cx="286.47" cy="269.952" r="21.054"/>
</g>
<path style="fill:#D8D8D8;" d="M512,112.379c0,17.873-12.503,32.837-29.239,36.622c-2.669,0.594-5.443,0.918-8.3,0.918
	c-20.73,0-37.54-16.809-37.54-37.54s16.809-37.54,37.54-37.54c2.857,0,5.631,0.323,8.3,0.918C499.497,79.542,512,94.506,512,112.379
	z"/>
<path style="fill:#EAEAEA;" d="M512,112.379c0,17.873-12.503,32.837-29.239,36.622c-16.736-3.785-29.239-18.749-29.239-36.622
	s12.503-32.837,29.239-36.622C499.497,79.542,512,94.506,512,112.379z"/>
<path style="fill:#D8D8D8;" d="M108.803,117.364c0,22.555-15.339,41.534-36.153,47.05c-3.994,1.064-8.186,1.627-12.513,1.627
	c-26.883,0-48.676-21.794-48.676-48.677c0-26.872,21.794-48.666,48.676-48.666c4.327,0,8.519,0.563,12.513,1.627
	C93.463,75.841,108.803,94.819,108.803,117.364z"/>
<path style="fill:#EAEAEA;" d="M108.803,117.364c0,22.555-15.339,41.534-36.153,47.05c-20.814-5.516-36.163-24.495-36.163-47.05
	c0-22.545,15.35-41.523,36.163-47.039C93.463,75.841,108.803,94.819,108.803,117.364z"/>
<path style="fill:#D8D8D8;" d="M413.98,56.07c0,7.675-4.609,14.276-11.21,17.174c-2.315,1.032-4.87,1.595-7.56,1.595
	c-10.365,0-18.77-8.405-18.77-18.77s8.405-18.77,18.77-18.77c2.69,0,5.245,0.563,7.56,1.595
	C409.371,41.794,413.98,48.395,413.98,56.07z"/>
<path style="fill:#EAEAEA;" d="M413.98,56.07c0,7.675-4.609,14.276-11.21,17.174c-6.601-2.899-11.21-9.5-11.21-17.174
	s4.609-14.276,11.21-17.174C409.371,41.794,413.98,48.395,413.98,56.07z"/>
<g>
</g>
<g>
</g>
<g>
</g>
<g>
</g>
<g>
</g>
<g>
</g>
<g>
</g>
<g>
</g>
<g>
</g>
<g>
</g>
<g>
</g>
<g>
</g>
<g>
</g>
<g>
</g>
<g>
</g>
</svg>
