<?xml version="1.0" encoding="iso-8859-1"?>
<!-- Generator: Adobe Illustrator 21.0.0, SVG Export Plug-In . SVG Version: 6.00 Build 0)  -->
<svg version="1.1" id="Capa_1" xmlns="http://www.w3.org/2000/svg" xmlns:xlink="http://www.w3.org/1999/xlink" x="0px" y="0px"
	 viewBox="0 0 512 512" style="enable-background:new 0 0 512 512;" xml:space="preserve">
<path style="fill:#6EB585;" d="M437.019,437.019c-37.187,37.187-82.951,60.534-130.932,70.051
	c-28.091,5.586-56.944,6.421-85.264,2.512c-24.049-3.318-47.723-10.056-70.22-20.215c-18.095-8.165-35.436-18.545-51.616-31.136
	c-1.818-1.419-3.628-2.859-5.416-4.337c-6.405-5.268-12.605-10.891-18.59-16.875c-2.187-2.187-4.33-4.403-6.414-6.65
	c-3.635-3.901-7.122-7.876-10.463-11.94c-1.477-1.788-2.918-3.599-4.337-5.416c-12.59-16.181-22.971-33.521-31.136-51.616
	c-10.16-22.498-16.898-46.171-20.215-70.22c-3.909-28.32-3.074-57.173,2.512-85.264c9.517-47.982,32.864-93.746,70.051-130.932
	s82.951-60.534,130.932-70.051c28.091-5.586,56.944-6.421,85.264-2.512c24.049,3.318,47.723,10.056,70.22,20.215
	c18.094,8.165,35.436,18.545,51.616,31.135c1.818,1.419,3.628,2.859,5.416,4.337c4.064,3.339,8.038,6.827,11.94,10.463
	c2.247,2.084,4.463,4.227,6.65,6.414c5.985,5.985,11.608,12.184,16.875,18.59c1.478,1.788,2.918,3.599,4.337,5.416
	c12.59,16.181,22.971,33.521,31.135,51.616c10.16,22.498,16.898,46.171,20.215,70.221c3.909,28.32,3.074,57.173-2.512,85.264
	C497.553,354.068,474.206,399.832,437.019,437.019z"/>
<g>
	<path style="fill:#7AC48F;" d="M291.176,2.418L2.418,291.176c-3.909-28.32-3.074-57.173,2.512-85.264L205.913,4.93
		C234.004-0.656,262.857-1.491,291.176,2.418z"/>
	<path style="fill:#7AC48F;" d="M413.014,53.768L53.768,413.014c-12.59-16.181-22.971-33.521-31.136-51.616L361.398,22.632
		C379.492,30.797,396.833,41.178,413.014,53.768z"/>
	<path style="fill:#7AC48F;" d="M489.367,150.602L150.602,489.367c-18.094-8.165-35.436-18.545-51.616-31.136L458.232,98.986
		C470.822,115.167,481.203,132.508,489.367,150.602z"/>
	<path style="fill:#7AC48F;" d="M507.07,306.087L306.087,507.07c-28.091,5.586-56.944,6.421-85.264,2.512l288.759-288.759
		C513.491,249.143,512.656,277.996,507.07,306.087z"/>
</g>
<path style="fill:#EA5A52;" d="M281.078,0v510.788C272.823,511.592,264.464,512,256,512c-3.093,0-6.175-0.052-9.237-0.167
	c-5.329-0.188-10.606-0.533-15.841-1.045V0H281.078z"/>
<path style="fill:#D33531;" d="M281.075,209.437h-34.312V0h-15.841v209.437h-0.005v167.595h0.005v133.755
	c5.235,0.512,10.512,0.857,15.841,1.045V377.034h34.312L281.075,209.437L281.075,209.437z"/>
<path style="fill:#6095C4;" d="M392.764,22.989H119.23c-19.166,0-34.702,15.537-34.702,34.702v249.571
	c0,19.166,15.537,34.702,34.702,34.702h273.532c19.166,0,34.702-15.537,34.702-34.702V57.691
	C427.465,38.525,411.928,22.989,392.764,22.989z"/>
<path style="fill:#FFFFFF;" d="M406.57,57.689v249.574c0,7.607-6.196,13.803-13.803,13.803H119.233
	c-7.617,0-13.803-6.196-13.803-13.803V57.689c0-7.607,6.186-13.803,13.803-13.803h273.533
	C400.374,43.886,406.57,50.082,406.57,57.689z"/>
<path style="fill:#A03510;" d="M319.908,137.712l-4.104-70.989c-0.271-4.679-6.195-6.523-9.074-2.825l-34.036,43.717"/>
<path style="fill:#BA4C20;" d="M330.512,321.066h-164.77c-0.251-0.178-0.491-0.376-0.742-0.564l12.309-212.888h126.589
	c8.004,0,14.629,6.248,15.088,14.242l0.919,15.851L330.512,321.066z"/>
<path style="fill:#A03510;" d="M212.281,321.066h-46.54c-0.251-0.178-0.491-0.376-0.742-0.564l12.309-212.888h30.71L212.281,321.066
	z"/>
<ellipse style="fill:#3C363F;" cx="302.184" cy="155.24" rx="11.546" ry="17.975"/>
<ellipse style="fill:#5C5560;" cx="306.28" cy="153.725" rx="3.769" ry="9.172"/>
<path style="fill:#BA4C20;" d="M222.782,107.617l-20.512,13.072l-6.529,4.161l-5.006,3.196c-6.332,4.003-14.565-0.837-14.127-8.33
	l3.061-52.996c0.272-4.674,6.196-6.521,9.076-2.826L222.782,107.617z"/>
<ellipse style="fill:#3C363F;" cx="254.119" cy="155.24" rx="11.546" ry="17.975"/>
<ellipse style="fill:#5C5560;" cx="258.215" cy="153.725" rx="3.769" ry="9.172"/>
<path style="fill:#D8D8D8;" d="M243.218,177.473h115.331v69.128c0,10.207-6.05,19.443-15.406,23.522l-42.752,18.636
	c-16.02,6.983-34.554-1.516-39.714-18.213l-25.429-82.268C233.588,182.913,237.6,177.473,243.218,177.473z"/>
<path style="fill:#EAEAEA;" d="M340.775,198.676v53.018c0,11.813-6.996,22.503-17.821,27.229c-0.007,0-0.007,0.007-0.015,0.007
	l-22.548,9.83c-16.019,6.981-34.557-1.515-39.713-18.214l-25.428-82.268c-1.658-5.368,2.352-10.811,7.968-10.811h92.844
	L340.775,198.676z"/>
<path style="fill:#3C363F;" d="M354.779,177.473h-34.174c-6.522,0-11.811,5.287-11.811,11.81l0,0c0,6.522,5.287,11.81,11.811,11.81
	h34.174c6.522,0,11.81-5.287,11.81-11.81l0,0C366.589,182.761,361.302,177.473,354.779,177.473z"/>
<path style="fill:#5C5560;" d="M356.914,181.243h-17.087c-3.261,0-5.905,2.644-5.905,5.905l0,0c0,3.261,2.644,5.905,5.905,5.905
	h17.087c3.261,0,5.905-2.644,5.905-5.905l0,0C362.82,183.886,360.176,181.243,356.914,181.243z"/>
<g>
	<circle style="fill:#D8D8D8;" cx="275.55" cy="234.36" r="9.047"/>
	<circle style="fill:#D8D8D8;" cx="308.214" cy="234.36" r="9.047"/>
	<circle style="fill:#D8D8D8;" cx="293.146" cy="253.962" r="9.047"/>
</g>
<path style="fill:#F9B7D2;" d="M202.271,120.688l-6.533,4.164l-5.003,3.195c-0.178,0.112-0.354,0.218-0.537,0.313
	c-0.029,0.018-0.06,0.029-0.089,0.047c-6.231,3.325-13.927-1.441-13.502-8.695l3.059-52.992c0.272-4.678,6.196-6.52,9.078-2.83
	c2.628,6.408,6.462,16.455,10.071,26.07c1.016,2.705,2.008,5.369,2.959,7.914c1.63,4.395,3.119,8.417,4.288,11.594
	C207.593,113.642,206.016,118.296,202.271,120.688z"/>
<g>
</g>
<g>
</g>
<g>
</g>
<g>
</g>
<g>
</g>
<g>
</g>
<g>
</g>
<g>
</g>
<g>
</g>
<g>
</g>
<g>
</g>
<g>
</g>
<g>
</g>
<g>
</g>
<g>
</g>
</svg>
