<?xml version="1.0" encoding="iso-8859-1"?>
<!-- Generator: Adobe Illustrator 21.0.0, SVG Export Plug-In . SVG Version: 6.00 Build 0)  -->
<svg version="1.1" id="Capa_1" xmlns="http://www.w3.org/2000/svg" xmlns:xlink="http://www.w3.org/1999/xlink" x="0px" y="0px"
	 viewBox="0 0 512 512" style="enable-background:new 0 0 512 512;" xml:space="preserve">
<path style="fill:#FF8E4F;" d="M512,256c0,28.975-4.817,56.832-13.688,82.808c-2.456,7.199-5.235,14.252-8.307,21.149
	c-22.915,51.513-62.349,94.063-111.564,120.916C342.068,500.715,300.345,512,256,512c-9.759,0-19.393-0.543-28.881-1.609
	c-33.593-3.772-65.212-14.043-93.592-29.539h-0.01C84.313,453.987,44.899,411.46,21.985,359.946
	c-3.072-6.886-5.841-13.939-8.296-21.138C4.817,312.832,0,284.975,0,256c0-10.961,0.69-21.776,2.027-32.371
	c1.16-9.195,2.811-18.223,4.921-27.084c5.392-22.716,13.824-44.262,24.837-64.188c6.635-12.016,14.211-23.437,22.622-34.168
	c36.143-46.101,87.761-79.496,147.028-92.359c5.851-1.275,11.776-2.341,17.763-3.197C231.215,0.899,243.503,0,256,0
	c12.497,0,24.785,0.899,36.801,2.633c5.987,0.857,11.912,1.923,17.753,3.197c59.267,12.863,110.885,46.247,147.028,92.348
	c8.411,10.731,15.987,22.152,22.622,34.168c11.013,19.926,19.446,41.472,24.848,64.188c2.111,8.861,3.762,17.889,4.921,27.084
	C511.31,234.224,512,245.029,512,256z"/>
<path style="fill:#3C363F;" d="M346.509,263.199l151.803,75.609c-2.456,7.199-5.235,14.252-8.307,21.149l-194.226-96.758h-79.559
	L21.985,359.946c-3.072-6.886-5.841-13.939-8.296-21.138l151.803-75.609H46.279c-2.999,0-5.883-1.202-7.993-3.312L2.027,223.629
	c1.16-9.195,2.811-18.223,4.921-27.084l44.011,44.022h111.815L38.296,182.23c-3.971-1.86-6.51-5.862-6.51-10.24V79.611
	c0-6.259,5.068-11.316,11.306-11.316c6.248,0,11.316,5.057,11.316,11.316v85.191l115.419,54.094L127.885,88.054
	c-1.296-4.044-0.23-8.453,2.769-11.452l70.781-70.771l0.825-0.825l1.693-1.693C206.148,1.108,209.053,0,211.947,0
	c2.445,0,4.901,0.784,6.928,2.372c0.115,0.084,0.219,0.167,0.324,0.261c0.261,0.209,0.502,0.439,0.742,0.679
	c4.42,4.42,4.42,11.577,0,15.997l-68.399,68.409l46.237,144.28l18.296,8.568h79.851l18.296-8.568l46.247-144.28l-68.42-68.409
	c-4.42-4.42-4.42-11.577,0-15.997c0.24-0.24,0.491-0.47,0.752-0.679c0.104-0.094,0.209-0.178,0.313-0.261
	C295.142,0.784,297.587,0,300.042,0c2.894,0,5.789,1.108,7.993,3.312l2.518,2.518l70.781,70.771
	c2.999,2.999,4.075,7.408,2.769,11.452l-41.932,130.842l115.409-54.094V79.611c0-6.259,5.068-11.316,11.306-11.316
	c6.249,0,11.316,5.057,11.316,11.316v92.379c0,4.378-2.539,8.38-6.51,10.24l-124.468,58.337H461.03l44.022-44.032
	c2.111,8.861,3.762,17.889,4.921,27.084l-36.268,36.268c-2.111,2.111-4.995,3.312-8.004,3.312H346.509z"/>
<g>
	<path style="fill:#FFFFFF;" d="M238.942,121.858c-2.895,0-5.79,1.104-7.999,3.313c-12.599,12.599-17.577,30.443-13.316,47.733
		c1.495,6.066,7.629,9.77,13.69,8.277c6.066-1.495,9.772-7.625,8.277-13.69c-2.349-9.533,0.397-19.373,7.347-26.323
		c4.418-4.417,4.418-11.58,0-15.997C244.732,122.963,241.836,121.858,238.942,121.858z"/>
	<path style="fill:#FFFFFF;" d="M273.058,121.858c-2.894,0-5.79,1.104-8,3.313c-4.417,4.417-4.417,11.58,0,15.997
		c6.951,6.95,9.698,16.79,7.349,26.323c-1.495,6.066,2.211,12.195,8.277,13.69c6.066,1.492,12.196-2.211,13.69-8.277
		c4.261-17.29-0.717-35.134-13.316-47.733C278.848,122.963,275.952,121.858,273.058,121.858z"/>
</g>
<path style="fill:#5C5560;" d="M256,271.311c31.703,0,57.419-25.716,57.419-57.419c0-21.794-12.142-40.753-30.029-50.481
	c-8.145-4.419-17.481-6.938-27.39-6.938c-9.924,0-19.245,2.519-27.39,6.938c-17.888,9.728-30.029,28.687-30.029,50.481
	C198.581,245.595,224.282,271.311,256,271.311z"/>
<path style="fill:#3C363F;" d="M274.184,163.411c-17.888,9.728-30.029,28.687-30.029,50.481c0,23.607,14.255,43.886,34.629,52.708
	c-6.986,3.025-14.688,4.711-22.784,4.711c-31.719,0-57.419-25.716-57.419-57.419c0-21.794,12.142-40.753,30.029-50.481
	c8.145-4.419,17.465-6.938,27.39-6.938c8.095,0,15.794,1.704,22.786,4.728C277.22,161.879,275.676,162.601,274.184,163.411z"/>
<path style="fill:#5C5560;" d="M403.216,399.099c0,30.26-9.122,58.378-24.775,81.774C342.068,500.715,300.345,512,256,512
	c-44.356,0-86.089-11.285-122.472-31.148c-15.642-23.385-24.764-51.503-24.764-81.753c0-81.314,65.923-147.216,147.237-147.216
	S403.216,317.785,403.216,399.099z"/>
<path style="fill:#3C363F;" d="M227.119,510.391c-33.593-3.772-65.212-14.043-93.592-29.539h-0.01
	c-15.632-23.385-24.754-51.503-24.754-81.753c0-81.314,65.923-147.216,147.237-147.216c11.609,0,22.915,1.348,33.75,3.887
	c-65.045,15.256-113.486,73.634-113.486,143.329C176.264,443.549,195.971,483.401,227.119,510.391z"/>
<g>
</g>
<g>
</g>
<g>
</g>
<g>
</g>
<g>
</g>
<g>
</g>
<g>
</g>
<g>
</g>
<g>
</g>
<g>
</g>
<g>
</g>
<g>
</g>
<g>
</g>
<g>
</g>
<g>
</g>
</svg>
