<?xml version="1.0" encoding="iso-8859-1"?>
<!-- Generator: Adobe Illustrator 21.0.0, SVG Export Plug-In . SVG Version: 6.00 Build 0)  -->
<svg version="1.1" id="Capa_1" xmlns="http://www.w3.org/2000/svg" xmlns:xlink="http://www.w3.org/1999/xlink" x="0px" y="0px"
	 viewBox="0 0 512 512" style="enable-background:new 0 0 512 512;" xml:space="preserve">
<path style="fill:#FF8E4F;" d="M512,256c0,62.485-22.382,119.745-59.58,164.184c-9.77,11.682-20.553,22.465-32.235,32.235
	c-44.439,37.198-101.689,59.58-164.184,59.58C114.617,511.998,0.003,397.384,0.003,256S114.617,0.002,256.002,0.002
	S512,114.616,512,256z"/>
<path style="fill:#3AA5C9;" d="M452.42,420.184c-9.77,11.682-20.553,22.465-32.235,32.235L312.206,344.45l32.235-32.245
	L452.42,420.184z"/>
<polygon style="fill:#EAEAEA;" points="130.805,98.57 98.569,130.807 0,0.002 0,0.002 "/>
<rect x="161.216" y="55.678" transform="matrix(0.7071 -0.7071 0.7071 0.7071 -78.7379 190.0822)" style="fill:#3AA5C9;" width="57.73" height="268.817"/>
<rect x="181.979" y="113.561" transform="matrix(0.7071 -0.7071 0.7071 0.7071 -110.3058 266.2921)" style="fill:#FFFFFF;" width="168.623" height="305.471"/>
<polygon style="fill:#FFDF5E;" points="384.576,294.891 307.766,371.701 294.892,384.574 148.022,237.704 327.389,237.704 "/>
<rect x="200.953" y="159.353" transform="matrix(0.7071 -0.7071 0.7071 0.7071 -156.0957 247.3279)" style="fill:#D8D8D8;" width="39.101" height="305.471"/>
<polygon style="fill:#FFB133;" points="307.766,371.701 294.892,384.574 148.022,237.704 173.769,237.704 "/>
<g>
	
		<rect x="53.782" y="125.876" transform="matrix(0.7071 -0.7071 0.7071 0.7071 -63.7812 153.9769)" style="fill:#60C5E8;" width="200.387" height="56.206"/>
	
		<rect x="273.235" y="345.335" transform="matrix(0.7071 -0.7071 0.7071 0.7071 -154.6856 373.4314)" style="fill:#60C5E8;" width="200.387" height="56.206"/>
</g>
<g>
	
		<rect x="73.645" y="173.824" transform="matrix(0.7071 -0.7071 0.7071 0.7071 -111.7302 134.1143)" style="fill:#3AA5C9;" width="64.76" height="56.206"/>
	
		<rect x="293.098" y="393.283" transform="matrix(0.7071 -0.7071 0.7071 0.7071 -202.6346 353.5688)" style="fill:#3AA5C9;" width="64.76" height="56.206"/>
</g>
<g>
</g>
<g>
</g>
<g>
</g>
<g>
</g>
<g>
</g>
<g>
</g>
<g>
</g>
<g>
</g>
<g>
</g>
<g>
</g>
<g>
</g>
<g>
</g>
<g>
</g>
<g>
</g>
<g>
</g>
</svg>
