<?xml version="1.0" encoding="iso-8859-1"?>
<!-- Generator: Adobe Illustrator 21.0.0, SVG Export Plug-In . SVG Version: 6.00 Build 0)  -->
<svg version="1.1" id="Capa_1" xmlns="http://www.w3.org/2000/svg" xmlns:xlink="http://www.w3.org/1999/xlink" x="0px" y="0px"
	 viewBox="0 0 512 512" style="enable-background:new 0 0 512 512;" xml:space="preserve">
<path style="fill:#6EB585;" d="M512,256c0,119.786-82.264,220.347-193.378,248.277c-3.897,0.982-7.826,1.87-11.797,2.675
	c-16.426,3.312-33.416,5.047-50.824,5.047c-21.452,0-42.287-2.644-62.202-7.617c-31.002-7.743-59.757-21.128-85.127-39.006
	c-24.012-16.927-44.983-37.867-61.92-61.868C28.215,377.26,14.496,347.376,6.868,315.13C2.375,296.155,0.003,276.354,0.003,256
	c0-141.384,114.614-255.998,255.998-255.998S512,114.616,512,256z"/>
<polygon style="fill:#BA4C20;" points="491.684,129.128 435.586,129.674 494.99,65.061 429.082,4.466 112.26,349.071 
	178.168,409.665 345.56,227.595 486.429,176.418 "/>
<g>
	
		<rect x="48.854" y="171.384" transform="matrix(0.6768 -0.7362 0.7362 0.6768 -46.9679 269.0455)" style="fill:#A03510;" width="468.123" height="33.254"/>
	<polygon style="fill:#A03510;" points="486.429,176.418 489.289,150.681 384.034,184.463 345.56,227.595 	"/>
</g>
<path style="fill:#D8D8D8;" d="M110.917,231.973l107.41,107.409v40.099c0,39.112,31.707,70.82,70.82,70.82l0,0
	c38.659,0,70.061-30.981,70.785-69.466c38.485-0.724,69.466-32.126,69.466-70.785l0,0c0-39.112-31.707-70.82-70.82-70.82h-40.098
	l-107.41-107.41V91.72c0-39.112-31.707-70.82-70.82-70.82l0,0c-38.659,0-70.061,30.981-70.785,69.466
	C30.981,91.092,0,122.494,0,161.153l0,0c0,39.112,31.707,70.82,70.82,70.82L110.917,231.973L110.917,231.973z"/>
<path style="fill:#FFFFFF;" d="M289.147,429.402c-27.528,0-49.922-22.395-49.922-49.922v-48.755L119.574,211.075H70.82
	c-27.527,0-49.922-22.395-49.922-49.922c0-27.002,21.965-49.384,48.962-49.891l20.124-0.378l0.377-20.123
	c0.508-26.997,22.888-48.962,49.89-48.962c27.528,0,49.922,22.395,49.922,49.922v48.754l119.652,119.652h48.754
	c27.527,0,49.921,22.395,49.921,49.922c0,27.002-21.965,49.383-48.96,49.89l-20.123,0.378l-0.378,20.123
	C338.53,407.437,316.149,429.402,289.147,429.402z"/>
<path style="fill:#FFB133;" d="M335.361,410.268c0,35.652-10.48,68.848-28.536,96.684c-16.426,3.312-33.416,5.047-50.824,5.047
	c-21.452,0-42.287-2.644-62.202-7.617c-31.002-7.743-59.757-21.128-85.127-39.006c-24.012-16.927-44.983-37.867-61.92-61.868
	C28.215,377.26,14.496,347.376,6.868,315.13c31.556-49.81,87.154-82.881,150.475-82.881c11.515,0,22.758,1.097,33.656,3.166
	C273.221,251.162,335.361,323.469,335.361,410.268z"/>
<path style="fill:#FFDF5E;" d="M335.361,410.268c0,35.652-10.48,68.848-28.536,96.684c-16.426,3.312-33.416,5.047-50.824,5.047
	c-21.452,0-42.287-2.644-62.202-7.617c-31.002-7.743-59.757-21.128-85.127-39.006c-24.012-16.927-44.983-37.867-61.92-61.868
	c3.124-83.769,64.167-152.753,144.247-168.092C273.221,251.162,335.361,323.469,335.361,410.268z"/>
<g>
</g>
<g>
</g>
<g>
</g>
<g>
</g>
<g>
</g>
<g>
</g>
<g>
</g>
<g>
</g>
<g>
</g>
<g>
</g>
<g>
</g>
<g>
</g>
<g>
</g>
<g>
</g>
<g>
</g>
</svg>
