<?xml version="1.0" encoding="iso-8859-1"?>
<!-- Generator: Adobe Illustrator 21.0.0, SVG Export Plug-In . SVG Version: 6.00 Build 0)  -->
<svg version="1.1" id="Capa_1" xmlns="http://www.w3.org/2000/svg" xmlns:xlink="http://www.w3.org/1999/xlink" x="0px" y="0px"
	 viewBox="0 0 512 512" style="enable-background:new 0 0 512 512;" xml:space="preserve">
<path style="fill:#60C5E8;" d="M512,256c0,69.141-27.408,131.897-71.962,177.946C393.488,482.074,328.244,512,256,512
	s-137.498-29.926-184.048-78.064C27.408,387.887,0,325.13,0,256S27.408,124.113,71.952,78.064C118.502,29.926,183.756,0,256,0
	c36.456,0,71.126,7.617,102.505,21.347l0.01,0.01C448.867,60.886,512,151.071,512,256z"/>
<path style="fill:#EA5A52;" d="M440.043,102.881v331.065C393.493,482.074,328.249,512,256.005,512s-137.498-29.926-184.048-78.064V0
	h265.216l21.337,21.347L440.043,102.881z"/>
<rect x="119.118" y="87.803" style="fill:#FFFFFF;" width="273.763" height="273.763"/>
<path style="fill:#A03510;" d="M317.143,178.775l-4.104-70.989c-0.271-4.679-6.195-6.523-9.074-2.825l-34.036,43.717"/>
<path style="fill:#BA4C20;" d="M327.747,362.129h-164.77c-0.251-0.178-0.491-0.376-0.742-0.564l12.309-212.888h126.589
	c8.004,0,14.629,6.248,15.088,14.242l0.919,15.851L327.747,362.129z"/>
<path style="fill:#A03510;" d="M209.517,362.129h-46.54c-0.251-0.178-0.491-0.376-0.742-0.564l12.309-212.888h30.71L209.517,362.129
	z"/>
<ellipse style="fill:#3C363F;" cx="299.426" cy="196.305" rx="11.546" ry="17.975"/>
<ellipse style="fill:#5C5560;" cx="303.512" cy="194.79" rx="3.769" ry="9.172"/>
<path style="fill:#BA4C20;" d="M220.017,148.68l-20.512,13.072l-6.529,4.161l-5.006,3.196c-6.332,4.003-14.565-0.837-14.127-8.33
	l3.061-52.996c0.272-4.674,6.196-6.521,9.076-2.826L220.017,148.68z"/>
<ellipse style="fill:#3C363F;" cx="251.361" cy="196.305" rx="11.546" ry="17.975"/>
<ellipse style="fill:#5C5560;" cx="255.446" cy="194.79" rx="3.769" ry="9.172"/>
<path style="fill:#D8D8D8;" d="M240.453,218.536h115.331v69.128c0,10.207-6.05,19.443-15.406,23.522l-42.752,18.636
	c-16.02,6.983-34.554-1.516-39.714-18.213l-25.429-82.268C230.823,223.975,234.836,218.536,240.453,218.536z"/>
<path style="fill:#EAEAEA;" d="M338.01,239.739v53.018c0,11.813-6.996,22.503-17.821,27.229c-0.007,0-0.007,0.007-0.015,0.007
	l-22.548,9.83c-16.019,6.981-34.557-1.515-39.713-18.213l-25.428-82.268c-1.658-5.368,2.352-10.811,7.968-10.811h92.844
	L338.01,239.739z"/>
<path style="fill:#3C363F;" d="M352.015,218.536H317.84c-6.522,0-11.811,5.287-11.811,11.81l0,0c0,6.522,5.287,11.81,11.811,11.81
	h34.174c6.522,0,11.81-5.287,11.81-11.81l0,0C363.824,223.823,358.537,218.536,352.015,218.536z"/>
<path style="fill:#5C5560;" d="M354.149,222.305h-17.087c-3.261,0-5.905,2.644-5.905,5.905l0,0c0,3.261,2.644,5.905,5.905,5.905
	h17.087c3.261,0,5.905-2.644,5.905-5.905l0,0C360.055,224.95,357.411,222.305,354.149,222.305z"/>
<g>
	<circle style="fill:#D8D8D8;" cx="272.781" cy="275.425" r="9.047"/>
	<circle style="fill:#D8D8D8;" cx="305.455" cy="275.425" r="9.047"/>
	<circle style="fill:#D8D8D8;" cx="290.377" cy="295.027" r="9.047"/>
</g>
<path style="fill:#F9B7D2;" d="M199.507,161.751l-6.533,4.164l-5.003,3.195c-0.178,0.112-0.354,0.218-0.537,0.313
	c-0.029,0.018-0.06,0.029-0.089,0.047c-6.231,3.325-13.927-1.441-13.502-8.695l3.059-52.992c0.272-4.678,6.196-6.52,9.078-2.83
	c2.628,6.408,6.462,16.455,10.071,26.07c1.016,2.705,2.008,5.369,2.959,7.914c1.63,4.395,3.119,8.417,4.288,11.594
	C204.828,154.705,203.251,159.359,199.507,161.751z"/>
<polygon style="fill:#D33531;" points="440.039,102.875 337.163,102.875 337.163,0 "/>
<g>
	<path style="fill:#FFFFFF;" d="M163.662,444.454c-0.796,2.385-3.738,3.499-6.76,3.499c-2.941,0-6.044-1.113-6.601-3.499
		l-5.09-21.473l-5.169,21.473c-0.556,2.385-3.658,3.499-6.6,3.499c-3.023,0-6.045-1.113-6.76-3.499l-15.747-50.023
		c-0.079-0.238-0.159-0.636-0.159-0.954c0-2.307,3.659-4.136,6.601-4.136c1.59,0,3.023,0.557,3.42,2.068l12.565,43.104l6.759-27.675
		c0.478-1.988,2.784-2.863,5.09-2.863c2.228,0,4.534,0.875,5.01,2.863l6.76,27.675l12.565-43.104c0.398-1.511,1.83-2.068,3.42-2.068
		c2.941,0,6.6,1.829,6.6,4.136c0,0.318-0.079,0.716-0.158,0.954L163.662,444.454z"/>
	<path style="fill:#FFFFFF;" d="M178.696,443.182c0-0.159,0.079-0.478,0.159-0.795l15.348-50.023
		c0.717-2.387,3.658-3.499,6.601-3.499c3.023,0,5.964,1.113,6.681,3.499l15.349,50.023c0.079,0.319,0.159,0.557,0.159,0.795
		c0,2.465-3.738,4.294-6.521,4.294c-1.75,0-3.102-0.557-3.5-2.068l-3.022-10.577h-18.21l-3.022,10.577
		c-0.398,1.511-1.75,2.068-3.5,2.068C182.434,447.476,178.696,445.726,178.696,443.182z M207.725,426.72l-6.919-24.415
		l-6.918,24.415H207.725z"/>
	<path style="fill:#FFFFFF;" d="M256.717,444.215l-17.099-31.971v31.971c0,2.147-2.625,3.261-5.169,3.261
		c-2.625,0-5.169-1.113-5.169-3.261v-51.614c0-2.227,2.545-3.261,5.169-3.261c3.738,0,5.249,0.795,7.714,5.488l15.348,29.664
		v-31.971c0-2.227,2.545-3.181,5.169-3.181c2.545,0,5.169,0.955,5.169,3.181v51.693c0,2.147-2.625,3.261-5.169,3.261
		C260.216,447.476,258.069,446.68,256.717,444.215z"/>
	<path style="fill:#FFFFFF;" d="M311.274,389.34c2.228,0,3.261,2.387,3.261,4.613c0,2.465-1.193,4.693-3.261,4.693h-11.611v45.569
		c0,2.147-2.625,3.261-5.169,3.261c-2.625,0-5.169-1.113-5.169-3.261v-45.569h-11.69c-2.068,0-3.261-2.147-3.261-4.693
		c0-2.227,1.033-4.613,3.261-4.613H311.274z"/>
	<path style="fill:#FFFFFF;" d="M331.317,414.312h12.088c2.068,0,3.26,1.988,3.26,4.136c0,1.829-1.033,3.976-3.26,3.976h-12.088
		v15.985h22.506c2.068,0,3.261,2.147,3.261,4.613c0,2.147-1.033,4.453-3.261,4.453h-28.312c-2.306,0-4.534-1.113-4.534-3.261
		v-51.614c0-2.147,2.228-3.261,4.534-3.261h28.312c2.228,0,3.261,2.307,3.261,4.453c0,2.465-1.193,4.613-3.261,4.613h-22.506
		V414.312z"/>
	<path style="fill:#FFFFFF;" d="M382.535,389.34c10.497,0,18.689,4.931,18.689,18.213v21.711c0,13.281-8.192,18.212-18.689,18.212
		h-14.077c-2.704,0-4.534-1.511-4.534-3.181v-51.773c0-1.67,1.83-3.181,4.534-3.181h14.077V389.34z M374.264,398.407v40.003h8.271
		c5.247,0,8.35-2.942,8.35-9.145v-21.711c0-6.204-3.102-9.146-8.35-9.146h-8.271V398.407z"/>
</g>
<g>
</g>
<g>
</g>
<g>
</g>
<g>
</g>
<g>
</g>
<g>
</g>
<g>
</g>
<g>
</g>
<g>
</g>
<g>
</g>
<g>
</g>
<g>
</g>
<g>
</g>
<g>
</g>
<g>
</g>
</svg>
