<?xml version="1.0" encoding="iso-8859-1"?>
<!-- Generator: Adobe Illustrator 21.0.0, SVG Export Plug-In . SVG Version: 6.00 Build 0)  -->
<svg version="1.1" id="Capa_1" xmlns="http://www.w3.org/2000/svg" xmlns:xlink="http://www.w3.org/1999/xlink" x="0px" y="0px"
	 viewBox="0 0 511.999 511.999" style="enable-background:new 0 0 511.999 511.999;" xml:space="preserve">
<circle style="fill:#FF8E4F;" cx="255.999" cy="255.999" r="255.999"/>
<path style="fill:#C6C6C6;" d="M280.111,367.035v89.787c0,9.713-5.741,18.084-14.008,21.896c-3.077,1.424-6.498,2.216-10.104,2.216
	c-13.318,0-24.112-10.793-24.112-24.112v-89.787H280.111z"/>
<g>
	<path style="fill:#D8D8D8;" d="M280.111,367.035v89.787c0,9.713-5.741,18.084-14.008,21.896
		c-8.267-3.812-14.008-12.182-14.008-21.896v-89.787H280.111z"/>
	<path style="fill:#D8D8D8;" d="M335.803,332.12v45.949c0,12.045-9.771,21.804-21.804,21.804H198
		c-12.033,0-21.792-9.759-21.792-21.804V332.12c0-12.045,9.759-21.804,21.792-21.804h116
		C326.033,310.316,335.803,320.076,335.803,332.12z"/>
</g>
<path style="fill:#EAEAEA;" d="M335.803,332.12v45.949c0,12.045-9.771,21.804-21.804,21.804h-79.258
	c-12.033,0-21.792-9.759-21.792-21.804V332.12c0-12.045,9.759-21.804,21.792-21.804H314
	C326.033,310.316,335.803,320.076,335.803,332.12z"/>
<path style="fill:#3AA5C9;" d="M382.58,44.377v256.157c0,24.502-19.875,44.377-44.388,44.377H173.796
	c-24.513,0-44.377-19.875-44.377-44.377V44.377C129.42,19.875,149.283,0,173.796,0h164.396C362.705,0,382.58,19.875,382.58,44.377z"
	/>
<path style="fill:#60C5E8;" d="M382.58,44.377v256.157c0,24.502-19.875,44.377-44.388,44.377H225.464
	c-24.513,0-44.377-19.875-44.377-44.377V44.377C181.088,19.875,200.951,0,225.464,0h112.728C362.705,0,382.58,19.875,382.58,44.377z
	"/>
<path style="fill:#FFFFFF;" d="M203.119,213.164c0,1.113,0.017,2.222,0.049,3.327c1.978,67.448,103.685,67.448,105.663,0
	c0.032-1.105,0.049-2.214,0.049-3.327c0-40.067-21.149-75.18-52.88-94.831C224.268,137.983,203.119,173.096,203.119,213.164z"/>
<g>
</g>
<g>
</g>
<g>
</g>
<g>
</g>
<g>
</g>
<g>
</g>
<g>
</g>
<g>
</g>
<g>
</g>
<g>
</g>
<g>
</g>
<g>
</g>
<g>
</g>
<g>
</g>
<g>
</g>
</svg>
