<?xml version="1.0" encoding="iso-8859-1"?>
<!-- Generator: Adobe Illustrator 21.0.0, SVG Export Plug-In . SVG Version: 6.00 Build 0)  -->
<svg version="1.1" id="Capa_1" xmlns="http://www.w3.org/2000/svg" xmlns:xlink="http://www.w3.org/1999/xlink" x="0px" y="0px"
	 viewBox="0 0 512 512" style="enable-background:new 0 0 512 512;" xml:space="preserve">
<circle style="fill:#EA5A52;" cx="256" cy="256" r="256"/>
<path style="fill:#FFDF5E;" d="M499.872,334.084c-33.008,103.194-129.714,177.915-243.869,177.915c-0.888,0-1.787,0-2.675-0.01
	c-112.995-1.16-208.457-75.525-241.194-177.925v-0.01l18.265-121.595h451.197L499.872,334.084z"/>
<path style="fill:#FFB133;" d="M256.003,511.999c-114.166,0-210.871-74.731-243.869-177.936l18.265-121.605h38.452l41.89,37.366
	C110.741,249.824,72.53,445.449,256.003,511.999z"/>
<path style="fill:#FFDF5E;" d="M256,288.796c-56.08,0-109.076-5.838-149.225-16.439c-50.677-13.381-76.371-33.534-76.371-59.899
	s25.695-46.518,76.371-59.899C146.924,141.958,199.92,136.12,256,136.12s109.075,5.839,149.225,16.439
	c50.677,13.381,76.372,33.534,76.372,59.899s-25.695,46.518-76.372,59.899C365.076,282.957,312.08,288.796,256,288.796z"/>
<ellipse style="fill:#FFFFFF;" cx="256" cy="212.459" rx="202.804" ry="53.551"/>
<path style="fill:#C6C6C6;" d="M433.166,212.458c-4.315,3.082-12.612,7.481-26.708,12.069c-3.678,1.202-7.753,2.414-12.267,3.605
	c-0.899,0.24-1.818,0.481-2.759,0.721c-2.832,0.721-5.831,1.442-8.986,2.152c-35.015,7.879-79.924,12.215-126.443,12.215
	c-18.536,0-36.833-0.69-54.335-2.027c-8.808-0.669-17.418-1.494-25.767-2.487c-16.687-1.954-32.308-4.545-46.341-7.701
	c-3.166-0.711-6.154-1.432-8.997-2.152c-0.93-0.24-1.839-0.47-2.727-0.711c-4.514-1.202-8.61-2.424-12.298-3.615
	c-14.096-4.587-22.392-8.986-26.708-12.069c4.608-3.291,13.751-8.088,29.644-12.988c4.89-1.515,10.407-3.03,16.635-4.524
	c1.442-0.345,2.926-0.69,4.451-1.034c15.287-3.438,32.475-6.207,50.855-8.223c7.91-0.878,16.039-1.609,24.336-2.205
	c16.562-1.17,33.792-1.787,51.252-1.787c46.519,0,91.429,4.336,126.443,12.215c1.515,0.345,2.999,0.69,4.441,1.034
	c6.217,1.484,11.734,2.999,16.614,4.514C419.415,204.36,428.547,209.167,433.166,212.458z"/>
<path style="fill:#60C5E8;" d="M394.191,228.132c-0.899,0.24-1.818,0.481-2.759,0.721c-2.832,0.721-5.831,1.442-8.986,2.152
	c-35.015,7.879-79.924,12.215-126.443,12.215c-18.536,0-36.833-0.69-54.335-2.027c-8.808-0.669-17.418-1.494-25.767-2.487
	c-16.687-1.954-32.308-4.545-46.341-7.701c-3.166-0.711-6.154-1.432-8.997-2.152c-0.93-0.24-1.839-0.47-2.727-0.711
	c2.309-0.627,4.733-1.243,7.272-1.849c1.442-0.345,2.926-0.69,4.451-1.034c15.287-3.438,32.475-6.207,50.855-8.223
	c7.91-0.878,16.039-1.609,24.336-2.205c16.562-1.17,33.792-1.787,51.252-1.787c46.519,0,91.429,4.336,126.443,12.215
	c1.515,0.345,2.999,0.69,4.441,1.034C389.437,226.899,391.871,227.515,394.191,228.132z"/>
<path style="fill:#6095C4;" d="M203.123,419.707c0,1.113,0.017,2.223,0.049,3.327c1.978,67.448,103.685,67.448,105.663,0
	c0.032-1.106,0.049-2.214,0.049-3.327c0-40.067-21.149-75.18-52.88-94.831C224.272,344.526,203.123,379.641,203.123,419.707z"/>
<g>
</g>
<g>
</g>
<g>
</g>
<g>
</g>
<g>
</g>
<g>
</g>
<g>
</g>
<g>
</g>
<g>
</g>
<g>
</g>
<g>
</g>
<g>
</g>
<g>
</g>
<g>
</g>
<g>
</g>
</svg>
